<?xml version="1.0" encoding="UTF-8" standalone="no"?>
<!DOCTYPE svg PUBLIC "-//W3C//DTD SVG 1.1//EN" "http://www.w3.org/Graphics/SVG/1.1/DTD/svg11.dtd">
<svg width="100%" height="100%" viewBox="0 0 15434 10795" version="1.1" xmlns="http://www.w3.org/2000/svg" xmlns:xlink="http://www.w3.org/1999/xlink" xml:space="preserve" xmlns:serif="http://www.serif.com/" style="fill-rule:evenodd;clip-rule:evenodd;stroke-linejoin:round;stroke-miterlimit:2;">
    <g transform="matrix(5.55556,0,0,5.55556,0,0)">
        <g transform="matrix(5.55556,0,0,5.55556,0,-426)">
            <g>
                <path d="M147.926,417.185L139.474,389.898L174.127,411.653C174.252,411.73 174.407,411.751 174.547,411.705L210.698,399.926C210.894,399.861 211.031,399.684 211.042,399.478L211.399,393.233L217.931,388.049C218.011,387.984 218.07,387.897 218.1,387.798L225.867,361.321C249.54,343.482 278.093,332.512 321.302,324.647C321.52,324.607 321.686,324.429 321.709,324.208C321.732,323.988 321.608,323.778 321.403,323.693L295.679,313.024C295.583,312.983 295.476,312.975 295.372,313C254.214,322.721 233.472,333.373 200.623,354.865L212.752,317.299C217.907,316.208 290.375,300.866 300.095,297.984C309.668,295.145 323.945,289.119 325.375,288.513C337.229,289.54 345.242,292.691 348.552,297.629C349.915,299.663 350.467,302.003 350.188,304.499C349.268,301.932 347.01,299.073 343.822,296.555C339.818,293.392 333.821,290.49 328.988,291.834C327.804,292.246 299.989,302.051 300.953,312.773C300.969,312.943 301.069,313.095 301.222,313.173C301.337,313.232 312.816,319.111 323.874,320.821C324.051,320.849 324.232,320.777 324.345,320.634L326.461,317.912C326.564,317.78 326.594,317.604 326.54,317.446C326.486,317.287 326.357,317.166 326.195,317.122C321.928,315.984 319.121,313.232 319.045,310.112C318.94,305.803 324.019,302.172 330.364,302.017C336.758,301.844 341.96,305.243 342.064,309.551C342.169,313.859 337.091,317.49 330.744,317.645C330.621,317.648 330.503,317.697 330.413,317.783L327.017,321.007C326.868,321.147 326.82,321.364 326.896,321.554C326.98,321.765 327.201,321.87 327.428,321.869C337.563,321.869 349.324,317.759 352.25,309.849C352.521,308.931 358.862,287.242 358.964,277.75C359.066,268.25 354.881,255.012 354.839,254.879C354.773,254.674 354.583,254.533 354.368,254.531C354.161,254.508 353.96,254.665 353.89,254.869L348.023,271.962L347.632,272.019C331.485,274.395 319.572,276.145 305.607,271.919L337.245,269.861C337.384,269.852 337.513,269.786 337.601,269.679C337.688,269.57 337.728,269.431 337.708,269.294L335.227,251.301C337.547,256.453 342.076,265.309 345.846,265.452C347.051,265.488 348.063,264.712 348.842,263.118C350.447,259.828 355.465,248.415 353.011,238.975L363.356,217.454C363.468,217.224 363.387,216.947 363.17,216.812C362.953,216.679 362.668,216.728 362.512,216.931L351.769,230.761L342.079,215.813C341.983,215.666 341.823,215.591 341.646,215.585C341.284,215.596 332.765,215.879 330.062,219.991C327.612,223.716 330.109,237.757 330.65,240.617C318.049,243.198 301.639,245.035 291.147,243.848C300.642,243.441 314.867,241.601 325.846,237.353C326.025,237.284 326.148,237.117 326.163,236.925C326.179,236.733 326.082,236.55 325.915,236.453L322.329,234.386L317.909,220.865C317.864,220.729 317.765,220.619 317.634,220.562L299.76,212.734L301.396,206.712L326.32,209.344C326.468,209.36 326.614,209.309 326.721,209.206L339.73,196.642L340.786,212.693C340.795,212.83 340.861,212.958 340.968,213.046C341.074,213.134 341.22,213.172 341.349,213.156C349.698,212.082 355.584,212.685 359.116,219.002C359.202,219.156 359.363,219.253 359.539,219.258C359.727,219.261 359.881,219.175 359.975,219.026C366.358,208.964 367.372,202.986 364.495,192.371C364.45,192.204 364.321,192.072 364.155,192.023L343.651,185.923C343.494,185.877 343.323,185.91 343.193,186.014L326.978,199.18L257.048,186.369L268.092,165.623L383.285,191.477C383.535,191.534 383.781,191.394 383.865,191.157L385.354,186.971C385.401,186.841 385.392,186.698 385.329,186.576C385.266,186.453 385.155,186.362 385.022,186.323L298.338,161.271L387.366,184.245C387.626,184.314 387.885,184.166 387.967,183.916C389.568,179.032 391.02,173.25 387.938,166.429C387.878,166.296 387.762,166.195 387.621,166.155L295.02,139.495L385.865,162.932C385.994,162.965 386.132,162.946 386.248,162.877C386.362,162.807 386.445,162.695 386.477,162.565C387.513,158.252 385.402,152.98 381.098,149.133C381.043,149.084 380.978,149.048 380.907,149.027L295.086,123.497L380.633,146.564C380.822,146.614 381.021,146.552 381.145,146.404C381.27,146.255 381.298,146.048 381.217,145.872C380.608,144.555 380.063,143.277 379.534,142.035C377.104,136.331 375.004,131.406 368.74,127.017C368.697,126.988 368.649,126.964 368.6,126.949L220.951,81.667C220.69,81.586 220.417,81.728 220.331,81.985C220.244,82.241 220.377,82.52 220.631,82.614C240.23,89.834 252.359,108.458 254.712,119.377C257.432,132.002 262.751,162.008 263.206,164.582L250.732,187.07C236.126,191.05 225.343,192.248 217.915,190.703C227.975,189.117 244.006,182.926 256.746,173.459C256.936,173.319 257.001,173.067 256.903,172.852C256.808,172.638 256.579,172.521 256.345,172.569L247.129,174.516C246.993,174.545 246.874,174.63 246.803,174.75C243.909,179.636 204.19,189.91 197.952,187.387C185.173,182.216 178.465,173.662 175.576,158.822C177.066,158.093 182.481,155.151 181.484,151.328L188.986,147.029C189.625,161.782 202.322,174.551 216.584,174.558L216.598,174.558C223.545,174.558 230.184,171.745 235.292,166.638C240.974,160.955 244.23,152.881 244.226,144.484C244.218,127.892 231.805,114.388 216.556,114.381L216.541,114.381C209.175,114.381 202.251,117.248 197.044,122.455C191.857,127.642 188.976,134.547 188.914,141.922L180.272,148.228C179.138,145.25 174.564,144.523 173.187,144.37C172.685,141.646 169.959,123.905 181.313,112.075C186.402,106.771 207.821,98.851 223.618,99.47C230.139,99.726 234.715,101.406 237.22,104.463C254.427,125.464 252.834,162.839 246.811,172.201C246.683,172.4 246.712,172.661 246.88,172.827C247.048,172.994 247.311,173.018 247.507,172.888L261.022,163.943C261.146,163.86 261.228,163.727 261.243,163.578C261.259,163.43 261.208,163.283 261.104,163.176L257.144,159.132C257.027,147.12 251.279,116.851 243.243,104.635C234.646,91.568 227.351,84.082 213.442,81.948C204.543,80.58 191.082,83.894 178.313,90.592C165.219,97.461 156.288,105.964 154.424,113.34C145.988,146.713 154.704,172.813 180.33,190.913C180.385,190.952 180.447,190.979 180.512,190.993L208.472,197.096C208.634,197.134 208.805,197.084 208.926,196.968C209.046,196.851 209.1,196.682 209.07,196.518L208.263,192.133L218.65,203.422C218.73,203.508 218.837,203.564 218.953,203.579L265.177,209.692C265.437,209.724 265.69,209.546 265.735,209.28C265.78,209.014 265.606,208.761 265.344,208.706L227.246,200.837L249.949,196.758L295.137,205.709C286.897,213.36 278.922,213.32 268.821,210.748C268.658,210.705 268.479,210.751 268.354,210.869C268.23,210.987 268.175,211.16 268.208,211.328L269.229,216.525C269.258,216.678 269.356,216.807 269.495,216.876L285.86,225.051C278.938,242.284 280.292,253.36 291.318,270.372C291.401,270.499 291.536,270.581 291.688,270.596L298.562,271.303L296.105,280.632C296.082,280.72 296.081,280.732 296.106,280.82C296.088,280.871 295.857,281.348 293.358,282.376C278.476,288.493 218.466,300.625 212.574,297.771C207.011,295.076 198.926,289.487 198.845,289.43C198.67,289.309 198.436,289.312 198.265,289.438C198.093,289.564 198.02,289.786 198.083,289.99C198.133,290.15 203.054,306.167 202.176,316.44C201.521,324.1 191.42,351.395 186.212,365.07C189.324,352.597 194.87,329.086 195.691,316.888C196.897,298.991 197.713,280.82 193.405,272.484C188.852,263.674 184.514,262.466 174.842,267.309C174.673,267.394 174.566,267.567 174.566,267.757L174.62,374.315C174.62,374.486 174.707,374.645 174.852,374.737L208.062,395.846L206.949,398.69L173.533,376.561C173.421,376.486 173.284,376.462 173.15,376.49L154.372,380.626L171.553,374.787C171.756,374.718 171.892,374.527 171.892,374.313L171.839,267.755C171.839,267.587 171.754,267.43 171.614,267.338C171.474,267.245 171.297,267.229 171.143,267.295L139.093,280.979C138.908,281.058 138.789,281.239 138.789,281.439L138.84,382.55L0,382.487L0,383.487L139.339,383.55L139.34,383.55C139.473,383.55 139.6,383.497 139.693,383.403C139.787,383.309 139.84,383.182 139.84,383.05L139.789,281.769L170.839,268.512L170.892,373.955L145.516,382.58C145.265,382.666 145.124,382.932 145.195,383.188C145.266,383.443 145.525,383.598 145.784,383.542L173.158,377.513L206.913,399.866C207.038,399.949 207.195,399.971 207.339,399.926C207.483,399.88 207.599,399.772 207.654,399.632L209.144,395.827C209.23,395.604 209.148,395.35 208.946,395.222L175.62,374.041L175.566,268.066C184.475,263.668 188.303,264.79 192.517,272.943C196.707,281.051 195.89,299.065 194.693,316.822C193.555,333.736 183.244,372.658 183.14,373.049C183.072,373.305 183.215,373.57 183.467,373.652C183.719,373.739 183.992,373.607 184.088,373.36C184.831,371.471 202.28,326.969 203.172,316.526C203.916,307.824 200.6,295.156 199.432,291.039C201.891,292.693 207.771,296.555 212.139,298.672C219.68,302.33 290.831,286.644 296.54,281.818C296.944,281.475 297.132,281.128 297.1,280.781L299.677,270.992C299.714,270.851 299.688,270.701 299.604,270.581C299.521,270.461 299.39,270.383 299.244,270.368L292.028,269.627C281.111,252.717 279.934,242.256 286.96,224.998C287.059,224.757 286.954,224.479 286.721,224.363L270.162,216.092L269.341,211.908C279.697,214.439 287.918,214.196 296.528,205.763C296.661,205.634 296.711,205.441 296.658,205.263C296.604,205.085 296.458,204.951 296.275,204.916L250.05,195.758C249.989,195.746 249.926,195.745 249.865,195.757L224.52,200.311C224.284,200.353 224.111,200.557 224.108,200.797C224.105,201.036 224.272,201.244 224.507,201.293L251.584,206.886L219.264,202.611L207.825,190.18C207.675,190.017 207.432,189.972 207.234,190.072C207.035,190.171 206.925,190.39 206.965,190.609L207.95,195.959L180.824,190.038C155.635,172.202 147.078,146.48 155.394,113.585C159.17,98.646 194.342,80.034 213.291,82.936C226.83,85.014 233.969,92.359 242.408,105.185C250.394,117.325 256.092,147.575 256.144,159.34C256.146,159.47 256.196,159.595 256.286,159.687L259.965,163.443L248.618,170.954C251.37,164.966 252.652,153.751 251.764,142.472C251.053,133.449 248.318,116.43 237.993,103.829C235.299,100.541 230.476,98.739 223.657,98.471C207.624,97.825 185.801,105.954 180.591,111.382C167.952,124.552 172.235,144.739 172.28,144.941C172.328,145.158 172.513,145.317 172.734,145.332C172.796,145.336 178.938,145.788 179.487,149.14C179.515,149.312 179.63,149.456 179.791,149.522C179.952,149.589 180.135,149.566 180.275,149.464L189.708,142.58C189.837,142.486 189.913,142.336 189.913,142.176C189.909,134.973 192.693,128.221 197.751,123.162C202.77,118.144 209.441,115.381 216.541,115.381L216.555,115.381C231.253,115.388 243.218,128.444 243.226,144.484C243.23,152.617 240.081,160.434 234.584,165.93C229.665,170.85 223.278,173.558 216.598,173.558L216.585,173.558C201.088,173.55 190.117,159.12 189.962,146.174C189.96,145.996 189.864,145.833 189.71,145.745C189.557,145.657 189.368,145.658 189.214,145.746L180.637,150.661C180.424,150.784 180.331,151.042 180.417,151.271C181.795,154.925 174.879,158.047 174.809,158.078C174.597,158.172 174.478,158.4 174.521,158.628C177.44,174.077 184.335,182.955 197.577,188.313C203.271,190.617 243.262,181.432 247.538,175.452L254.237,174.036C240.806,183.443 224.374,189.266 215.243,190.024C215.006,190.044 214.816,190.228 214.788,190.464C214.76,190.701 214.902,190.924 215.128,190.998C222.78,193.514 234.58,192.526 251.199,187.979C251.329,187.943 251.439,187.857 251.505,187.739L264.167,164.912C264.223,164.811 264.242,164.695 264.222,164.582C264.165,164.261 258.521,132.315 255.689,119.166C253.583,109.388 243.806,93.558 227.956,84.861L368.23,127.882C374.212,132.095 376.252,136.884 378.614,142.427C379.017,143.371 379.429,144.336 379.869,145.323L257.868,112.427C257.608,112.356 257.333,112.51 257.258,112.773C257.183,113.036 257.334,113.311 257.596,113.388L380.514,149.953C384.325,153.4 386.282,157.995 385.607,161.833L260.482,129.552C260.213,129.483 259.946,129.641 259.875,129.904C259.803,130.168 259.956,130.441 260.219,130.516L387.12,167.051C389.842,173.252 388.627,178.6 387.161,183.159L264.966,151.627C264.696,151.558 264.431,151.716 264.358,151.979C264.286,152.243 264.439,152.515 264.702,152.592L384.234,187.137L383.072,190.404L267.938,164.564C267.723,164.514 267.493,164.618 267.388,164.817L255.844,186.503C255.769,186.644 255.766,186.812 255.835,186.956C255.904,187.099 256.038,187.201 256.195,187.23L327.024,200.205C327.164,200.232 327.316,200.194 327.43,200.102L343.619,186.957L363.603,192.901C366.235,202.777 365.323,208.522 359.564,217.799C355.383,211.171 348.256,211.298 341.749,212.097L340.657,195.501C340.645,195.307 340.52,195.138 340.338,195.068C340.16,194.999 339.952,195.039 339.811,195.174L326.193,208.325L301.077,205.673C300.834,205.645 300.606,205.802 300.542,206.039L298.682,212.888C298.616,213.127 298.736,213.377 298.964,213.477L317.028,221.388L321.438,234.878C321.477,234.995 321.557,235.095 321.663,235.156L324.5,236.792C311.592,241.536 294.615,243.074 286.151,242.93L286.144,242.93C285.896,242.93 285.685,243.112 285.648,243.357C285.612,243.606 285.766,243.843 286.008,243.911C295.838,246.686 316.395,244.604 331.337,241.496C331.605,241.44 331.779,241.178 331.726,240.909C330.806,236.292 328.863,223.633 330.897,220.54C333.063,217.247 339.928,216.682 341.396,216.598L351.312,231.895C351.4,232.031 351.549,232.116 351.71,232.122C351.864,232.133 352.026,232.057 352.126,231.93L360.423,221.25L352.03,238.708C351.978,238.816 351.967,238.939 351.998,239.055C354.473,248.194 349.521,259.447 347.943,262.679C347.347,263.902 346.662,264.481 345.883,264.452C342.184,264.313 336.546,252.156 334.686,247.483C334.593,247.249 334.342,247.122 334.093,247.185C333.849,247.249 333.69,247.486 333.726,247.737L336.645,268.898L302.944,271.09C302.707,271.105 302.513,271.286 302.481,271.521C302.449,271.758 302.588,271.983 302.813,272.061C318.1,277.373 330.549,275.543 347.777,273.009L348.47,272.907C348.655,272.88 348.81,272.751 348.87,272.574L354.33,256.664C355.404,260.365 358.044,270.254 357.964,277.74C357.864,287.093 351.356,309.345 351.302,309.535C348.688,316.596 337.935,320.531 328.636,320.848L330.963,318.639C337.77,318.399 343.181,314.341 343.064,309.526C342.948,304.77 337.477,301.013 330.777,301.013C330.632,301.013 330.486,301.014 330.341,301.017C323.443,301.185 317.928,305.275 318.045,310.136C318.128,313.527 320.918,316.51 325.221,317.879L323.736,319.787C313.834,318.191 303.648,313.265 301.932,312.411C301.564,302.554 329.036,292.877 329.286,292.788C332.952,291.772 338.414,293.557 343.202,297.34C347.218,300.512 349.745,304.329 349.643,307.063C349.634,307.313 349.811,307.532 350.058,307.575C350.299,307.617 350.544,307.471 350.619,307.232C351.784,303.529 351.356,300.016 349.383,297.072C345.837,291.782 337.746,288.563 325.337,287.506C325.254,287.5 325.174,287.512 325.098,287.544C324.945,287.609 309.791,294.066 299.81,297.025C289.819,299.987 213.037,316.217 212.262,316.38C212.087,316.417 211.945,316.545 211.89,316.716L199.236,355.907C199.171,356.108 199.24,356.33 199.409,356.458C199.578,356.587 199.809,356.595 199.986,356.478C233.38,334.56 254.048,323.803 295.445,314.01L319.458,323.969C276.935,331.856 248.658,342.856 225.133,360.622C225.047,360.687 224.984,360.777 224.954,360.881L217.185,387.364L210.602,392.59C210.49,392.679 210.421,392.81 210.414,392.953L210.063,399.081L174.46,410.681L138.863,388.334C138.685,388.222 138.458,388.234 138.292,388.361C138.126,388.489 138.058,388.706 138.12,388.906L147.08,417.833C147.145,418.043 147.338,418.185 147.558,418.185L500,418.357L500,417.357L147.926,417.185Z" style="fill:white;fill-rule:nonzero;"/>
            </g>
        </g>
    </g>
</svg>
