<?xml version="1.0" encoding="UTF-8" standalone="no"?>
<!DOCTYPE svg PUBLIC "-//W3C//DTD SVG 1.1//EN" "http://www.w3.org/Graphics/SVG/1.1/DTD/svg11.dtd">
<svg width="100%" height="100%" viewBox="0 0 79695 33645" version="1.1" xmlns="http://www.w3.org/2000/svg" xmlns:xlink="http://www.w3.org/1999/xlink" xml:space="preserve" xmlns:serif="http://www.serif.com/" style="fill-rule:evenodd;clip-rule:evenodd;stroke-linejoin:round;stroke-miterlimit:2;">
    <g transform="matrix(5.55556,0,0,5.55556,0,0)">
        <g transform="matrix(5.55556,0,0,5.55556,0,-1901)">
            <g>
                <path d="M19.609,1391.4C33.167,1389.16 53.78,1387.61 79.258,1386.64C104.742,1385.67 135.107,1385.26 168.255,1385.26C257.346,1385.26 366.534,1388.23 455.199,1391.2C499.531,1392.68 538.734,1394.17 567.734,1395.28C582.233,1395.84 594.182,1396.3 602.948,1396.63C611.722,1396.95 617.273,1397.14 619.101,1397.14C619.305,1397.14 619.464,1397.14 619.604,1397.13C619.677,1397.13 619.74,1397.13 619.837,1397.11C619.888,1397.11 619.944,1397.1 620.054,1397.07C620.111,1397.06 620.182,1397.04 620.3,1396.99C620.416,1396.93 620.599,1396.87 620.871,1396.55C621.197,1396.14 621.288,1395.6 621.112,1395.11C620.937,1394.62 620.522,1394.26 620.012,1394.15C614.392,1392.95 608.553,1392.5 602.668,1392.5C592.833,1392.5 582.866,1393.77 573.584,1395.02C564.306,1396.28 555.703,1397.52 548.697,1397.52C545.781,1397.52 543.146,1397.31 540.87,1396.81C539.162,1396.44 537.658,1395.91 536.373,1395.21C534.444,1394.16 532.996,1392.76 531.966,1390.77C530.94,1388.79 530.345,1386.18 530.345,1382.76C530.343,1378.64 531.216,1373.36 533.156,1366.76C535.093,1360.15 538.091,1352.22 542.3,1342.76L540.929,1342.15L540.208,1343.46C548.229,1347.86 554.659,1350.72 559.941,1352.49C565.221,1354.25 569.363,1354.93 572.777,1354.93C577.533,1354.94 580.84,1353.58 583.521,1352.32C584.866,1351.69 586.062,1351.09 587.239,1350.67C588.418,1350.25 589.569,1349.99 590.912,1349.99C591.371,1349.99 591.853,1350.02 592.368,1350.09C593.18,1350.2 593.933,1349.63 594.053,1348.82C594.173,1348.01 593.616,1347.25 592.807,1347.12C585.559,1345.96 579.561,1345.3 574.683,1344.68C571.025,1344.21 567.997,1343.76 565.569,1343.15C563.746,1342.69 562.269,1342.14 561.097,1341.46C560.217,1340.95 559.506,1340.38 558.907,1339.68C558.015,1338.64 557.352,1337.32 556.897,1335.48C556.444,1333.64 556.219,1331.3 556.22,1328.36C556.218,1322.46 557.119,1314.16 558.593,1302.6C560.066,1291.03 562.107,1276.19 564.366,1257.12C565.471,1247.78 565.704,1239.96 565.704,1232.98C565.704,1227.91 565.582,1223.29 565.582,1218.86C565.583,1210.98 565.964,1203.72 568.061,1195.46C570.159,1187.2 573.985,1177.9 580.953,1166.04C585.619,1158.08 592.957,1150.99 599.398,1143.44C602.617,1139.66 605.61,1135.75 607.903,1131.51C610.195,1127.27 611.782,1122.69 612.139,1117.62L612.14,1117.61L612.144,1117.47C612.15,1116.94 611.924,1116.44 611.654,1116.11C611.4,1115.8 611.12,1115.6 610.841,1115.43C610.316,1115.12 609.758,1114.92 609.134,1114.74C608.047,1114.43 606.761,1114.2 605.411,1113.97C603.395,1113.64 601.236,1113.32 599.692,1112.9C598.925,1112.69 598.313,1112.45 598.028,1112.27L597.879,1112.16L597.849,1112.14L597.605,1112.34L597.898,1112.23L597.849,1112.14L597.605,1112.34L597.898,1112.23L597.38,1112.43L597.938,1112.43L597.898,1112.23L597.38,1112.43L597.938,1112.43L597.363,1112.43L597.936,1112.49L597.938,1112.43L597.363,1112.43L597.936,1112.49L597.937,1112.48C598.131,1110.16 598.685,1107.01 599.517,1103.22C602.427,1089.96 608.712,1068.97 614.636,1046.36C620.561,1023.73 626.135,999.481 627.631,979.49C627.663,979.048 627.679,978.598 627.679,978.14C627.673,974.318 626.612,969.905 625.075,965.047C622.764,957.769 619.343,949.506 616.514,941.199C613.68,932.897 611.457,924.554 611.463,917.275C611.463,914.216 611.851,911.351 612.721,908.738C613.592,906.123 614.939,903.757 616.904,901.651C617.327,901.197 617.427,900.525 617.154,899.968C616.882,899.41 616.289,899.077 615.671,899.133C612.199,899.451 608.971,900.423 606.221,901.285C604.848,901.717 603.595,902.122 602.515,902.41C601.437,902.7 600.526,902.862 599.908,902.858C599.569,902.859 599.326,902.813 599.177,902.758C599.063,902.715 598.997,902.673 598.936,902.62C598.85,902.541 598.746,902.416 598.642,902.099C598.54,901.785 598.461,901.291 598.462,900.609C598.459,899.236 598.778,897.137 599.518,894.251C600.256,891.362 601.405,887.676 603.022,883.047C616.236,845.221 620.288,816.993 620.283,787.253C620.279,752.836 614.906,716.455 612.141,660.427C612.018,657.938 611.958,655.434 611.958,652.922C611.953,624.906 619.423,595.858 629.692,573.922C634.822,562.955 640.655,553.766 646.528,547.393C649.462,544.206 652.403,541.727 655.234,540.069C658.068,538.407 660.771,537.573 663.28,537.574C664.978,537.575 666.601,537.947 668.195,538.743C669.787,539.539 671.354,540.77 672.872,542.519L673.633,541.859L672.629,541.859C672.624,542.092 672.728,542.363 672.871,542.519L673.633,541.859L672.629,541.859L673.599,541.859L672.897,541.184C672.741,541.349 672.633,541.566 672.629,541.859L673.599,541.859L672.897,541.184L673.611,541.871L673.611,540.885C673.305,540.885 673.051,541.021 672.897,541.184L673.611,541.871L673.611,540.885L673.611,541.863L673.984,540.957C673.876,540.912 673.743,540.884 673.611,540.885L673.611,541.863L673.984,540.957C671.214,539.824 669.466,538.632 668.468,537.513C667.966,536.952 667.642,536.413 667.435,535.875C667.229,535.337 667.135,534.794 667.134,534.203C667.128,532.926 667.614,531.4 668.45,529.72C669.694,527.197 671.669,524.386 673.374,521.408C674.226,519.915 675.011,518.374 675.592,516.772C676.173,515.171 676.551,513.502 676.551,511.777C676.555,509.856 676.066,507.874 674.936,505.972C673.808,504.067 672.069,502.244 669.61,500.488C665.114,497.277 661.162,494.255 657.747,491.068C652.623,486.283 648.699,481.154 645.839,474.333C642.984,467.513 641.203,458.961 640.542,447.4C640.26,442.465 640.118,437.798 640.118,433.399C640.11,415.561 642.484,402.147 647.244,393.247C649.622,388.791 652.568,385.46 656.121,383.154C659.675,380.85 663.863,379.548 668.821,379.27C671.377,379.127 673.39,378.725 675.031,378.083C676.465,377.523 677.609,376.769 678.511,375.901C680.097,374.372 680.919,372.592 681.737,370.963C682.349,369.731 682.956,368.562 683.81,367.484C685.095,365.876 686.926,364.382 690.481,363.201C694.03,362.029 699.288,361.245 707.142,361.247C714.784,361.247 724.879,361.983 738.254,363.767C742.532,364.337 748.174,365.021 754.233,366.224C763.32,368.022 773.323,371.012 780.914,376.396C784.714,379.087 787.912,382.358 790.167,386.38C792.421,390.403 793.753,395.188 793.756,401.01C793.756,403.728 793.558,405.938 793.203,407.69C792.938,409.005 792.585,410.061 792.178,410.889C791.56,412.135 790.854,412.862 790.04,413.334C789.225,413.802 788.238,414.03 787.008,414.031C785.36,414.035 783.321,413.598 781.052,412.896C777.644,411.847 773.726,410.224 769.601,408.849C765.473,407.478 761.125,406.342 756.766,406.339C753.993,406.338 751.209,406.808 748.542,407.994C744.533,409.77 740.864,413.144 737.819,418.611C734.767,424.084 732.283,431.661 730.519,442.069C730.383,442.889 730.123,443.407 729.924,443.639C729.824,443.758 729.746,443.811 729.69,443.839L729.52,443.878C729.42,443.878 729.23,443.845 728.948,443.68C728.668,443.517 728.311,443.222 727.93,442.771C725.224,439.58 722.88,437.331 720.777,435.837C719.724,435.091 718.729,434.532 717.766,434.153C716.804,433.774 715.868,433.574 714.963,433.574C714.05,433.572 713.176,433.785 712.411,434.174C711.063,434.86 710.086,436.016 709.34,437.35C708.223,439.363 707.556,441.867 707.072,444.527C706.594,447.184 706.32,449.996 706.105,452.558C706.043,453.294 706.013,454.004 706.013,454.689C706.009,458.175 706.803,461.022 708.094,463.336C710.033,466.816 712.993,469.037 715.751,470.878C717.134,471.799 718.477,472.629 719.648,473.456C720.82,474.281 721.813,475.103 722.524,475.963C722.964,476.509 723.129,477.006 723.138,477.664C723.143,478.446 722.828,479.484 722.14,480.668C720.949,482.743 718.68,485.183 715.874,487.575C711.665,491.174 706.258,494.713 701.462,497.321C699.065,498.625 696.817,499.698 694.967,500.432C694.043,500.799 693.218,501.081 692.54,501.264C691.865,501.449 691.326,501.527 691.054,501.524L690.904,501.515C685.488,500.713 680.457,498.196 675.915,494.338C669.106,488.558 663.452,479.753 659.534,469.542C655.613,459.334 653.42,447.732 653.422,436.406C653.419,423.508 656.266,410.987 662.503,401.236C665.621,396.358 669.579,392.164 674.473,388.912C679.367,385.661 685.203,383.346 692.117,382.261C703.954,380.405 716.634,379.331 728.789,379.331C743.277,379.328 757.028,380.865 767.678,384.362C771.224,385.512 775.64,386.657 779.133,389.764C780.883,391.319 782.428,393.356 783.567,396.223C784.702,399.09 785.422,402.803 785.422,407.661C785.422,410.988 785.084,414.849 784.316,419.328C783.873,421.908 783.674,424.332 783.674,426.609C783.666,436.051 787.132,442.927 790.555,448.129C792.265,450.733 793.964,452.939 795.214,454.838C795.839,455.787 796.35,456.656 796.703,457.437C797.057,458.219 797.248,458.904 797.288,459.5C797.298,459.643 797.302,459.781 797.302,459.912C797.301,460.588 797.184,461.084 797.001,461.498C796.84,461.859 796.623,462.166 796.335,462.462C795.835,462.977 795.095,463.441 794.212,463.883C792.89,464.557 791.282,465.149 789.841,466.17C789.124,466.683 788.441,467.327 787.932,468.168C787.421,469.007 787.112,470.03 787.077,471.167C787.073,471.306 787.07,471.444 787.07,471.58C787.07,473.364 787.463,474.84 787.812,476.029C788.172,477.219 788.444,478.128 788.432,478.742C788.429,479.092 788.375,479.356 788.212,479.685C787.971,480.169 787.394,480.843 786.144,481.676C784.9,482.509 783.022,483.48 780.338,484.609C780.013,484.749 779.69,484.921 779.381,485.241C779.228,485.401 779.084,485.604 778.982,485.843C778.879,486.08 778.826,486.35 778.827,486.6C778.828,486.967 778.929,487.276 779.044,487.515C779.268,487.963 779.534,488.237 779.807,488.505C780.287,488.959 780.842,489.359 781.43,489.794C782.307,490.438 783.249,491.143 783.905,491.846C784.233,492.195 784.486,492.538 784.641,492.843C784.797,493.15 784.859,493.404 784.86,493.651C784.859,493.845 784.823,494.048 784.709,494.312C784.538,494.705 784.164,495.236 783.443,495.862C782.725,496.487 781.672,497.199 780.222,497.961C779.593,498.293 779.282,499.02 779.479,499.704C780.329,502.652 780.702,505.07 780.701,506.999C780.701,508.731 780.405,510.059 779.919,511.084C779.552,511.855 779.08,512.466 778.488,512.984C777.604,513.757 776.421,514.323 774.935,514.693C773.453,515.064 771.683,515.228 769.718,515.228C765.292,515.231 759.903,514.397 754.431,513.545C748.951,512.696 743.387,511.83 738.452,511.827C737.759,511.827 737.157,512.301 736.994,512.975L727.957,550.414C727.927,550.536 727.915,550.64 727.915,550.766C727.927,552.734 728.654,554.796 729.789,557.166C731.789,561.301 735.159,566.395 739.11,572.722C750.953,591.684 768.04,621.527 768.049,665.835C768.049,667.881 768.012,669.958 767.937,672.067C767.453,685.602 767.241,697.454 767.241,708.002C767.239,753.907 771.271,775.133 774.401,802.68L775.891,802.511L776.875,801.379C761.95,788.4 747.792,778.85 735.585,770.547C723.375,762.249 713.131,755.183 705.999,747.283C701.422,742.226 697.222,737.962 694.225,733.298C691.23,728.626 689.37,723.597 689.36,716.674C689.355,708.668 691.931,698.088 698.514,683.05L698.515,683.048C698.615,682.823 698.666,682.565 698.665,682.327C698.66,681.797 698.458,681.425 698.277,681.165C697.91,680.663 697.511,680.381 697.024,680.055C696.117,679.472 694.875,678.875 693.307,678.212C687.849,675.914 678.502,672.951 669.583,670.534C665.127,669.327 660.786,668.26 657.104,667.491C655.262,667.107 653.584,666.797 652.13,666.58C650.673,666.365 649.45,666.24 648.454,666.239C647.864,666.243 647.362,666.273 646.836,666.424C646.573,666.504 646.289,666.614 645.986,666.855C645.836,666.976 645.684,667.136 645.56,667.337C645.435,667.538 645.344,667.78 645.308,668.02C645.245,668.434 645.212,668.847 645.213,669.256C645.208,671.166 645.926,672.936 647.095,674.434C648.119,675.753 649.479,676.901 651.084,677.935C653.894,679.741 657.471,681.209 661.478,682.438C673.489,686.109 689.393,687.597 699.113,687.603C701.581,687.603 703.645,687.508 705.197,687.313C705.977,687.214 706.623,687.096 707.188,686.918C707.472,686.826 707.738,686.722 708.021,686.55C708.162,686.462 708.309,686.355 708.459,686.202C708.607,686.05 708.761,685.844 708.867,685.572C715.462,668.503 722.27,645.176 722.276,622.377C722.276,608.36 719.693,594.515 712.805,582.513C709.216,576.263 705.206,571.684 700.875,568.652C696.549,565.619 691.889,564.159 687.174,564.164C683.505,564.164 679.816,565.036 676.198,566.651C670.77,569.076 665.487,573.163 660.524,578.579C655.562,583.998 650.919,590.755 646.803,598.566C638.345,614.631 631.804,637.814 628.148,663.69C626.075,678.384 624.939,693.942 624.939,709.54C624.939,725.136 626.074,740.772 628.55,755.623C629.703,762.56 632.097,768.194 635.552,772.883C640.74,779.926 648.217,784.792 657.266,789.181C666.324,793.57 677.003,797.502 688.799,802.597C717.285,814.899 736.768,820.099 749.678,822.976C756.127,824.414 760.938,825.277 764.323,826.137C766.013,826.565 767.341,826.994 768.316,827.456C769.295,827.919 769.896,828.392 770.286,828.907L771.482,828.003L770.216,827.2C769.413,828.466 769.072,829.951 769.073,831.497C769.085,834.5 770.286,837.829 772.243,841.282C775.191,846.451 779.916,851.883 785.489,856.325C791.066,860.757 797.488,864.208 803.925,865.226C804.94,865.385 805.97,865.461 807.007,865.461C811.41,865.458 815.941,864.106 820.277,861.901C826.78,858.586 832.868,853.338 837.389,847.501C839.649,844.581 841.515,841.512 842.828,838.44C844.14,835.368 844.904,832.289 844.906,829.343L843.415,829.343L844.877,829.635C844.915,829.431 844.903,829.346 844.906,829.343L843.415,829.343L844.877,829.635C845.031,828.863 844.566,828.106 843.807,827.896C843.049,827.685 842.26,828.094 841.994,828.835L841.948,828.94L842.14,829.063L841.982,828.901L841.948,828.94L842.14,829.063L841.982,828.901L842.358,829.285L842.163,828.786L841.982,828.901L842.358,829.285L842.163,828.786L842.327,829.205L842.327,828.752L842.163,828.786L842.327,829.205L842.327,828.752L842.327,828.901L842.338,828.752L842.327,828.752L842.327,828.901L842.338,828.752L842.258,828.733C842.029,828.674 841.435,828.341 840.732,827.773C839.482,826.783 837.825,825.141 835.945,823.259C833.116,820.433 829.761,817.058 826.135,814.345C824.32,812.989 822.434,811.796 820.484,810.927C818.536,810.06 816.514,809.514 814.451,809.513C812.386,809.508 810.293,810.082 808.357,811.352C806.416,812.621 804.634,814.551 803.011,817.225C802.761,817.636 802.724,818.149 802.913,818.592C803.102,819.035 803.498,819.363 803.968,819.467C807.853,820.329 814.612,822.267 823.796,825.129C858.263,835.866 927.078,859.613 1011.81,889.182C1138.9,933.537 1301.84,991 1438.63,1037.38C1507.03,1060.57 1568.89,1080.98 1616.48,1095.61C1640.27,1102.92 1660.5,1108.79 1676.21,1112.83C1684.06,1114.85 1690.78,1116.42 1696.27,1117.48C1701.77,1118.54 1706,1119.11 1709,1119.11C1710.36,1119.11 1711.47,1119.01 1712.43,1118.69C1712.91,1118.54 1713.36,1118.32 1713.77,1117.97C1714.17,1117.62 1714.51,1117.1 1714.62,1116.53C1714.74,1116 1714.55,1115.44 1714.13,1115.08C1713.71,1114.73 1713.13,1114.63 1712.62,1114.82C1708.5,1116.41 1705.44,1118.63 1703.43,1121.37C1701.42,1124.11 1700.51,1127.33 1700.51,1130.72C1700.52,1136.58 1703.12,1142.97 1707.32,1149.35C1713.63,1158.92 1723.65,1168.48 1734.76,1175.72C1745.89,1182.94 1758.09,1187.86 1768.95,1187.88C1773.76,1187.88 1778.31,1186.9 1782.31,1184.67C1782.77,1184.41 1783.07,1183.92 1783.08,1183.39C1783.09,1182.86 1782.83,1182.36 1782.38,1182.08C1769.14,1173.82 1753.65,1167.45 1741.6,1159.16C1735.58,1155.03 1730.44,1150.43 1726.82,1144.95C1723.2,1139.47 1721.06,1133.11 1721.05,1125.22C1721.05,1119.41 1722.23,1112.77 1724.9,1105.1C1730.16,1089.98 1739.02,1075.55 1750.19,1064.96C1761.38,1054.36 1774.82,1047.62 1789.36,1047.63C1791.38,1047.63 1793.43,1047.76 1795.49,1048.03C1795.92,1048.08 1796.3,1048.11 1796.67,1048.11C1797.38,1048.1 1798.03,1048.02 1798.69,1047.63C1799.01,1047.43 1799.31,1047.12 1799.5,1046.76C1799.7,1046.39 1799.77,1046 1799.77,1045.65C1799.77,1045.16 1799.65,1044.75 1799.49,1044.36C1799.19,1043.63 1798.73,1042.95 1798.14,1042.21C1797.11,1040.93 1795.67,1039.51 1793.98,1038C1791.45,1035.74 1788.37,1033.32 1785.35,1031.15C1782.33,1028.98 1779.4,1027.07 1777.14,1025.83C1768.67,1021.2 1761.5,1019.12 1755.45,1019.11C1751.68,1019.11 1748.35,1019.94 1745.52,1021.48C1741.27,1023.78 1738.22,1027.63 1736.26,1032.34C1734.3,1037.06 1733.39,1042.66 1733.39,1048.69C1733.4,1062.53 1738.16,1078.68 1746.72,1091.51C1751,1097.93 1756.24,1103.51 1762.35,1107.52C1768.47,1111.52 1775.48,1113.93 1783.17,1113.92C1783.96,1113.92 1784.75,1113.9 1785.55,1113.85C1786.1,1113.81 1786.59,1113.47 1786.82,1112.97C1787.05,1112.46 1786.98,1111.87 1786.64,1111.43C1782.22,1105.72 1780.22,1098.27 1780.22,1090.56C1780.21,1081.4 1783.07,1071.91 1787.81,1064.83C1790.18,1061.29 1793.01,1058.36 1796.15,1056.32C1799.29,1054.29 1802.73,1053.15 1806.42,1053.15C1810.51,1053.15 1814.96,1054.55 1819.71,1057.92C1824.46,1061.29 1829.47,1066.63 1834.54,1074.44C1834.6,1074.53 1834.67,1074.61 1834.74,1074.69C1835.82,1075.76 1836.41,1076.93 1836.81,1078.27C1837.41,1080.27 1837.45,1082.61 1837.82,1084.97C1838.01,1086.15 1838.29,1087.35 1838.83,1088.5C1839.37,1089.64 1840.19,1090.73 1841.36,1091.6L1842.26,1090.4L1841.16,1091.43C1841.91,1092.21 1842.94,1092.86 1844.27,1093.51C1846.26,1094.48 1848.92,1095.4 1851.98,1096.08C1855.03,1096.77 1858.49,1097.22 1862.05,1097.22C1863.24,1097.22 1864.43,1097.17 1865.63,1097.06C1866.99,1096.94 1868.38,1096.87 1869.76,1096.87C1874.16,1096.87 1878.49,1097.53 1881.56,1098.78C1883.09,1099.4 1884.29,1100.17 1885.05,1100.99C1885.43,1101.39 1885.71,1101.81 1885.89,1102.24C1886.07,1102.67 1886.16,1103.11 1886.17,1103.61C1886.17,1104.46 1885.88,1105.51 1885.11,1106.8C1884.34,1108.09 1883.1,1109.58 1881.27,1111.24L1882.19,1112.25L1881.67,1110.99C1881.51,1111.05 1881.37,1111.15 1881.27,1111.24L1882.19,1112.25L1881.67,1110.99L1882.2,1112.27L1882.2,1110.88C1882.02,1110.88 1881.84,1110.92 1881.67,1110.99L1882.2,1112.27L1882.2,1110.88L1882.2,1112.2L1882.89,1111.08C1882.77,1111 1882.54,1110.89 1882.2,1110.88L1882.2,1112.2L1882.89,1111.08L1882.37,1111.92L1883.1,1111.25C1883.07,1111.22 1883.02,1111.16 1882.89,1111.08L1882.37,1111.92L1883.1,1111.25L1882.77,1111.55L1883.12,1111.27L1883.1,1111.25L1882.77,1111.55L1883.12,1111.27L1883.06,1111.32L1883.12,1111.27L1883.06,1111.32L1883.12,1111.27C1883.11,1111.26 1882.96,1111.01 1882.81,1110.66C1882.53,1110.03 1882.18,1109.07 1881.83,1107.98C1881.31,1106.33 1880.77,1104.37 1880.37,1102.64C1880.17,1101.78 1880,1100.97 1879.89,1100.29C1879.78,1099.62 1879.72,1099.06 1879.72,1098.8L1879.73,1098.69L1879.73,1098.68L1878.92,1098.56L1879.64,1098.93C1879.72,1098.75 1879.72,1098.69 1879.73,1098.68L1878.92,1098.56L1879.64,1098.93L1878.52,1098.36L1879.39,1099.26C1879.52,1099.13 1879.59,1099.01 1879.64,1098.93L1878.52,1098.36L1879.39,1099.26L1878.44,1098.28L1878.83,1099.59C1879.06,1099.52 1879.26,1099.39 1879.39,1099.26L1878.44,1098.28L1878.83,1099.59C1881.64,1098.74 1884.16,1098.3 1886.14,1098.3C1887.89,1098.29 1889.15,1098.66 1889.86,1099.19C1890.22,1099.46 1890.47,1099.76 1890.66,1100.16C1890.84,1100.56 1890.96,1101.08 1890.96,1101.77C1890.97,1103.09 1890.49,1105.02 1889.32,1107.5C1888.15,1109.98 1886.3,1113.02 1883.65,1116.63C1881.68,1119.31 1879.33,1121.44 1876.61,1123.19C1872.55,1125.81 1867.68,1127.54 1862.25,1128.79C1856.83,1130.03 1850.87,1130.8 1844.67,1131.52C1844.23,1131.57 1843.83,1131.81 1843.59,1132.17C1842.45,1133.89 1841.83,1135.45 1841.83,1136.98C1841.83,1137.7 1841.97,1138.39 1842.25,1139.01C1842.78,1140.18 1843.71,1141.04 1844.78,1141.69C1846.66,1142.83 1849.06,1143.47 1851.67,1144.02C1855.57,1144.82 1859.94,1145.34 1863.21,1146.23C1864.83,1146.67 1866.17,1147.21 1866.96,1147.8C1867.36,1148.09 1867.62,1148.37 1867.77,1148.64C1867.93,1148.91 1868.01,1149.16 1868.01,1149.52C1868.01,1149.93 1867.89,1150.51 1867.52,1151.26C1867.15,1152.01 1866.54,1152.92 1865.64,1153.99C1864.28,1155.58 1862.71,1156.63 1860.89,1157.31C1859.06,1157.99 1856.98,1158.28 1854.69,1158.28C1849.69,1158.29 1843.77,1156.86 1837.8,1155.38C1831.83,1153.91 1825.81,1152.39 1820.38,1152.39C1817.88,1152.39 1815.5,1152.71 1813.31,1153.56C1809.25,1155.13 1805.37,1158.04 1801.61,1161.74C1795.96,1167.3 1790.57,1174.69 1785.49,1182.35C1780.41,1190 1775.66,1197.92 1771.38,1204.5C1769.51,1207.39 1768.39,1211.13 1767.7,1215.44C1767.02,1219.74 1766.78,1224.61 1766.78,1229.75C1766.78,1242.3 1768.23,1256.46 1768.46,1267.3C1768.46,1267.48 1768.47,1267.67 1768.47,1267.85C1768.47,1270.9 1767.95,1274.81 1767.14,1279.23C1765.94,1285.87 1764.12,1293.68 1762.59,1301.71C1761.07,1309.73 1759.83,1317.98 1759.83,1325.56C1759.84,1332.03 1760.72,1338.03 1763.2,1343.02C1764.44,1345.51 1766.08,1347.74 1768.2,1349.59C1770.31,1351.44 1772.89,1352.91 1775.95,1353.9C1780.35,1355.33 1784.14,1357.47 1786.75,1359.78C1788.06,1360.93 1789.07,1362.13 1789.74,1363.26C1790.41,1364.41 1790.72,1365.48 1790.72,1366.42C1790.71,1367.36 1790.44,1368.21 1789.75,1369.09C1788.73,1370.4 1786.64,1371.74 1783.16,1372.71C1779.69,1373.68 1774.88,1374.28 1768.56,1374.28C1767.37,1374.28 1766.14,1374.26 1764.85,1374.22C1763.24,1374.16 1761.68,1373.69 1760.11,1372.8C1757.38,1371.25 1754.67,1368.39 1752.14,1364.51C1748.34,1358.71 1744.96,1350.69 1742.13,1341.76C1739.3,1332.83 1737,1322.98 1735.29,1313.48C1734.09,1306.86 1731.32,1300.92 1728.91,1295.56C1727.7,1292.89 1726.58,1290.36 1725.77,1287.98C1724.97,1285.61 1724.48,1283.4 1724.48,1281.37C1724.48,1279.74 1724.78,1278.23 1725.47,1276.74C1726.51,1274.52 1728.49,1272.3 1731.97,1270.07C1735.44,1267.85 1740.38,1265.66 1747.17,1263.54L1746.72,1262.11L1745.48,1261.27C1738.29,1272.02 1732.11,1277.57 1726.51,1280.56C1722.31,1282.8 1718.39,1283.64 1714.4,1284.11C1711.41,1284.46 1708.39,1284.58 1705.26,1284.92C1700.56,1285.44 1695.59,1286.48 1690.29,1289.59C1684.99,1292.71 1679.39,1297.84 1673.21,1306.41C1668.35,1313.16 1662.43,1321.46 1657.7,1329.99C1655.34,1334.25 1653.27,1338.57 1651.78,1342.8C1650.3,1347.03 1649.38,1351.17 1649.38,1355.09C1649.38,1357.74 1649.81,1360.3 1650.77,1362.67C1651.74,1365.05 1653.25,1367.22 1655.36,1369.09C1657.5,1371 1658.99,1372.76 1659.91,1374.33C1660.84,1375.9 1661.21,1377.26 1661.21,1378.41C1661.2,1379.73 1660.75,1380.87 1659.84,1381.97C1658.47,1383.62 1655.97,1385.08 1652.72,1386.06C1649.48,1387.05 1645.53,1387.59 1641.34,1387.59C1639.14,1387.59 1636.87,1387.44 1634.6,1387.14C1631.8,1386.76 1629.52,1386.09 1627.7,1385.19C1624.97,1383.83 1623.23,1381.99 1622.08,1379.62C1620.94,1377.24 1620.43,1374.28 1620.43,1370.8C1620.42,1364.28 1622.24,1356.05 1624.45,1346.97C1626.66,1337.89 1629.26,1327.95 1630.73,1317.84C1633.02,1302.03 1634.94,1284.08 1640.03,1270.26C1642.57,1263.36 1645.89,1257.52 1650.33,1253.46C1654.77,1249.4 1660.3,1247.03 1667.66,1247.02C1670.41,1247.02 1673.41,1247.36 1676.69,1248.08L1677.01,1246.62L1675.51,1246.57C1675.3,1253.46 1674.23,1259.04 1672.51,1263.52C1669.9,1270.23 1665.88,1274.48 1660.74,1277.17C1655.6,1279.85 1649.27,1280.93 1642.21,1280.92C1630.73,1280.93 1617.4,1278.08 1604.48,1275.2C1591.55,1272.32 1579.04,1269.41 1568.9,1269.4C1565.75,1269.4 1562.82,1269.68 1560.16,1270.37C1557.51,1271.05 1555.12,1272.14 1553.12,1273.75L1554.06,1274.92L1555.54,1275.16C1558.15,1258.88 1561.49,1243.1 1561.49,1226.06C1561.49,1220.19 1561.09,1214.17 1560.13,1207.94L1558.65,1208.17L1557.39,1208.98C1565,1220.69 1567.83,1232.53 1567.84,1244.36C1567.84,1261.86 1561.58,1279.36 1555.22,1295.82C1552.05,1304.06 1548.86,1312.03 1546.45,1319.63C1544.05,1327.24 1542.41,1334.49 1542.41,1341.32C1542.41,1344.89 1542.86,1348.34 1543.9,1351.64C1544.43,1353.32 1545.17,1354.75 1546.09,1355.93C1547.69,1357.99 1549.79,1359.27 1551.98,1360.07C1555.27,1361.28 1558.82,1361.56 1561.87,1362.1C1563.4,1362.36 1564.8,1362.69 1565.95,1363.16C1567.11,1363.63 1568.02,1364.22 1568.7,1365.05C1570.84,1367.65 1572.31,1369.96 1573.23,1371.96C1574.15,1373.96 1574.51,1375.65 1574.51,1377.05C1574.51,1378.68 1574.04,1379.95 1573.23,1381.06C1572.02,1382.73 1569.91,1384.01 1567.4,1384.84C1564.9,1385.67 1562.04,1386.05 1559.5,1386.05C1557.22,1386.05 1555.18,1385.74 1553.97,1385.28C1538.8,1379.73 1530.34,1374.15 1525.73,1368.5C1523.42,1365.68 1522.04,1362.83 1521.21,1359.85C1520.39,1356.87 1520.13,1353.74 1520.13,1350.41C1520.13,1345.32 1520.75,1339.78 1520.75,1333.72C1520.75,1327.36 1520.05,1320.41 1517.16,1312.89C1516.04,1309.99 1514.17,1307.21 1511.79,1304.46C1507.62,1299.64 1501.86,1294.87 1495.58,1289.78C1486.14,1282.15 1475.51,1273.83 1467.29,1264.01C1463.18,1259.1 1459.67,1253.82 1457.2,1248.07C1454.72,1242.32 1453.27,1236.1 1453.27,1229.26C1453.27,1223.98 1454.14,1218.33 1456.09,1212.22C1456.33,1211.49 1455.97,1210.7 1455.26,1210.39C1454.54,1210.08 1453.72,1210.37 1453.35,1211.04C1448.31,1220.2 1447.11,1230.11 1447.11,1240.11C1447.12,1249.78 1448.23,1259.58 1448.22,1269.06C1448.22,1279.1 1446.99,1288.72 1442.03,1297.52C1439.47,1302.05 1436.74,1305.06 1434.05,1307.37C1432.03,1309.11 1430.02,1310.45 1428.09,1311.72C1426.64,1312.67 1425.25,1313.58 1423.94,1314.61C1421.99,1316.14 1420.24,1317.97 1419.03,1320.48C1417.81,1322.99 1417.16,1326.12 1417.16,1330.25C1417.17,1338.65 1419.81,1351.3 1426.41,1372.29C1427.91,1377.05 1430.53,1380.45 1433.69,1382.59C1436.85,1384.74 1440.49,1385.64 1444.01,1385.64C1447.72,1385.64 1451.32,1384.66 1454.24,1383.01C1455.7,1382.18 1456.99,1381.18 1458.03,1380.03C1459.07,1378.88 1459.86,1377.57 1460.27,1376.12C1460.96,1373.69 1461.28,1371.61 1461.28,1369.79C1461.28,1368.14 1461.01,1366.69 1460.51,1365.45C1459.63,1363.25 1458.06,1361.75 1456.37,1360.7C1455.11,1359.89 1453.77,1359.3 1452.49,1358.75C1450.58,1357.94 1448.82,1357.19 1447.68,1356.23C1447.1,1355.75 1446.67,1355.24 1446.37,1354.62C1446.07,1353.99 1445.88,1353.24 1445.88,1352.22C1445.88,1351.14 1446.1,1349.76 1446.67,1348.03C1447.94,1344.07 1451.2,1340.2 1455.63,1336.46C1462.25,1330.85 1471.35,1325.58 1479.48,1320.2C1483.54,1317.5 1487.36,1314.77 1490.54,1311.91C1493.71,1309.04 1496.25,1306.04 1497.65,1302.71C1500.34,1296.33 1501.52,1290.79 1501.52,1285.77C1501.52,1278.92 1499.31,1273.1 1496,1267.54C1491.02,1259.18 1483.63,1251.23 1476.89,1240.41C1470.16,1229.58 1464.04,1215.9 1461.61,1196.08C1460.85,1189.93 1459.71,1185.95 1458.12,1183.33C1457.33,1182.02 1456.38,1181.05 1455.31,1180.42C1454.24,1179.79 1453.07,1179.53 1451.95,1179.54C1450.74,1179.54 1449.58,1179.81 1448.45,1180.17C1446.76,1180.73 1445.13,1181.5 1443.59,1182.11C1442.06,1182.73 1440.63,1183.15 1439.46,1183.15C1439.2,1183.15 1438.95,1183.21 1438.73,1183.34C1437.06,1184.3 1434.23,1184.93 1430.62,1184.92C1424.58,1184.93 1416.37,1183.22 1407.46,1179.29C1398.53,1175.35 1388.88,1169.2 1379.84,1160.34C1379.46,1159.97 1378.86,1159.3 1378.13,1158.45C1375.59,1155.47 1371.48,1150.11 1367.9,1144.93C1366.11,1142.34 1364.45,1139.79 1363.19,1137.61C1362.56,1136.52 1362.03,1135.52 1361.63,1134.68C1361.24,1133.83 1360.98,1133.12 1360.89,1132.69C1360.86,1132.58 1360.86,1132.52 1360.86,1132.51L1360.63,1132.51L1360.86,1132.54L1360.86,1132.51L1360.63,1132.51L1360.86,1132.54L1360.14,1132.43L1360.77,1132.79C1360.83,1132.68 1360.85,1132.59 1360.86,1132.54L1360.14,1132.43L1360.77,1132.79L1359.99,1132.35L1360.35,1133.17C1360.48,1133.12 1360.68,1132.96 1360.77,1132.79L1359.99,1132.35L1360.35,1133.17L1360.11,1132.62L1360.21,1133.22L1360.35,1133.17L1360.11,1132.62L1360.21,1133.22L1360.17,1133L1360.19,1133.22L1360.21,1133.22L1360.17,1133L1360.19,1133.22L1360.2,1133.22C1360.3,1133.21 1360.78,1133.3 1361.41,1133.53C1362.53,1133.92 1364.17,1134.68 1366.12,1135.59C1369.05,1136.95 1372.72,1138.64 1376.76,1140C1380.81,1141.36 1385.24,1142.39 1389.74,1142.39C1393.17,1142.39 1396.65,1141.79 1399.96,1140.25C1400.44,1140.03 1400.77,1139.57 1400.82,1139.04C1400.88,1138.51 1400.65,1138 1400.22,1137.68C1397.72,1135.84 1395.09,1134.57 1392.51,1133.38C1388.62,1131.61 1384.84,1130.03 1381.44,1127.19C1378.04,1124.35 1374.93,1120.24 1372.46,1113.15C1370.35,1107.08 1368.99,1100.05 1368.99,1093.09C1368.99,1084.59 1371.01,1076.24 1375.99,1069.71L1374.79,1068.8L1373.37,1069.27C1374.77,1073.51 1377.06,1078.54 1379.71,1083.36C1382.37,1088.18 1385.38,1092.78 1388.28,1096.17C1388.68,1096.63 1389.33,1096.8 1389.9,1096.61C1390.48,1096.41 1390.89,1095.88 1390.92,1095.27C1391.22,1089.64 1391.39,1084.14 1392.2,1078.88C1393.01,1073.62 1394.46,1068.6 1397.3,1063.84C1402.09,1055.85 1407.83,1052 1413.33,1050.03C1418.83,1048.07 1424.11,1048.06 1427.87,1048.01L1427.85,1046.51L1426.39,1046.15C1426.3,1046.53 1426.01,1047.2 1425.57,1047.99C1424.81,1049.39 1423.59,1051.21 1422.2,1053.17C1420.12,1056.13 1417.66,1059.45 1415.7,1062.53C1414.72,1064.07 1413.85,1065.56 1413.22,1066.94C1412.59,1068.32 1412.15,1069.59 1412.14,1070.88C1412.14,1070.95 1412.14,1071.03 1412.15,1071.12C1412.18,1071.66 1412.5,1072.14 1412.98,1072.38C1413.47,1072.62 1414.04,1072.58 1414.49,1072.28C1429.86,1061.83 1445.82,1059.14 1458.21,1059.14C1464.77,1059.14 1470.32,1059.89 1474.21,1060.65C1476.16,1061.02 1477.7,1061.4 1478.74,1061.68C1479.26,1061.82 1479.66,1061.94 1479.92,1062.01C1480.05,1062.05 1480.15,1062.09 1480.22,1062.11L1480.29,1062.13L1480.3,1062.13L1480.78,1060.71L1480.27,1059.3C1480.24,1059.31 1475.68,1060.94 1470.89,1063.41C1468.49,1064.65 1466.04,1066.1 1464.04,1067.71C1463.04,1068.52 1462.15,1069.37 1461.43,1070.29C1460.72,1071.21 1460.17,1072.21 1459.94,1073.33C1459.79,1074.07 1460.22,1074.81 1460.94,1075.04C1466.91,1077.03 1476.02,1080.86 1483.51,1085.79C1487.26,1088.24 1490.6,1090.97 1492.95,1093.81C1494.12,1095.23 1495.05,1096.67 1495.67,1098.11C1496.3,1099.55 1496.63,1100.98 1496.63,1102.41C1496.63,1103.4 1496.47,1104.4 1496.14,1105.43L1497.56,1105.9L1498.67,1104.89C1497.97,1104.13 1496.98,1103.36 1495.76,1102.54C1493.93,1101.32 1491.62,1100.05 1489.31,1099.06C1488.15,1098.56 1487,1098.13 1485.89,1097.83C1484.79,1097.52 1483.73,1097.33 1482.73,1097.32C1482.2,1097.32 1481.68,1097.38 1481.16,1097.54C1480.65,1097.69 1480.14,1097.96 1479.72,1098.38C1479.27,1098.83 1479.15,1099.5 1479.41,1100.07C1480.15,1101.66 1480.83,1103.86 1481.31,1106.3C1481.79,1108.73 1482.08,1111.41 1482.08,1114C1482.08,1116.1 1481.89,1118.13 1481.47,1119.92C1481.06,1121.71 1480.42,1123.24 1479.58,1124.36C1477.41,1127.26 1475.33,1130.09 1473.13,1132.49C1470.93,1134.89 1468.6,1136.85 1465.94,1138.1L1466.58,1139.46L1467.94,1140.08C1468.85,1138.07 1469.32,1136.45 1469.33,1134.99C1469.33,1134.15 1469.15,1133.34 1468.75,1132.65C1468.46,1132.13 1468.04,1131.69 1467.58,1131.36C1466.88,1130.87 1466.09,1130.6 1465.26,1130.43C1464.43,1130.27 1463.54,1130.21 1462.59,1130.21C1460.6,1130.21 1458.34,1130.47 1455.97,1130.72C1453.61,1130.97 1451.14,1131.21 1448.82,1131.21C1446.5,1131.21 1444.33,1130.96 1442.56,1130.31C1441.84,1130.04 1440.85,1129.51 1439.83,1128.74C1438.29,1127.59 1436.66,1125.91 1435.43,1123.83C1434.2,1121.74 1433.37,1119.26 1433.37,1116.41C1433.37,1112.95 1434.59,1108.87 1438.08,1104.21L1436.88,1103.31L1435.39,1103.13C1435.34,1103.54 1435.32,1103.96 1435.32,1104.37C1435.32,1107.49 1436.76,1110.31 1438.89,1112.34C1441.03,1114.37 1443.88,1115.66 1446.89,1115.67C1449.46,1115.68 1452.12,1114.68 1454.28,1112.47C1456.44,1110.27 1458.1,1106.95 1459.01,1102.31L1459.02,1102.29C1459.19,1101.31 1459.28,1100.38 1459.28,1099.49C1459.28,1097.75 1458.94,1096.19 1458.29,1094.83C1457.32,1092.8 1455.66,1091.3 1453.68,1090.38C1451.69,1089.44 1449.38,1089.03 1446.92,1089.03C1443.95,1089.03 1440.75,1089.63 1437.6,1090.75C1432.87,1092.44 1428.23,1095.29 1424.72,1099.18C1421.21,1103.06 1418.83,1108.04 1418.84,1113.79C1418.84,1118.8 1420.64,1124.32 1424.81,1130.13C1428.99,1135.94 1435.52,1142.08 1445.09,1148.46C1449.42,1151.35 1453.98,1152.56 1458.73,1152.55C1464.03,1152.55 1469.55,1151.1 1475.58,1149C1493.64,1142.67 1516.41,1130.34 1550.47,1130.34C1560.71,1130.34 1571.98,1131.46 1584.45,1134.21C1609.27,1139.68 1625.48,1141.87 1637.5,1141.87C1650.49,1141.88 1658.59,1139.25 1666.86,1135.56C1675.15,1131.88 1683.65,1127.2 1698.1,1122.82C1698.76,1122.62 1699.2,1122 1699.16,1121.31C1699.13,1120.62 1698.62,1120.04 1697.94,1119.91C1688.7,1118.16 1673.28,1113.99 1652.84,1107.8C1509.7,1064.43 1119.81,921.809 839.711,808.866C824.346,802.679 813.677,799.703 805.468,799.691C801.168,799.688 797.529,800.535 794.384,802.205C792.026,803.455 789.96,805.152 788.077,807.224C785.25,810.336 782.812,814.284 780.277,818.995C777.745,823.708 775.12,829.193 771.971,835.399C770.305,838.69 769.394,842.589 768.875,846.824C768.36,851.059 768.245,855.638 768.245,860.289C768.245,864.268 768.33,868.3 768.33,872.2C768.335,879.391 768.024,886.149 766.461,891.189C765.683,893.711 764.608,895.785 763.174,897.329C761.734,898.872 759.947,899.932 757.509,900.45C744,903.283 729.589,904.348 714.921,904.348C691.061,904.349 666.529,901.53 644.072,898.984C643.379,898.906 642.721,899.318 642.489,899.975C642.257,900.633 642.51,901.367 643.099,901.741C655.56,909.657 666.208,914.761 675.521,917.888C684.833,921.016 692.814,922.16 699.885,922.159C709.118,922.16 716.774,920.213 723.801,918.312C730.835,916.404 737.231,914.564 744.063,914.568C745.942,914.568 747.857,914.706 749.836,915.019C753.809,915.644 758.02,917.674 762.335,920.897C769.892,926.529 777.708,935.771 785.221,946.863C807.793,980.14 827.748,1030.02 833.845,1049.54C837.952,1062.67 842.88,1074.37 847.048,1084.83C851.221,1095.29 854.62,1104.5 855.738,1112.56L856.615,1112.44L855.73,1112.44L855.738,1112.56L856.615,1112.44L855.73,1112.44L856.346,1112.44L855.806,1112.1C855.802,1112.11 855.731,1112.22 855.73,1112.44L856.346,1112.44L855.806,1112.1L855.802,1112.11C855.77,1112.16 855.521,1112.4 855.128,1112.66C854.44,1113.11 853.339,1113.66 852.115,1114.18C850.274,1114.97 848.142,1115.73 846.47,1116.31C845.632,1116.6 844.911,1116.85 844.379,1117.04C844.111,1117.14 843.894,1117.22 843.704,1117.3C843.606,1117.34 843.521,1117.38 843.394,1117.45C843.328,1117.49 843.254,1117.53 843.119,1117.64C843.052,1117.7 842.965,1117.77 842.853,1117.93C842.749,1118.08 842.582,1118.35 842.575,1118.8C842.572,1119.03 842.636,1119.3 842.749,1119.51C842.953,1119.88 843.227,1120.06 843.399,1120.15C843.668,1120.28 843.805,1120.29 843.911,1120.31C844.015,1120.32 844.082,1120.32 844.14,1120.32C844.294,1120.32 844.386,1120.31 844.495,1120.29L844.5,1120.29C844.637,1120.28 844.77,1120.27 844.901,1120.27C845.728,1120.27 846.54,1120.58 847.517,1121.4C848.36,1122.12 849.27,1123.23 850.199,1124.72C851.83,1127.33 853.519,1131.08 855.305,1135.82C860.679,1150.05 866.974,1173.15 877.012,1202.27C881.148,1214.27 887.77,1233.59 894.452,1252.19C897.794,1261.49 901.151,1270.61 904.222,1278.55C907.296,1286.49 910.078,1293.23 912.297,1297.84C913.937,1301.23 915.246,1304.11 916.129,1306.6C917.014,1309.1 917.467,1311.19 917.466,1313.06C917.463,1314.67 917.143,1316.12 916.425,1317.63C915.349,1319.89 913.305,1322.3 909.999,1325.13C906.698,1327.96 902.165,1331.21 896.226,1335.2C895.636,1335.6 895.406,1336.35 895.672,1337.01C895.939,1337.67 896.625,1338.05 897.325,1337.92C904.215,1336.71 909.255,1333.89 912.946,1330.35C918.488,1325.03 921.016,1318.24 922.979,1312.95C923.952,1310.31 924.8,1308.03 925.685,1306.57C926.122,1305.84 926.56,1305.33 926.952,1305.04C927.352,1304.75 927.67,1304.63 928.146,1304.62C928.767,1304.62 929.761,1304.91 931.137,1305.8C932.511,1306.69 934.234,1308.15 936.326,1310.26C938.567,1312.53 941.336,1314.04 944.37,1314.98C947.407,1315.91 950.717,1316.28 954.135,1316.28C960.633,1316.28 967.543,1314.94 973.739,1313.34C979.93,1311.74 985.418,1309.87 988.946,1308.81C992.51,1307.73 995.616,1307.26 998.244,1307.26C1002.32,1307.26 1005.21,1308.38 1007.08,1310.07C1008.94,1311.77 1009.9,1314.11 1009.91,1316.96C1009.91,1320.4 1008.43,1324.56 1005.28,1328.66C1002.12,1332.77 997.308,1336.82 990.754,1340.08C976.602,1347.13 963.715,1348.54 952.062,1350.96C946.241,1352.17 940.723,1353.63 935.574,1356.25C930.426,1358.85 925.673,1362.62 921.457,1368.31L922.661,1369.21L921.929,1367.9C919.895,1369.04 918.24,1370.43 916.441,1371.88C913.741,1374.05 910.701,1376.42 905.435,1378.69C900.173,1380.95 892.675,1383.09 881.211,1384.59L881.406,1386.08L882.827,1385.6C881.356,1381.24 879.065,1375.74 877.149,1369.96C875.23,1364.19 873.704,1358.14 873.709,1352.85C873.708,1349.84 874.195,1347.09 875.317,1344.73C876.443,1342.37 878.184,1340.37 880.877,1338.77C881.411,1338.46 881.698,1337.84 881.593,1337.23C879.659,1325.92 873.657,1312.41 866.507,1300.1C862.931,1293.95 859.065,1288.1 855.262,1283C851.458,1277.91 847.725,1273.56 844.377,1270.39C808.816,1236.69 795.662,1207.4 790.352,1184.34C787.7,1172.81 787.02,1162.82 786.531,1154.57C786.285,1150.44 786.089,1146.74 785.709,1143.48C785.325,1140.22 784.766,1137.39 783.721,1134.99L783.625,1135.03L783.728,1135.01L783.721,1134.99L783.625,1135.03L783.728,1135.01L783.727,1134.99C783.725,1134.95 783.747,1134.79 783.846,1134.56C784.014,1134.17 784.407,1133.59 784.943,1133.01C785.743,1132.12 786.849,1131.21 787.897,1130.52C788.42,1130.17 788.93,1129.88 789.367,1129.67C789.8,1129.46 790.173,1129.35 790.338,1129.32C793.025,1128.87 794.774,1128.69 795.591,1128.69C795.732,1128.69 795.841,1128.7 795.91,1128.7L795.984,1128.71L796.168,1127.86L795.672,1128.56C795.89,1128.71 795.976,1128.7 795.984,1128.71L796.168,1127.86L795.672,1128.56L796.423,1127.5L795.306,1128.16C795.424,1128.36 795.566,1128.49 795.672,1128.56L796.423,1127.5L795.306,1128.16L796.479,1127.46L795.115,1127.46C795.112,1127.7 795.186,1127.96 795.306,1128.16L796.479,1127.46L795.115,1127.46L796.425,1127.46L795.219,1126.95C795.168,1127.07 795.116,1127.25 795.115,1127.46L796.425,1127.46L795.219,1126.95L796.103,1127.33L795.427,1126.63C795.407,1126.66 795.325,1126.72 795.219,1126.95L796.103,1127.33L795.427,1126.63L795.588,1126.8L795.436,1126.62L795.427,1126.63L795.588,1126.8L795.436,1126.62C795.437,1126.62 795.291,1126.73 795.067,1126.85C794.641,1127.09 793.93,1127.42 793.043,1127.77C789.92,1129.04 784.588,1130.75 779.468,1132.13C776.907,1132.82 774.392,1133.42 772.23,1133.85C770.075,1134.29 768.242,1134.54 767.189,1134.53C766.819,1134.53 766.551,1134.5 766.479,1134.47L766.463,1134.47L766.398,1134.67L766.487,1134.48L766.463,1134.47L766.398,1134.67L766.487,1134.48L766.17,1135.15L766.655,1134.59L766.487,1134.48L766.17,1135.15L766.655,1134.59L765.967,1135.39L766.904,1134.92C766.831,1134.77 766.733,1134.66 766.655,1134.59L765.967,1135.39L766.904,1134.92C755.479,1112.15 745.425,1093.36 738.256,1076.61C731.084,1059.86 726.811,1045.18 726.813,1030.59C726.814,1021.93 728.31,1013.28 731.63,1004.17C734.951,995.066 740.103,985.503 747.426,975.076L746.198,974.214L744.789,973.699C742.23,980.686 741.413,984.301 740.72,988.033C740.199,990.828 739.744,993.665 738.635,998.208C735.312,1011.83 726.068,1040.82 691.872,1127.29L692.995,1127.74L692.146,1126.87C692.054,1126.96 691.944,1127.11 691.872,1127.29L692.995,1127.74L692.146,1126.87L692.728,1127.47L692.434,1126.68C692.414,1126.69 692.313,1126.71 692.146,1126.87L692.728,1127.47L692.434,1126.68L692.432,1126.68C692.361,1126.7 691.949,1126.76 691.39,1126.75C689.662,1126.76 686.466,1126.39 682.642,1125.83C676.891,1124.99 669.641,1123.72 663.084,1122.66C659.805,1122.13 656.698,1121.65 654.026,1121.3C651.348,1120.96 649.125,1120.74 647.515,1120.74C646.867,1120.74 646.322,1120.77 645.802,1120.87C645.54,1120.93 645.28,1121 644.983,1121.16C644.836,1121.24 644.677,1121.35 644.519,1121.5C644.362,1121.66 644.206,1121.87 644.105,1122.13C644.018,1122.34 643.967,1122.59 643.968,1122.84C643.968,1123.27 644.114,1123.65 644.283,1123.92C644.62,1124.45 645.01,1124.73 645.436,1125.01C646.236,1125.51 647.254,1125.93 648.51,1126.38C650.7,1127.16 653.583,1127.97 656.706,1128.79C661.385,1130.03 666.595,1131.29 670.588,1132.48C672.58,1133.07 674.275,1133.65 675.384,1134.15C675.935,1134.4 676.34,1134.63 676.513,1134.77L676.596,1134.84L676.601,1134.84L676.596,1134.84L676.601,1134.84L676.596,1134.84L677.246,1134.34L676.449,1134.34C676.451,1134.64 676.576,1134.82 676.596,1134.84L677.246,1134.34L676.449,1134.34L677.457,1134.34L676.519,1133.97C676.477,1134.08 676.449,1134.21 676.449,1134.34L677.457,1134.34L676.519,1133.97L676.52,1133.97C675.604,1136.27 675.067,1137.75 674.709,1138.84C674.441,1139.66 674.274,1140.26 674.135,1140.8C673.924,1141.61 673.781,1142.23 673.395,1143.41C673.009,1144.59 672.377,1146.33 671.218,1149.23C667.532,1158.47 664.373,1164.04 661.09,1168.85C658.627,1172.46 656.071,1175.66 653.169,1179.63C648.814,1185.58 643.726,1193.21 637.119,1206.41C630.508,1219.61 622.362,1238.39 611.819,1266.75C608.889,1274.63 605.641,1285.57 603.115,1296.84C600.59,1308.1 598.784,1319.66 598.781,1328.85C598.782,1332.05 599,1334.97 599.502,1337.51C600.008,1340.05 600.788,1342.23 602.012,1343.94C602.448,1344.54 603.267,1344.74 603.928,1344.39C605.591,1343.51 606.874,1343.19 607.91,1343.19C608.853,1343.2 609.64,1343.44 610.486,1343.93C611.961,1344.79 613.518,1346.52 615.365,1348.7C618.147,1351.95 621.643,1356.15 627.285,1359.48C632.927,1362.83 640.681,1365.27 651.86,1365.26C655.811,1365.26 660.192,1364.96 665.069,1364.29L665.112,1364.28L664.871,1362.84L664.871,1364.3L665.112,1364.28L664.871,1362.84L664.871,1364.3L664.871,1362.91L664.365,1364.21C664.458,1364.24 664.592,1364.3 664.871,1364.3L664.871,1362.91L664.365,1364.21L664.712,1363.32L664.158,1364.11C664.17,1364.11 664.193,1364.14 664.365,1364.21L664.712,1363.32L664.158,1364.11L664.168,1364.11C664.255,1364.18 664.566,1364.47 664.943,1364.87C666.294,1366.29 668.735,1369.25 670.78,1372.55C671.804,1374.2 672.733,1375.93 673.392,1377.59C674.054,1379.24 674.433,1380.82 674.429,1382.09C674.427,1383.06 674.229,1383.83 673.835,1384.46C673.437,1385.09 672.827,1385.64 671.763,1386.1C667.029,1388.1 663.465,1389.93 660.184,1391.22C656.896,1392.51 653.919,1393.28 650.115,1393.28C648.378,1393.28 646.465,1393.12 644.278,1392.75L644.028,1394.23L644.35,1395.69C663.461,1391.49 679.417,1390 694.034,1390C712.131,1390 728.199,1392.29 745.651,1394.6C763.099,1396.91 781.919,1399.22 805.411,1399.22C807.588,1399.22 809.806,1399.2 812.066,1399.16C927.713,1397.03 1042.48,1388.33 1166.06,1388.33C1196.35,1388.33 1227.17,1388.85 1258.66,1390.12C1350.18,1393.81 1707.04,1398.07 2029.76,1398.07C2256.05,1398.07 2465.49,1395.98 2554.99,1390.12C2555.81,1390.07 2556.44,1389.35 2556.39,1388.53C2556.33,1387.7 2555.62,1387.07 2554.79,1387.13C2465.5,1392.98 2256.01,1395.07 2029.76,1395.07C1707.08,1395.07 1350.18,1390.81 1258.79,1387.13C1227.25,1385.85 1196.38,1385.33 1166.06,1385.33C1042.34,1385.33 927.542,1394.04 812.011,1396.16C809.769,1396.2 807.57,1396.22 805.411,1396.22C782.116,1396.22 763.474,1393.93 746.044,1391.63C728.617,1389.32 712.39,1387 694.034,1387C679.211,1387 663.012,1388.52 643.706,1392.76C643.003,1392.92 642.511,1393.55 642.529,1394.27C642.546,1394.99 643.068,1395.59 643.778,1395.71C646.103,1396.1 648.187,1396.28 650.115,1396.28C654.342,1396.29 657.802,1395.38 661.283,1394.01C664.77,1392.64 668.306,1390.81 672.93,1388.86C674.453,1388.22 675.634,1387.25 676.381,1386.05C677.132,1384.85 677.431,1383.47 677.429,1382.09C677.422,1379.85 676.69,1377.54 675.655,1375.25C674.094,1371.84 671.803,1368.5 669.828,1365.98C668.839,1364.72 667.932,1363.67 667.22,1362.91C666.862,1362.53 666.558,1362.22 666.292,1361.98C666.157,1361.86 666.036,1361.76 665.887,1361.65C665.811,1361.6 665.73,1361.55 665.602,1361.48C665.537,1361.45 665.461,1361.41 665.351,1361.38C665.24,1361.35 665.096,1361.31 664.871,1361.3C664.778,1361.3 664.695,1361.31 664.619,1361.33L664.865,1362.8L664.661,1361.32C659.903,1361.97 655.657,1362.26 651.86,1362.26C643.667,1362.26 637.569,1360.91 632.854,1358.93C625.788,1355.95 621.762,1351.55 618.458,1347.7C616.805,1345.78 615.352,1343.98 613.723,1342.59C612.908,1341.89 612.04,1341.29 611.073,1340.87C610.108,1340.44 609.042,1340.19 607.91,1340.19C606.243,1340.19 604.479,1340.71 602.531,1341.73L603.229,1343.06L604.447,1342.18C603.586,1340.99 602.892,1339.2 602.445,1336.92C601.994,1334.65 601.781,1331.91 601.781,1328.85C601.778,1320.05 603.544,1308.62 606.042,1297.49C608.537,1286.36 611.761,1275.51 614.631,1267.79C623.979,1242.65 631.427,1225.09 637.561,1212.32C642.163,1202.74 646.023,1195.87 649.398,1190.5C654.46,1182.44 658.44,1177.77 662.292,1172.37C666.142,1166.98 669.794,1160.91 674.004,1150.35C675.047,1147.73 675.678,1146.03 676.098,1144.79C676.413,1143.86 676.61,1143.19 676.764,1142.61C676.997,1141.74 677.123,1141.16 677.444,1140.14C677.767,1139.11 678.293,1137.63 679.309,1135.07L679.31,1135.07C679.399,1134.85 679.45,1134.59 679.449,1134.34C679.45,1133.92 679.313,1133.55 679.149,1133.27C678.82,1132.74 678.427,1132.44 678.001,1132.15C677.197,1131.63 676.176,1131.2 674.917,1130.73C672.724,1129.94 669.839,1129.12 666.714,1128.29C662.032,1127.05 656.82,1125.78 652.824,1124.61C650.83,1124.03 649.133,1123.46 648.02,1122.97C647.467,1122.73 647.058,1122.5 646.884,1122.37L646.802,1122.3L646.796,1122.29L646.426,1122.63L646.874,1122.41L646.796,1122.29L646.426,1122.63L646.874,1122.41L645.996,1122.84L646.968,1122.84C646.969,1122.66 646.917,1122.5 646.874,1122.41L645.996,1122.84L646.968,1122.84L645.913,1122.84L646.894,1123.23C646.939,1123.12 646.969,1122.98 646.968,1122.84L645.913,1122.84L646.894,1123.23L645.796,1122.8L646.628,1123.64C646.718,1123.55 646.824,1123.41 646.895,1123.23L645.796,1122.8L646.628,1123.64L646.081,1123.08L646.359,1123.82C646.371,1123.82 646.466,1123.79 646.628,1123.64L646.081,1123.08L646.359,1123.82L646.348,1123.8L646.358,1123.83L646.359,1123.82L646.348,1123.8L646.358,1123.83C646.373,1123.82 646.508,1123.79 646.711,1123.77C646.914,1123.75 647.189,1123.74 647.515,1123.74C649.309,1123.73 652.548,1124.1 656.402,1124.66C662.199,1125.5 669.46,1126.77 675.992,1127.83C679.26,1128.36 682.346,1128.84 684.989,1129.19C687.638,1129.53 689.822,1129.75 691.39,1129.75C691.998,1129.75 692.511,1129.72 693.006,1129.62C693.256,1129.57 693.506,1129.5 693.796,1129.35C693.94,1129.27 694.096,1129.16 694.252,1129.01C694.407,1128.86 694.562,1128.65 694.662,1128.39C725.073,1051.49 735.778,1020 740.172,1004.18C742.368,996.271 742.987,992.24 743.669,988.582C744.351,984.932 745.088,981.623 747.607,974.729C747.865,974.024 747.559,973.232 746.893,972.885C746.227,972.537 745.402,972.737 744.971,973.352C737.534,983.942 732.244,993.733 728.812,1003.14C725.379,1012.55 723.812,1021.58 723.813,1030.59C723.815,1045.78 728.253,1060.86 735.499,1077.79C742.748,1094.72 752.819,1113.54 764.222,1136.26C764.412,1136.64 764.703,1136.9 764.964,1137.06C765.362,1137.3 765.719,1137.39 766.075,1137.45C766.432,1137.51 766.796,1137.53 767.189,1137.53C768.129,1137.53 769.247,1137.41 770.54,1137.21C775.041,1136.49 781.636,1134.75 787.182,1133C789.953,1132.13 792.45,1131.26 794.297,1130.5C795.224,1130.12 795.983,1129.78 796.578,1129.45C796.879,1129.27 797.136,1129.11 797.396,1128.89C797.525,1128.78 797.66,1128.65 797.802,1128.45C797.936,1128.25 798.11,1127.94 798.115,1127.46C798.118,1127.22 798.052,1126.94 797.932,1126.71C797.719,1126.31 797.419,1126.1 797.201,1125.99C796.861,1125.81 796.615,1125.77 796.365,1125.73C796.117,1125.7 795.869,1125.69 795.591,1125.69C794.411,1125.69 792.617,1125.9 789.845,1126.36C789.386,1126.44 788.953,1126.59 788.503,1126.77C786.951,1127.43 785.17,1128.65 783.65,1130.05C782.893,1130.76 782.211,1131.51 781.68,1132.31C781.161,1133.11 780.742,1133.95 780.727,1134.99C780.726,1135.38 780.8,1135.8 780.971,1136.19C781.828,1138.14 782.367,1140.71 782.729,1143.83C783.37,1149.29 783.486,1156.39 784.268,1164.85C785.443,1177.55 788.146,1193.33 796.473,1211.5C804.798,1229.68 818.738,1250.23 842.314,1272.57C845.48,1275.56 849.131,1279.8 852.858,1284.8C858.45,1292.29 864.223,1301.5 868.929,1310.85C873.638,1320.2 877.275,1329.71 878.636,1337.73L880.115,1337.48L879.353,1336.19C876.179,1338.05 873.966,1340.57 872.607,1343.44C871.242,1346.32 870.709,1349.52 870.709,1352.85C870.714,1358.7 872.344,1364.99 874.301,1370.9C876.262,1376.81 878.57,1382.35 879.984,1386.56C880.213,1387.24 880.891,1387.66 881.601,1387.57C897.137,1385.53 905.796,1382.31 911.529,1379C914.39,1377.35 916.504,1375.68 918.326,1374.21C920.15,1372.74 921.675,1371.47 923.393,1370.52C923.576,1370.41 923.741,1370.27 923.866,1370.1C927.828,1364.77 932.156,1361.35 936.931,1358.92C944.085,1355.28 952.331,1353.93 961.592,1352.18C970.845,1350.42 981.091,1348.24 992.09,1342.77C999.006,1339.33 1004.18,1335.01 1007.66,1330.49C1011.12,1325.97 1012.9,1321.25 1012.91,1316.96C1012.92,1313.42 1011.64,1310.15 1009.09,1307.85C1006.55,1305.54 1002.86,1304.25 998.244,1304.26C995.259,1304.26 991.871,1304.79 988.079,1305.93C984.464,1307.03 979.056,1308.87 972.989,1310.43C966.928,1312 960.22,1313.29 954.135,1313.28C950.936,1313.29 947.914,1312.93 945.255,1312.11C942.592,1311.29 940.298,1310.01 938.458,1308.15C936.271,1305.95 934.423,1304.36 932.768,1303.29C931.117,1302.22 929.627,1301.63 928.146,1301.62C927.404,1301.62 926.684,1301.79 926.046,1302.09C924.841,1302.67 923.974,1303.66 923.256,1304.79C922.005,1306.8 921.099,1309.41 920.012,1312.33C918.396,1316.69 916.431,1321.69 912.977,1325.9C911.249,1328.01 909.155,1329.92 906.524,1331.49C903.892,1333.05 900.717,1334.28 896.802,1334.97L897.063,1336.45L897.901,1337.69C905.87,1332.33 911.402,1328.27 915.05,1324.51C916.872,1322.63 918.227,1320.81 919.131,1318.92C920.036,1317.04 920.469,1315.08 920.466,1313.06C920.465,1310.71 919.906,1308.28 918.956,1305.6C918.004,1302.92 916.654,1299.96 914.999,1296.53C912.848,1292.07 910.077,1285.36 907.02,1277.47C897.843,1253.76 886.053,1219.29 879.848,1201.29C871.132,1176.01 865.253,1155.29 860.277,1140.8C857.785,1133.55 855.531,1127.86 853.186,1123.86C852.008,1121.86 850.808,1120.27 849.462,1119.12C848.127,1117.97 846.568,1117.26 844.901,1117.27C844.643,1117.27 844.385,1117.29 844.127,1117.32L844.133,1117.32L844.091,1117.32L844.14,1117.92L844.14,1117.32L844.091,1117.32L844.14,1117.92L844.14,1117.32L844.14,1118.63L844.477,1117.37C844.252,1117.31 844.188,1117.32 844.14,1117.32L844.14,1118.63L844.477,1117.37L844.099,1118.79L845.021,1117.64C844.764,1117.44 844.591,1117.4 844.477,1117.37L844.099,1118.79L845.021,1117.64L844.086,1118.8L845.402,1118.11C845.291,1117.9 845.146,1117.74 845.021,1117.64L844.086,1118.8L845.402,1118.11L844.083,1118.8L845.575,1118.8C845.577,1118.57 845.514,1118.31 845.402,1118.11L844.083,1118.8L845.575,1118.8L844.089,1118.8L845.362,1119.57C845.451,1119.42 845.572,1119.17 845.575,1118.8L844.089,1118.8L845.362,1119.57L844.135,1118.83L844.988,1119.98C845.057,1119.92 845.17,1119.87 845.362,1119.57L844.135,1118.83L844.988,1119.98L844.417,1119.21L844.833,1120.08C844.837,1120.08 844.854,1120.08 844.988,1119.98L844.417,1119.21L844.833,1120.08C844.838,1120.08 844.938,1120.03 845.074,1119.98C845.602,1119.78 846.701,1119.41 848.006,1118.95C849.972,1118.26 852.432,1117.37 854.468,1116.42C855.489,1115.94 856.401,1115.45 857.146,1114.91C857.519,1114.63 857.854,1114.35 858.149,1113.97C858.296,1113.79 858.433,1113.58 858.543,1113.32C858.651,1113.07 858.73,1112.77 858.73,1112.44C858.73,1112.34 858.723,1112.24 858.71,1112.15C857.51,1103.59 854.017,1094.22 849.835,1083.72C845.65,1073.22 840.763,1061.6 836.708,1048.64C831.978,1033.53 819.274,1000.98 803.39,971.403C795.445,956.617 786.714,942.583 777.742,931.837C773.254,926.464 768.705,921.909 764.13,918.493C759.555,915.081 754.94,912.792 750.305,912.056C748.164,911.717 746.089,911.568 744.063,911.568C736.682,911.572 730.009,913.528 723.017,915.416C716.018,917.31 708.691,919.159 699.885,919.159C693.139,919.158 685.51,918.076 676.476,915.044C667.443,912.012 657.009,907.024 644.708,899.209L643.903,900.475L643.734,901.965C666.19,904.509 690.827,907.347 714.921,907.348C729.734,907.348 744.344,906.275 758.125,903.386C761.114,902.766 763.543,901.351 765.373,899.369C768.126,896.389 769.563,892.28 770.369,887.615C771.17,882.941 771.328,877.657 771.329,872.2C771.329,868.257 771.245,864.226 771.245,860.289C771.244,855.689 771.362,851.217 771.853,847.187C772.342,843.156 773.213,839.575 774.647,836.756C780.268,825.66 784.209,816.97 788.622,811.251C790.827,808.387 793.119,806.272 795.789,804.856C798.462,803.442 801.549,802.695 805.468,802.691C812.935,802.68 823.371,805.503 838.589,811.648C998.696,876.207 1194.62,950.443 1359.88,1010.32C1442.51,1040.26 1517.48,1066.61 1576.48,1086.36C1605.98,1096.24 1631.49,1104.47 1651.97,1110.67C1672.47,1116.88 1687.91,1121.06 1697.39,1122.86L1697.67,1121.39L1697.23,1119.95C1682.53,1124.4 1673.76,1129.22 1665.64,1132.82C1657.52,1136.42 1650.1,1138.86 1637.5,1138.87C1625.85,1138.87 1609.81,1136.73 1585.1,1131.28C1572.42,1128.48 1560.93,1127.34 1550.47,1127.34C1527.28,1127.34 1509.14,1132.96 1494.39,1138.54C1487.01,1141.33 1480.47,1144.11 1474.59,1146.16C1468.7,1148.23 1463.47,1149.55 1458.73,1149.55C1454.47,1149.54 1450.61,1148.52 1446.75,1145.96C1437.4,1139.72 1431.14,1133.8 1427.25,1128.38C1423.36,1122.95 1421.84,1118.07 1421.84,1113.79C1421.84,1110.51 1422.73,1107.55 1424.24,1104.91C1426.5,1100.94 1430.21,1097.7 1434.36,1095.47C1438.5,1093.23 1443.08,1092.03 1446.92,1092.03C1449.76,1092.03 1452.15,1092.69 1453.74,1093.89C1454.54,1094.49 1455.15,1095.22 1455.59,1096.13C1456.02,1097.03 1456.28,1098.13 1456.28,1099.49C1456.28,1100.18 1456.21,1100.94 1456.06,1101.76L1457.54,1102.02L1456.07,1101.73C1455.24,1105.97 1453.77,1108.71 1452.14,1110.37C1450.5,1112.02 1448.71,1112.66 1446.89,1112.67C1444.77,1112.68 1442.58,1111.72 1440.96,1110.17C1439.34,1108.62 1438.31,1106.54 1438.32,1104.37C1438.32,1104.08 1438.33,1103.79 1438.37,1103.5C1438.46,1102.83 1438.07,1102.18 1437.44,1101.92C1436.81,1101.67 1436.09,1101.87 1435.68,1102.41C1431.89,1107.47 1430.37,1112.22 1430.37,1116.41C1430.37,1121.01 1432.17,1124.83 1434.43,1127.65C1435.56,1129.06 1436.81,1130.23 1438.03,1131.14C1439.26,1132.06 1440.45,1132.72 1441.53,1133.12C1443.8,1133.96 1446.3,1134.21 1448.82,1134.21C1451.35,1134.21 1453.9,1133.95 1456.28,1133.7C1458.66,1133.45 1460.86,1133.21 1462.59,1133.21C1463.32,1133.21 1463.96,1133.25 1464.49,1133.34C1465.28,1133.47 1465.76,1133.71 1465.97,1133.92C1466.08,1134.02 1466.15,1134.12 1466.22,1134.28C1466.28,1134.44 1466.33,1134.66 1466.33,1134.99C1466.34,1135.75 1466.03,1137.05 1465.21,1138.84C1464.95,1139.41 1465.07,1140.09 1465.52,1140.53C1465.97,1140.97 1466.64,1141.09 1467.21,1140.82C1470.37,1139.34 1472.98,1137.09 1475.34,1134.52C1477.7,1131.95 1479.82,1129.04 1481.98,1126.16C1483.15,1124.59 1483.91,1122.68 1484.4,1120.6C1484.88,1118.53 1485.08,1116.28 1485.08,1114C1485.08,1111.19 1484.77,1108.34 1484.25,1105.71C1483.73,1103.09 1483.01,1100.71 1482.14,1098.81L1480.78,1099.44L1481.84,1100.5C1481.85,1100.49 1481.89,1100.45 1482.04,1100.41C1482.18,1100.36 1482.42,1100.32 1482.73,1100.32C1483.52,1100.32 1484.73,1100.57 1486.06,1101.02C1488.05,1101.69 1490.34,1102.78 1492.28,1103.91C1493.26,1104.47 1494.15,1105.05 1494.87,1105.57C1495.6,1106.1 1496.16,1106.59 1496.45,1106.9C1496.81,1107.3 1497.35,1107.47 1497.87,1107.36C1498.4,1107.25 1498.82,1106.87 1498.98,1106.37C1499.42,1105.05 1499.63,1103.72 1499.63,1102.41C1499.63,1100.51 1499.19,1098.67 1498.43,1096.91C1497.08,1093.84 1494.77,1091.03 1491.94,1088.45C1487.68,1084.58 1482.2,1081.21 1476.77,1078.45C1471.33,1075.69 1465.95,1073.55 1461.88,1072.2L1461.41,1073.62L1462.88,1073.92C1462.98,1073.42 1463.28,1072.8 1463.8,1072.13C1464.71,1070.96 1466.27,1069.67 1468.1,1068.48C1470.84,1066.69 1474.16,1065.08 1476.77,1063.94C1478.08,1063.37 1479.21,1062.91 1480.02,1062.6C1480.42,1062.45 1480.74,1062.32 1480.95,1062.24C1481.06,1062.2 1481.15,1062.17 1481.2,1062.15L1481.28,1062.12C1481.88,1061.91 1482.28,1061.33 1482.28,1060.7C1482.27,1060.06 1481.86,1059.49 1481.25,1059.29C1481.15,1059.26 1471.79,1056.14 1458.21,1056.14C1445.4,1056.14 1428.78,1058.93 1412.8,1069.8L1413.64,1071.04L1415.14,1070.95L1415.14,1070.88C1415.14,1070.49 1415.28,1069.81 1415.6,1069C1416.15,1067.56 1417.21,1065.71 1418.5,1063.72C1420.43,1060.74 1422.88,1057.44 1424.95,1054.47C1425.99,1052.99 1426.94,1051.59 1427.7,1050.32C1428.45,1049.05 1429.02,1047.95 1429.3,1046.87C1429.41,1046.42 1429.31,1045.94 1429.02,1045.58C1428.73,1045.21 1428.29,1045 1427.83,1045.01C1424.09,1045.06 1418.39,1045.05 1412.32,1047.21C1406.25,1049.35 1399.82,1053.74 1394.72,1062.31C1391.63,1067.48 1390.08,1072.92 1389.24,1078.42C1388.39,1083.93 1388.23,1089.52 1387.92,1095.11L1389.42,1095.19L1390.56,1094.21C1387.86,1091.07 1384.92,1086.6 1382.34,1081.91C1379.76,1077.23 1377.54,1072.32 1376.22,1068.33C1376.04,1067.8 1375.59,1067.41 1375.04,1067.32C1374.49,1067.23 1373.94,1067.45 1373.6,1067.89C1368.11,1075.11 1366,1084.14 1365.99,1093.09C1366,1100.44 1367.41,1107.77 1369.63,1114.13C1371.36,1119.13 1373.47,1122.87 1375.83,1125.76C1379.36,1130.1 1383.44,1132.46 1387.37,1134.33C1391.32,1136.2 1395.12,1137.65 1398.44,1140.1L1399.33,1138.89L1398.7,1137.53C1395.84,1138.85 1392.82,1139.39 1389.74,1139.39C1383.58,1139.4 1377.21,1137.19 1371.95,1134.93C1369.32,1133.8 1366.97,1132.66 1365.03,1131.78C1364.06,1131.35 1363.19,1130.97 1362.41,1130.7C1361.62,1130.43 1360.96,1130.23 1360.2,1130.22C1359.96,1130.22 1359.7,1130.24 1359.41,1130.33C1359,1130.44 1358.51,1130.75 1358.23,1131.19C1357.94,1131.64 1357.86,1132.11 1357.86,1132.51C1357.86,1132.79 1357.9,1133.06 1357.96,1133.32C1358.16,1134.24 1358.56,1135.22 1359.11,1136.36C1360.07,1138.34 1361.51,1140.73 1363.18,1143.29C1365.68,1147.12 1368.7,1151.31 1371.4,1154.84C1372.75,1156.6 1374.02,1158.2 1375.11,1159.51C1376.19,1160.83 1377.08,1161.84 1377.74,1162.48C1387.05,1171.6 1397,1177.96 1406.24,1182.03C1415.5,1186.11 1424.03,1187.92 1430.62,1187.92C1434.56,1187.91 1437.82,1187.29 1440.2,1185.95L1439.46,1184.65L1439.46,1186.15C1441.92,1186.13 1444.19,1185.11 1446.33,1184.22C1447.4,1183.77 1448.43,1183.34 1449.38,1183.03C1450.33,1182.71 1451.21,1182.53 1451.95,1182.54C1452.65,1182.54 1453.22,1182.67 1453.79,1183.01C1454.22,1183.26 1454.66,1183.64 1455.11,1184.23C1455.79,1185.12 1456.48,1186.49 1457.08,1188.49C1457.69,1190.49 1458.22,1193.11 1458.63,1196.45C1461.93,1223.46 1472.1,1239.67 1481.32,1252.17C1485.92,1258.43 1490.27,1263.77 1493.42,1269.07C1496.56,1274.38 1498.51,1279.58 1498.52,1285.77C1498.52,1290.32 1497.45,1295.44 1494.89,1301.55C1493.38,1305.16 1489.89,1308.8 1485.31,1312.37C1478.46,1317.73 1469.29,1322.94 1461.25,1328.48C1457.22,1331.25 1453.48,1334.11 1450.42,1337.17C1447.37,1340.22 1444.99,1343.48 1443.81,1347.1C1443.18,1349.05 1442.88,1350.73 1442.88,1352.22C1442.88,1353.64 1443.16,1354.91 1443.7,1355.98C1444.16,1356.92 1444.8,1357.69 1445.52,1358.33C1446.79,1359.45 1448.29,1360.18 1449.77,1360.84C1452,1361.82 1454.22,1362.67 1455.75,1363.93C1456.52,1364.57 1457.12,1365.28 1457.56,1366.19C1458,1367.11 1458.28,1368.26 1458.28,1369.79C1458.28,1371.26 1458.02,1373.08 1457.39,1375.31C1457.13,1376.22 1456.6,1377.15 1455.81,1378.02C1454.63,1379.33 1452.88,1380.5 1450.82,1381.33C1448.75,1382.16 1446.39,1382.64 1444.01,1382.64C1440.99,1382.64 1437.96,1381.87 1435.38,1380.11C1432.8,1378.35 1430.61,1375.6 1429.28,1371.39C1422.7,1350.53 1420.15,1338.02 1420.16,1330.25C1420.16,1327.99 1420.37,1326.13 1420.75,1324.59C1421.41,1321.88 1422.52,1320.1 1424.02,1318.55C1425.15,1317.39 1426.53,1316.37 1428.11,1315.31C1430.47,1313.71 1433.26,1312.02 1436.14,1309.53C1439.02,1307.05 1441.96,1303.76 1444.64,1298.99C1449.97,1289.55 1451.22,1279.33 1451.22,1269.06C1451.22,1259.35 1450.11,1249.55 1450.11,1240.11C1450.11,1230.33 1451.3,1221 1455.98,1212.49L1454.66,1211.77L1453.23,1211.31C1451.19,1217.68 1450.27,1223.65 1450.27,1229.26C1450.27,1240.34 1453.88,1249.95 1459.36,1258.37C1467.58,1270.99 1479.96,1281.03 1490.97,1289.91C1496.47,1294.35 1501.64,1298.5 1505.77,1302.49C1509.9,1306.47 1512.96,1310.3 1514.36,1313.96C1517.08,1321.07 1517.75,1327.57 1517.75,1333.72C1517.75,1339.57 1517.13,1345.08 1517.13,1350.41C1517.13,1353.89 1517.4,1357.3 1518.32,1360.65C1519.7,1365.67 1522.61,1370.5 1528.03,1375.03C1533.45,1379.56 1541.37,1383.86 1552.94,1388.1C1554.67,1388.73 1556.95,1389.04 1559.5,1389.05C1563.27,1389.04 1567.58,1388.34 1571.13,1386.53C1572.9,1385.62 1574.48,1384.42 1575.65,1382.84C1576.82,1381.26 1577.52,1379.29 1577.51,1377.05C1577.51,1375.12 1577.01,1373.01 1575.95,1370.71C1574.9,1368.4 1573.28,1365.9 1571.01,1363.14C1570.2,1362.15 1569.2,1361.41 1568.11,1360.85C1566.22,1359.88 1564.09,1359.43 1561.92,1359.07C1558.68,1358.54 1555.32,1358.2 1552.64,1357.11C1551.29,1356.56 1550.11,1355.85 1549.13,1354.85C1548.15,1353.85 1547.33,1352.56 1546.76,1350.74C1545.83,1347.77 1545.41,1344.63 1545.41,1341.32C1545.41,1334.98 1546.95,1328 1549.31,1320.54C1552.85,1309.35 1558.21,1297.12 1562.71,1284.29C1567.2,1271.46 1570.83,1258.03 1570.84,1244.36C1570.84,1232.05 1567.85,1219.55 1559.9,1207.35C1559.52,1206.76 1558.77,1206.51 1558.11,1206.77C1557.45,1207.02 1557.06,1207.7 1557.17,1208.4C1558.1,1214.46 1558.49,1220.32 1558.49,1226.06C1558.49,1242.7 1555.21,1258.31 1552.58,1274.68C1552.48,1275.3 1552.77,1275.91 1553.31,1276.22C1553.85,1276.53 1554.52,1276.48 1555.01,1276.09C1556.61,1274.79 1558.58,1273.87 1560.91,1273.27C1563.24,1272.67 1565.93,1272.4 1568.9,1272.4C1578.48,1272.39 1590.9,1275.24 1603.83,1278.13C1616.77,1281.01 1630.24,1283.92 1642.21,1283.92C1647.11,1283.92 1651.77,1283.43 1656.04,1282.22C1662.44,1280.41 1667.99,1276.92 1671.92,1271.13C1675.86,1265.35 1678.18,1257.38 1678.51,1246.66C1678.53,1245.94 1678.03,1245.31 1677.33,1245.15C1673.87,1244.39 1670.65,1244.02 1667.66,1244.02C1659.64,1244.01 1653.23,1246.71 1648.3,1251.25C1644.6,1254.64 1641.7,1259.03 1639.37,1264.03C1635.88,1271.53 1633.63,1280.44 1631.92,1289.7C1630.21,1298.96 1629.04,1308.56 1627.76,1317.4C1626.32,1327.3 1623.76,1337.15 1621.54,1346.26C1619.32,1355.38 1617.43,1363.74 1617.43,1370.8C1617.43,1373.31 1617.67,1375.66 1618.25,1377.82C1619.1,1381.06 1620.76,1383.9 1623.41,1386.01C1626.06,1388.13 1629.62,1389.5 1634.21,1390.11C1636.61,1390.43 1639,1390.59 1641.34,1390.59C1647.27,1390.58 1652.78,1389.6 1656.97,1387.65C1659.07,1386.67 1660.84,1385.44 1662.14,1383.9C1663.43,1382.37 1664.21,1380.48 1664.21,1378.41C1664.21,1376.61 1663.63,1374.72 1662.5,1372.81C1661.36,1370.89 1659.67,1368.91 1657.35,1366.85C1655.57,1365.27 1654.35,1363.5 1653.55,1361.54C1652.75,1359.58 1652.38,1357.43 1652.38,1355.09C1652.38,1351.64 1653.2,1347.8 1654.61,1343.79C1656.73,1337.78 1660.16,1331.38 1663.98,1325.24C1667.81,1319.1 1672.01,1313.21 1675.64,1308.17C1682.78,1298.28 1688.89,1293.37 1694.46,1290.79C1698.64,1288.85 1702.58,1288.19 1706.59,1287.8C1709.59,1287.51 1712.64,1287.38 1715.8,1286.96C1720.53,1286.33 1725.54,1285 1730.84,1281.45C1736.16,1277.92 1741.76,1272.23 1747.97,1262.94C1748.32,1262.41 1748.3,1261.72 1747.92,1261.21C1747.54,1260.7 1746.88,1260.49 1746.28,1260.67C1737.01,1263.58 1730.9,1266.63 1726.99,1270.04C1725.04,1271.75 1723.65,1273.56 1722.76,1275.47C1721.86,1277.38 1721.48,1279.37 1721.48,1281.37C1721.48,1283.87 1722.07,1286.39 1722.93,1288.95C1724.23,1292.78 1726.19,1296.73 1728,1300.9C1729.82,1305.06 1731.51,1309.42 1732.34,1314.01C1734.97,1328.65 1738.98,1344.1 1744.27,1356.07C1746.92,1362.05 1749.89,1367.18 1753.25,1370.92C1754.93,1372.79 1756.71,1374.32 1758.63,1375.41C1760.55,1376.5 1762.6,1377.14 1764.75,1377.21C1766.07,1377.26 1767.34,1377.28 1768.56,1377.28C1777.24,1377.27 1783.33,1376.21 1787.43,1374.36C1789.47,1373.44 1791.03,1372.3 1792.1,1370.95C1793.18,1369.6 1793.72,1368.01 1793.72,1366.42C1793.72,1364.81 1793.2,1363.24 1792.33,1361.75C1791.02,1359.52 1788.93,1357.45 1786.29,1355.62C1783.64,1353.79 1780.44,1352.21 1776.88,1351.05C1774.16,1350.16 1771.97,1348.91 1770.17,1347.33C1767.48,1344.98 1765.66,1341.9 1764.49,1338.2C1763.32,1334.5 1762.83,1330.21 1762.83,1325.56C1762.83,1315.88 1764.96,1304.73 1767.12,1294.4C1768.2,1289.23 1769.28,1284.27 1770.09,1279.77C1770.91,1275.26 1771.46,1271.23 1771.47,1267.85C1771.47,1267.65 1771.46,1267.44 1771.46,1267.24C1771.22,1256.2 1769.78,1242.08 1769.78,1229.75C1769.78,1224.71 1770.02,1219.97 1770.67,1215.91C1771.31,1211.84 1772.37,1208.46 1773.89,1206.14C1779.66,1197.28 1786.17,1186.17 1793.1,1176.6C1796.56,1171.81 1800.12,1167.41 1803.71,1163.88C1807.3,1160.35 1810.91,1157.7 1814.4,1156.35C1816.13,1155.68 1818.14,1155.38 1820.38,1155.39C1825.25,1155.38 1831.12,1156.81 1837.08,1158.29C1843.06,1159.76 1849.14,1161.28 1854.69,1161.28C1857.23,1161.28 1859.67,1160.96 1861.93,1160.12C1864.19,1159.29 1866.24,1157.92 1867.93,1155.92C1868.94,1154.73 1869.69,1153.63 1870.21,1152.58C1870.72,1151.53 1871.01,1150.52 1871.01,1149.52C1871.01,1148.82 1870.86,1148.13 1870.58,1147.53C1870.04,1146.38 1869.1,1145.55 1868.04,1144.92C1866.16,1143.83 1863.76,1143.21 1861.16,1142.68C1857.27,1141.9 1852.9,1141.37 1849.64,1140.45C1848.02,1140 1846.69,1139.43 1845.9,1138.83C1845.5,1138.53 1845.23,1138.23 1845.07,1137.94C1844.91,1137.66 1844.83,1137.37 1844.83,1136.98C1844.82,1136.32 1845.13,1135.27 1846.09,1133.84L1844.84,1133.01L1845.01,1134.5C1853.31,1133.53 1861.32,1132.49 1868.4,1130.22C1871.94,1129.08 1875.25,1127.63 1878.24,1125.71C1881.22,1123.79 1883.88,1121.4 1886.07,1118.4C1888.79,1114.68 1890.74,1111.51 1892.03,1108.78C1893.31,1106.05 1893.96,1103.76 1893.96,1101.77C1893.96,1100.73 1893.78,1099.76 1893.38,1098.9C1892.79,1097.6 1891.71,1096.64 1890.45,1096.09C1889.18,1095.52 1887.73,1095.3 1886.14,1095.3C1883.73,1095.3 1880.97,1095.82 1877.97,1096.71C1877.55,1096.84 1877.25,1097.13 1877.09,1097.36C1876.85,1097.72 1876.81,1097.97 1876.77,1098.19C1876.73,1098.41 1876.72,1098.6 1876.72,1098.8C1876.72,1099.28 1876.78,1099.8 1876.87,1100.41C1877.19,1102.51 1877.96,1105.58 1878.76,1108.2C1879.16,1109.51 1879.57,1110.7 1879.95,1111.61C1880.15,1112.07 1880.33,1112.46 1880.55,1112.81C1880.66,1112.99 1880.78,1113.16 1880.97,1113.36C1881.07,1113.46 1881.2,1113.57 1881.39,1113.67C1881.57,1113.78 1881.85,1113.88 1882.2,1113.88C1882.4,1113.89 1882.61,1113.84 1882.81,1113.77C1883,1113.69 1883.16,1113.58 1883.28,1113.46L1883.29,1113.46C1885.27,1111.66 1886.71,1109.97 1887.69,1108.34C1888.66,1106.72 1889.16,1105.14 1889.17,1103.61C1889.17,1102.72 1888.99,1101.85 1888.65,1101.06C1888.06,1099.68 1887.03,1098.56 1885.76,1097.65C1883.85,1096.3 1881.4,1095.39 1878.64,1094.77C1875.89,1094.17 1872.84,1093.88 1869.76,1093.88C1868.29,1093.88 1866.81,1093.94 1865.36,1094.07C1864.26,1094.17 1863.15,1094.22 1862.05,1094.22C1857.64,1094.22 1853.33,1093.47 1849.92,1092.45C1848.21,1091.94 1846.73,1091.37 1845.58,1090.82C1844.44,1090.27 1843.63,1089.7 1843.35,1089.38L1843.16,1089.2C1842.14,1088.43 1841.6,1087.55 1841.22,1086.4C1840.64,1084.68 1840.58,1082.38 1840.22,1079.93C1840.04,1078.7 1839.76,1077.43 1839.25,1076.17C1838.74,1074.91 1837.97,1073.66 1836.86,1072.56L1835.8,1073.62L1837.06,1072.8C1831.84,1064.77 1826.6,1059.13 1821.45,1055.47C1816.3,1051.82 1811.21,1050.15 1806.42,1050.15C1802.1,1050.15 1798.07,1051.5 1794.52,1053.81C1789.19,1057.26 1784.89,1062.81 1781.9,1069.3C1778.91,1075.78 1777.22,1083.22 1777.22,1090.56C1777.22,1098.78 1779.34,1106.89 1784.27,1113.27L1785.45,1112.35L1785.36,1110.85C1784.62,1110.9 1783.89,1110.92 1783.17,1110.92C1776.11,1110.92 1769.7,1108.74 1764,1105.01C1755.44,1099.42 1748.51,1090.31 1743.75,1080.09C1738.98,1069.87 1736.39,1058.56 1736.39,1048.69C1736.39,1041.05 1737.95,1034.3 1741.09,1029.6C1742.65,1027.25 1744.59,1025.4 1746.95,1024.12C1749.31,1022.84 1752.11,1022.12 1755.45,1022.11C1760.79,1022.11 1767.52,1023.99 1775.7,1028.46C1779.09,1030.31 1784.54,1034.08 1789.05,1037.74C1791.3,1039.58 1793.33,1041.39 1794.76,1042.9C1795.47,1043.66 1796.02,1044.34 1796.37,1044.86C1796.54,1045.12 1796.65,1045.35 1796.71,1045.49L1796.77,1045.65L1796.77,1045.67L1796.96,1045.65L1796.77,1045.65L1796.77,1045.67L1796.96,1045.65L1796.77,1045.65L1797.4,1045.65L1796.85,1045.35C1796.78,1045.48 1796.77,1045.6 1796.77,1045.65L1797.4,1045.65L1796.85,1045.35L1797.49,1045.69L1797.03,1045.13C1796.97,1045.17 1796.9,1045.26 1796.85,1045.35L1797.49,1045.69L1797.03,1045.13L1797.31,1045.47L1797.13,1045.07L1797.03,1045.13L1797.31,1045.47L1797.13,1045.07L1797.17,1045.15L1797.13,1045.06L1797.13,1045.07L1797.17,1045.15L1797.13,1045.06C1797.13,1045.07 1796.97,1045.11 1796.67,1045.11C1796.47,1045.11 1796.2,1045.09 1795.88,1045.05C1793.69,1044.76 1791.51,1044.63 1789.36,1044.63C1773.86,1044.63 1759.71,1051.81 1748.13,1062.78C1736.55,1073.77 1727.48,1088.57 1722.07,1104.11C1719.31,1112.03 1718.05,1119.01 1718.05,1125.22C1718.05,1133.66 1720.39,1140.69 1724.32,1146.61C1730.2,1155.5 1739.51,1161.92 1749.72,1167.69C1759.93,1173.45 1771.09,1178.56 1780.79,1184.63L1781.58,1183.36L1780.85,1182.05C1777.37,1183.99 1773.35,1184.88 1768.95,1184.88C1762.33,1184.88 1754.86,1182.83 1747.42,1179.36C1736.27,1174.16 1725.2,1165.81 1716.98,1156.81C1712.88,1152.31 1709.48,1147.65 1707.14,1143.18C1704.79,1138.71 1703.51,1134.43 1703.51,1130.72C1703.52,1127.85 1704.25,1125.33 1705.85,1123.14C1707.46,1120.96 1709.97,1119.06 1713.7,1117.62L1713.16,1116.22L1711.69,1115.91L1712.04,1115.99L1711.8,1115.71C1711.79,1115.7 1711.71,1115.81 1711.69,1115.91L1712.04,1115.99L1711.8,1115.71C1711.8,1115.71 1711.75,1115.74 1711.63,1115.79C1711.27,1115.96 1710.33,1116.12 1709,1116.11C1705.26,1116.12 1698.5,1115.03 1689.33,1112.94C1654.89,1105.12 1586.02,1083.5 1501.28,1055.28C1374.16,1012.95 1211.23,955.758 1074.48,907.91C1006.1,883.985 944.273,862.397 896.734,846.165C872.964,838.049 852.767,831.273 837.105,826.212C821.433,821.15 810.336,817.81 804.618,816.539L804.293,818.003L805.575,818.782C807.028,816.389 808.527,814.824 809.997,813.864C811.473,812.906 812.921,812.517 814.451,812.513C816.861,812.505 819.533,813.56 822.229,815.284C826.276,817.857 830.293,821.846 833.668,825.225C835.361,826.917 836.893,828.454 838.254,829.617C838.937,830.199 839.575,830.69 840.213,831.068C840.854,831.436 841.497,831.738 842.327,831.752C842.854,831.761 843.471,831.571 843.919,831.19C844.373,830.813 844.644,830.332 844.818,829.847L843.406,829.341L841.935,829.047C841.897,829.252 841.909,829.338 841.906,829.343C841.911,832.567 840.756,836.309 838.702,840.07C835.631,845.714 830.572,851.377 824.829,855.569C819.089,859.773 812.672,862.474 807.007,862.461C806.116,862.461 805.242,862.396 804.39,862.262C800.595,861.669 796.637,860.062 792.856,857.801C787.183,854.414 781.916,849.561 778.121,844.655C776.222,842.204 774.691,839.741 773.65,837.469C772.606,835.199 772.068,833.119 772.073,831.497C772.075,830.376 772.313,829.495 772.749,828.806C773.084,828.278 773.056,827.598 772.679,827.099C771.912,826.083 770.854,825.336 769.597,824.743C767.387,823.708 764.483,823.041 760.519,822.202C754.581,820.954 746.264,819.378 734.756,816.106C723.252,812.834 708.571,807.867 689.989,799.843C674.142,793.007 660.451,788.275 650.345,782.018C645.288,778.892 641.134,775.405 637.968,771.105C634.805,766.802 632.602,761.67 631.509,755.13C629.065,740.469 627.939,724.991 627.939,709.54C627.939,694.088 629.065,678.664 631.119,664.109C634.73,638.487 641.241,615.545 649.457,599.965C654.808,589.805 661.049,581.547 667.557,575.881C670.811,573.046 674.127,570.86 677.421,569.391C680.717,567.92 683.983,567.164 687.174,567.164C691.275,567.168 695.273,568.399 699.155,571.11C703.032,573.822 706.779,578.041 710.203,584.007C716.754,595.413 719.277,608.719 719.276,622.377C719.282,644.58 712.59,667.637 706.069,684.489L707.113,684.893L706.308,684.11C706.239,684.181 706.141,684.303 706.069,684.489L707.113,684.893L706.308,684.11L706.83,684.618L706.438,684.001L706.308,684.11L706.83,684.618L706.438,684.001L706.436,684C706.363,684.038 706.07,684.132 705.658,684.208C704.399,684.451 702.055,684.606 699.113,684.603C690.91,684.607 677.864,683.475 667.017,680.84C661.595,679.528 656.717,677.827 653.326,675.796C651.629,674.784 650.314,673.694 649.466,672.596C648.616,671.49 648.217,670.425 648.212,669.256C648.213,669.004 648.232,668.744 648.273,668.476L647.115,668.297L648.113,668.913C648.191,668.788 648.251,668.628 648.274,668.475L647.115,668.297L648.113,668.913L647.271,668.393L647.746,669.272C647.816,669.235 647.973,669.136 648.113,668.913L647.271,668.393L647.746,669.272L647.509,668.833L647.691,669.299L647.746,669.272L647.509,668.833L647.691,669.299L647.626,669.132L647.684,669.301L647.691,669.299L647.626,669.132L647.684,669.301L647.736,669.289C647.848,669.264 648.108,669.238 648.454,669.239C649.386,669.237 650.921,669.406 652.803,669.725C659.423,670.836 670.441,673.709 679.724,676.608C684.366,678.057 688.589,679.517 691.602,680.752C693.105,681.367 694.312,681.933 695.069,682.375C695.445,682.592 695.709,682.786 695.803,682.875L695.839,682.911L696.228,682.571L695.769,682.797L695.839,682.911L696.228,682.571L695.769,682.797L696.726,682.327L695.665,682.327C695.666,682.55 695.727,682.711 695.769,682.797L696.726,682.327L695.665,682.327L696.862,682.327L695.765,681.849C695.699,681.997 695.664,682.173 695.665,682.327L696.862,682.327L695.765,681.849L695.766,681.847C689.101,697.09 686.365,708.018 686.36,716.674C686.349,724.15 688.458,729.9 691.703,734.922C694.946,739.951 699.259,744.295 703.773,749.295C711.274,757.583 721.687,764.718 733.898,773.028C746.111,781.334 760.14,790.801 774.907,803.643C775.375,804.05 776.04,804.127 776.589,803.839C777.138,803.55 777.451,802.958 777.381,802.342C774.235,774.651 770.244,753.736 770.241,708.002C770.241,697.494 770.453,685.678 770.935,672.174C771.012,670.029 771.049,667.917 771.049,665.835C771.052,631.478 760.912,605.566 750.803,586.746C745.751,577.336 740.705,569.688 736.96,563.661C735.088,560.65 733.542,558.042 732.49,555.862C731.431,553.685 730.903,551.93 730.915,550.766L729.415,550.766L730.873,551.118L739.91,513.679L738.452,513.327L738.452,514.827C743.037,514.824 748.5,515.658 753.97,516.509C759.448,517.358 764.932,518.225 769.718,518.228C771.61,518.227 773.398,518.091 775.048,517.745C776.285,517.484 777.446,517.105 778.504,516.561C780.09,515.751 781.443,514.542 782.345,512.922C783.251,511.303 783.702,509.326 783.701,506.999C783.7,504.688 783.265,502.014 782.362,498.874L780.92,499.289L781.619,500.616C783.748,499.493 785.244,498.416 786.275,497.285C786.789,496.719 787.185,496.133 787.455,495.52C787.725,494.909 787.861,494.27 787.86,493.651C787.861,493.003 787.714,492.389 787.483,491.844C787.075,490.886 786.438,490.121 785.761,489.455C784.742,488.461 783.59,487.67 782.748,487.038C782.33,486.727 781.99,486.451 781.825,486.282L781.737,486.188L781.722,486.168L781.071,486.6L781.827,486.6C781.822,486.299 781.721,486.171 781.722,486.168L781.071,486.6L781.827,486.6L780.754,486.6L781.741,487.021C781.797,486.892 781.828,486.734 781.827,486.6L780.754,486.6L781.741,487.021L780.928,486.674L781.485,487.373C781.536,487.333 781.656,487.219 781.741,487.021L780.928,486.674L781.485,487.373L781.309,487.152L781.448,487.399L781.485,487.373L781.309,487.152L781.448,487.399L781.502,487.374C785.218,485.804 787.578,484.507 789.141,483.17C789.919,482.499 790.502,481.801 790.887,481.042C791.275,480.286 791.435,479.483 791.432,478.742C791.42,477.413 791.011,476.304 790.69,475.182C790.359,474.058 790.071,472.925 790.07,471.58C790.07,471.478 790.072,471.374 790.076,471.268C790.098,470.672 790.222,470.247 790.41,469.881C790.575,469.561 790.8,469.279 791.101,469.001C791.624,468.516 792.398,468.07 793.304,467.634C794.659,466.968 796.289,466.349 797.722,465.236C798.434,464.678 799.098,463.972 799.57,463.072C800.044,462.175 800.305,461.104 800.302,459.912C800.302,459.711 800.295,459.506 800.281,459.296C800.207,458.225 799.888,457.202 799.436,456.201C798.64,454.45 797.432,452.725 796.086,450.828C794.063,447.988 791.711,444.778 789.867,440.857C788.024,436.936 786.676,432.321 786.674,426.609C786.674,424.507 786.858,422.256 787.273,419.835C788.064,415.218 788.422,411.191 788.422,407.661C788.422,402.51 787.659,398.41 786.356,395.119C784.409,390.175 781.204,387.117 777.886,385.184C774.57,383.243 771.144,382.346 768.612,381.511C757.492,377.868 743.491,376.334 728.789,376.331C716.457,376.331 703.638,377.419 691.652,379.297C684.347,380.441 678.077,382.914 672.812,386.413C664.911,391.662 659.298,399.196 655.683,407.878C652.066,416.564 650.423,426.406 650.422,436.406C650.426,452.021 654.423,468.029 661.381,480.672C664.864,486.992 669.091,492.474 673.973,496.624C678.851,500.771 684.404,503.587 690.466,504.483C690.665,504.512 690.859,504.524 691.054,504.524C691.593,504.522 692.143,504.439 692.745,504.304C694.979,503.791 698.026,502.5 701.494,500.702C706.679,498.003 712.701,494.17 717.504,490.126C719.906,488.1 722.004,486.025 723.547,483.961C724.318,482.928 724.952,481.895 725.407,480.851C725.859,479.808 726.137,478.744 726.138,477.664C726.147,476.386 725.71,475.093 724.834,474.05C723.525,472.478 721.833,471.284 720.077,470.121C717.436,468.385 714.631,466.715 712.55,464.413C711.507,463.263 710.636,461.964 710.013,460.394C709.392,458.824 709.014,456.971 709.013,454.689C709.013,454.092 709.039,453.466 709.094,452.808C709.413,448.959 709.882,444.624 710.886,441.416C711.381,439.813 712.018,438.511 712.712,437.713C713.058,437.311 713.408,437.032 713.765,436.851C714.125,436.671 714.496,436.576 714.963,436.574C715.424,436.574 715.985,436.676 716.667,436.944C717.688,437.344 718.966,438.125 720.466,439.394C721.967,440.662 723.692,442.41 725.641,444.711C726.195,445.363 726.784,445.887 727.428,446.266C728.069,446.643 728.779,446.877 729.52,446.878C730.039,446.879 730.563,446.757 731.028,446.524C731.73,446.174 732.279,445.599 732.672,444.925C733.066,444.247 733.325,443.46 733.476,442.57C735.772,428.982 739.32,420.603 743.369,415.74C745.395,413.303 747.532,411.727 749.76,410.736C751.988,409.747 754.326,409.34 756.766,409.339C761.871,409.33 767.394,411.173 772.613,413.093C775.224,414.05 777.761,415.02 780.168,415.762C782.577,416.502 784.854,417.027 787.008,417.031C788.428,417.031 789.81,416.793 791.071,416.181C792.015,415.725 792.876,415.057 793.599,414.193C794.686,412.894 795.465,411.182 795.981,409.023C796.497,406.86 796.755,404.23 796.756,401.01C796.764,392.634 794.147,385.931 789.948,380.722C783.644,372.901 773.974,368.404 764.343,365.584C754.706,362.771 745.033,361.646 738.65,360.793C725.186,358.998 714.976,358.247 707.142,358.247C697.798,358.251 691.823,359.307 687.728,361.029C684.661,362.315 682.667,364.026 681.307,365.817C680.284,367.156 679.607,368.51 679.001,369.727C678.547,370.642 678.131,371.48 677.662,372.21C676.952,373.308 676.171,374.165 674.853,374.871C673.533,375.572 671.606,376.111 668.655,376.274C663.269,376.571 658.52,378.018 654.488,380.637C651.463,382.598 648.853,385.209 646.657,388.422C643.363,393.244 640.99,399.41 639.428,406.9C637.868,414.392 637.118,423.218 637.118,433.399C637.118,437.863 637.262,442.586 637.547,447.572C637.996,455.424 638.955,461.994 640.442,467.651C642.669,476.135 646.112,482.567 650.72,488.048C655.328,493.532 661.056,498.063 667.866,502.929C670.074,504.506 671.492,506.042 672.354,507.5C673.214,508.961 673.547,510.346 673.551,511.777C673.553,513.483 673.044,515.276 672.212,517.125C670.969,519.9 669.019,522.747 667.327,525.563C666.482,526.975 665.701,528.384 665.115,529.813C664.532,531.241 664.136,532.7 664.134,534.203C664.133,535.121 664.288,536.053 664.635,536.953C665.154,538.306 666.097,539.56 667.45,540.676C668.806,541.795 670.573,542.8 672.844,543.732C673.085,543.832 673.351,543.885 673.611,543.885C674.205,543.884 674.718,543.621 675.059,543.264C675.402,542.904 675.625,542.425 675.629,541.859C675.635,541.408 675.455,540.911 675.138,540.554C673.409,538.559 671.535,537.058 669.537,536.059C667.541,535.059 665.425,534.572 663.28,534.574C660.099,534.575 656.883,535.624 653.717,537.481C648.175,540.738 642.698,546.468 637.503,553.993C629.721,565.282 622.606,580.64 617.412,597.868C612.221,615.096 608.959,634.187 608.958,652.922C608.958,655.482 609.019,658.034 609.145,660.575C611.92,716.735 617.288,753.165 617.283,787.253C617.279,816.717 613.308,844.476 600.19,882.058C598.556,886.738 597.383,890.491 596.612,893.509C595.843,896.529 595.466,898.804 595.462,900.609C595.463,901.408 595.537,902.12 595.714,902.773C595.846,903.261 596.039,903.718 596.308,904.127C596.708,904.742 597.298,905.223 597.938,905.492C598.579,905.767 599.246,905.857 599.908,905.858C600.985,905.855 602.09,905.625 603.287,905.308C605.077,904.83 607.069,904.134 609.211,903.509C611.35,902.884 613.631,902.331 615.943,902.121L615.807,900.627L614.711,899.604C612.441,902.033 610.866,904.807 609.874,907.79C608.881,910.775 608.463,913.965 608.463,917.275C608.465,922.528 609.51,928.092 611.05,933.717C613.363,942.152 616.801,950.737 619.64,958.506C621.059,962.388 622.329,966.065 623.235,969.393C624.144,972.719 624.682,975.7 624.679,978.14C624.679,978.53 624.666,978.905 624.639,979.267C622.968,1001.7 615.979,1030.03 609.19,1055.15C605.795,1067.71 602.452,1079.48 599.85,1089.34C598.549,1094.27 597.432,1098.73 596.587,1102.58C595.741,1106.43 595.164,1109.67 594.947,1112.22L594.948,1112.22L594.938,1112.43C594.935,1112.92 595.095,1113.4 595.332,1113.77C595.787,1114.46 596.385,1114.82 597.003,1115.12C598.095,1115.64 599.408,1115.95 600.84,1116.23C602.975,1116.65 605.357,1116.96 607.13,1117.34C608.009,1117.52 608.742,1117.73 609.117,1117.91C609.21,1117.95 609.279,1117.99 609.318,1118.01L609.351,1118.03L609.358,1118.04L609.681,1117.66L609.252,1117.9C609.31,1118 609.357,1118.04 609.358,1118.04L609.681,1117.66L609.252,1117.9L610.021,1117.47L609.145,1117.47C609.142,1117.63 609.195,1117.8 609.252,1117.9L610.021,1117.47L609.145,1117.47L609.993,1117.47L609.146,1117.41L609.145,1117.47L609.993,1117.47L609.146,1117.41L609.147,1117.41C608.823,1121.98 607.402,1126.12 605.264,1130.08C602.06,1136.02 597.221,1141.49 592.227,1147.03C587.237,1152.57 582.095,1158.18 578.366,1164.52C571.296,1176.56 567.334,1186.13 565.153,1194.72C562.97,1203.31 562.581,1210.89 562.582,1218.86C562.582,1223.35 562.704,1227.96 562.704,1232.98C562.704,1239.89 562.475,1247.57 561.386,1256.77C559.131,1275.81 557.093,1290.63 555.617,1302.22C554.142,1313.81 553.223,1322.16 553.221,1328.36C553.226,1333.24 553.778,1336.83 555.257,1339.62C556.362,1341.71 558.026,1343.26 560.107,1344.34C563.236,1345.97 567.251,1346.7 572.504,1347.42C577.758,1348.13 584.267,1348.79 592.331,1350.08L592.569,1348.6L592.77,1347.12C592.126,1347.03 591.508,1346.99 590.912,1346.99C589.166,1346.99 587.626,1347.34 586.225,1347.85C584.12,1348.61 582.312,1349.66 580.264,1350.47C578.214,1351.29 575.929,1351.92 572.777,1351.93C569.764,1351.93 565.947,1351.33 560.892,1349.64C555.839,1347.95 549.559,1345.17 541.65,1340.83C541.284,1340.63 540.845,1340.59 540.45,1340.73C540.054,1340.86 539.728,1341.16 539.559,1341.54C535.312,1351.09 532.268,1359.13 530.277,1365.91C528.288,1372.69 527.347,1378.22 527.345,1382.76C527.345,1386.1 527.861,1388.93 528.891,1391.29C529.662,1393.06 530.727,1394.56 532.035,1395.78C533.999,1397.61 536.476,1398.79 539.283,1399.52C542.094,1400.24 545.253,1400.52 548.697,1400.52C556.045,1400.52 564.72,1399.25 573.987,1397.99C583.248,1396.74 593.09,1395.5 602.668,1395.5C608.398,1395.5 614.031,1395.94 619.387,1397.08L619.7,1395.61L618.528,1394.68L619.69,1395.61L619.089,1394.25C618.979,1394.3 618.799,1394.36 618.528,1394.68L619.69,1395.61L619.089,1394.25L619.658,1395.53L619.411,1394.15C619.358,1394.16 619.297,1394.16 619.089,1394.25L619.658,1395.53L619.411,1394.15L619.553,1394.95L619.498,1394.13L619.411,1394.15L619.553,1394.95L619.498,1394.13C619.478,1394.14 619.319,1394.14 619.101,1394.14C617.414,1394.14 611.81,1393.96 603.059,1393.63C541.721,1391.36 324.273,1382.26 168.255,1382.26C135.082,1382.26 104.685,1382.67 79.144,1383.64C53.598,1384.62 32.926,1386.16 19.121,1388.44C18.303,1388.57 17.75,1389.34 17.885,1390.16C18.02,1390.98 18.792,1391.53 19.609,1391.4Z" style="fill:white;fill-rule:nonzero;"/>
            </g>
        </g>
    </g>
</svg>
