<?xml version="1.0" encoding="UTF-8" standalone="no"?>
<!DOCTYPE svg PUBLIC "-//W3C//DTD SVG 1.1//EN" "http://www.w3.org/Graphics/SVG/1.1/DTD/svg11.dtd">
<svg width="100%" height="100%" viewBox="0 0 122189 56773" version="1.1" xmlns="http://www.w3.org/2000/svg" xmlns:xlink="http://www.w3.org/1999/xlink" xml:space="preserve" xmlns:serif="http://www.serif.com/" style="fill-rule:evenodd;clip-rule:evenodd;stroke-linejoin:round;stroke-miterlimit:2;">
    <g transform="matrix(5.55556,0,0,5.55556,0,0)">
        <g transform="matrix(5.55555,0,0,5.55555,-379,-1502)">
            <g>
                <path d="M2636.36,340.138C2645.78,341.735 2655.06,342.665 2664.14,343.474C2659.41,340.937 2653.86,338.669 2647.47,336.609C2646.21,336.204 2644.95,335.811 2643.68,335.431C2641.05,336.818 2638.61,338.382 2636.36,340.138ZM2676.76,344.587C2701,346.807 2724.27,349.996 2749.09,364.503C2763.98,373.206 2778.39,380.707 2792.33,387.961C2814.53,399.516 2835.38,410.364 2854.14,424.072C2840.42,393.754 2819.51,367.268 2786.73,349.6C2755.87,332.962 2690.77,318.194 2652.05,331.811C2662.54,335.417 2670.62,339.58 2676.76,344.587ZM2867.87,443.126C2875.81,466.577 2881.42,494.153 2885.22,528.028C2890.63,576.17 2884.83,627.089 2879.22,676.331C2877.68,689.793 2876.1,703.713 2874.81,717.071C2874.68,718.484 2874.52,719.98 2874.34,721.554C2883.77,716.877 2893.26,711.62 2899.51,699.783C2911.98,676.213 2920.45,638.416 2922.18,598.675C2923.96,557.703 2918.54,520.711 2907.3,497.185C2896.4,474.347 2883.08,457.164 2867.87,443.126ZM2866.87,732.114C2859.68,736.198 2853.85,741.154 2850.97,750.559C2847.25,762.691 2849.68,770.881 2854.23,779.217C2860.89,763.029 2864.7,745.993 2866.87,732.114ZM2652.48,679.946C2664.53,679.946 2676.67,683.931 2688.22,691.764C2717.44,711.597 2722.39,747.398 2726.75,778.985L2726.91,780.121C2727.47,784.172 2727.84,787.947 2728.17,791.276C2729.74,807.071 2730.6,815.772 2746.91,825.604C2760.54,833.814 2782.64,836.947 2799.48,833.053C2824.69,827.218 2840.86,807.985 2851.23,786.021C2845.01,775.663 2840.25,765.062 2845.23,748.802C2849.28,735.603 2858.38,729.636 2867.92,724.749C2868.3,721.759 2868.6,718.991 2868.84,716.498C2870.13,703.087 2871.72,689.14 2873.25,675.652C2878.83,626.742 2884.59,576.166 2879.26,528.697C2875.75,497.504 2870.29,464.95 2858.84,435.317C2838.32,418.656 2814.84,406.438 2789.56,393.284C2775.56,385.996 2761.08,378.46 2746.07,369.684C2724.79,357.248 2704.41,353.473 2683.44,351.268C2690.91,360.567 2693.67,372.369 2691.88,387.334C2687.35,425.369 2670.12,461.212 2640.69,493.869C2623.72,512.7 2602.92,527.849 2582.81,542.499C2558.66,560.089 2535.85,576.704 2518.91,599.205C2494.8,631.222 2471.52,668.476 2500.53,705.437C2503.04,708.635 2505.54,711.771 2508.01,714.866C2531.93,744.84 2552.64,770.793 2550.29,813.037C2556.12,814.436 2566.6,808.167 2575.94,802.578C2584.49,797.458 2592.61,792.596 2599.32,791.776C2604.43,779.669 2600.73,770.151 2596.82,760.101C2592.48,748.918 2587.55,736.245 2595.62,719.712C2605.21,700.05 2620.37,686.589 2638.32,681.812C2642.99,680.565 2647.73,679.946 2652.48,679.946ZM1456.63,581.585C1443.26,602.398 1424.09,614.186 1403.88,626.617C1400.94,628.426 1397.97,630.252 1394.98,632.128C1359.61,654.339 1331.8,693.269 1312.33,747.835C1286.37,820.588 1285.7,906.201 1310.63,965.943C1323.59,997.009 1351.57,1019.69 1377.23,1037.77C1394.88,1050.22 1407.75,1066.36 1420.2,1081.98C1428.79,1092.76 1437.68,1103.92 1448.08,1113.76C1481.36,1145.27 1526.31,1160.54 1562.61,1152.67C1590.41,1146.64 1611.57,1127.5 1623.81,1097.32C1625.72,1092.61 1626.88,1087.85 1628,1083.25C1630.62,1072.53 1633.1,1062.4 1644.14,1054.8C1649.47,1051.13 1655.75,1049.11 1662.22,1047.63C1662,1045.85 1661.74,1044.08 1661.43,1042.31C1657.14,1017.44 1655.92,995.235 1654.62,971.723C1654.05,961.409 1653.46,950.745 1652.59,939.646C1646.51,861.955 1622.51,791.999 1583.19,737.341C1561.91,707.748 1536.33,675.464 1509.23,643.979C1503.78,637.651 1497.85,631.407 1492.12,625.368C1479.33,611.901 1466.14,598.015 1456.63,581.585ZM3342.51,1101.8C3374.64,1103.1 3434.34,1113.85 3506.89,1131.55C3580.54,1149.53 3648.14,1170.08 3671.28,1181.53C3674.3,1183.02 3677.2,1184.59 3679.98,1186.22C3682.53,1168.33 3683.75,1150.06 3679.28,1139.13C3672.66,1122.91 3655.75,1120.37 3636.16,1117.43C3634.74,1117.21 3633.31,1117 3631.89,1116.78C3600.71,1111.95 3531.49,1103.19 3468.62,1098.85C3390.21,1093.42 3356.67,1097.07 3342.51,1101.8ZM1348.48,1049.93C1349.06,1049.93 1349.64,1050.09 1350.14,1050.43C1362.94,1058.98 1375.19,1079.99 1386,1098.53C1391.95,1108.75 1397.58,1118.41 1402.67,1124.98C1407.88,1131.72 1413.14,1138.72 1418.22,1145.49C1434.5,1167.2 1451.34,1189.64 1470.61,1208.55C1484.6,1222.27 1499.35,1235.82 1513.62,1248.92C1528.47,1262.55 1543.78,1276.61 1558.18,1290.84C1564.82,1261.77 1586.38,1229.69 1605.54,1201.19C1614.26,1188.22 1622.5,1175.96 1628.69,1164.97C1647.33,1131.93 1665.51,1093.31 1662.79,1053.65C1657.14,1054.98 1651.92,1056.73 1647.54,1059.74C1638.39,1066.05 1636.28,1074.68 1633.83,1084.67C1632.66,1089.48 1631.44,1094.46 1629.37,1099.57C1616.35,1131.67 1593.71,1152.06 1563.89,1158.53C1525.71,1166.81 1478.63,1150.95 1443.96,1118.12C1433.25,1107.98 1424.23,1096.67 1415.51,1085.72C1402.76,1069.73 1390.72,1054.63 1373.77,1042.68C1347.41,1024.1 1318.64,1000.73 1305.09,968.253C1279.62,907.21 1280.24,819.899 1306.68,745.818C1326.62,689.953 1355.25,649.992 1391.79,627.046C1394.79,625.162 1397.78,623.325 1400.74,621.506C1421.69,608.617 1441.49,596.442 1454.14,574.104C1454.68,573.147 1455.74,572.578 1456.8,572.582C1457.9,572.602 1458.9,573.221 1459.41,574.197C1468.64,591.927 1482.79,606.827 1496.47,621.237C1502.25,627.328 1508.23,633.625 1513.78,640.064C1540.99,671.68 1566.68,704.105 1588.06,733.837C1628.02,789.386 1652.4,860.392 1658.57,939.177C1659.45,950.345 1660.04,961.044 1660.61,971.392C1661.9,994.726 1663.11,1016.77 1667.35,1041.28C1667.64,1043 1667.9,1044.7 1668.12,1046.41C1669.19,1046.21 1670.27,1046 1671.34,1045.81C1677.94,1044.58 1684.76,1043.31 1690.8,1040.88C1709.3,1033.44 1726.91,1019.6 1742.23,1002.1C1724.35,992.437 1708.91,979.559 1698.21,961.47C1673.42,919.533 1671.36,861.141 1669.54,809.622C1669.03,795.209 1668.55,781.597 1667.61,768.822C1661.82,690.169 1620.04,588.399 1521.33,560.436C1508.19,556.712 1494.66,557.543 1481.58,558.348C1469.5,559.09 1457,559.859 1444.89,557.025C1434.03,554.487 1424.27,549.382 1414.84,544.446C1403.51,538.513 1391.78,532.378 1378.12,530.76C1276.18,518.687 1192.27,619.536 1165.06,720.553C1146.83,788.202 1149.48,847.949 1173.65,914.279C1177,923.489 1181.33,932.759 1185.51,941.725C1193.6,959.065 1201.96,976.996 1204.43,996.404C1207.34,1019.31 1202.61,1039.75 1191.09,1053.98C1182.73,1064.3 1171.02,1070.93 1156.96,1073.36C1179.35,1095.24 1205.27,1106.32 1234.06,1106.32L1234.21,1106.32C1272.37,1106.27 1313.23,1086.06 1346.29,1050.87C1346.88,1050.25 1347.67,1049.93 1348.48,1049.93ZM1924.24,1449.95C1941.65,1466.69 1962.04,1480.95 1984.21,1492.73C1992.05,1484.96 1999.36,1476.86 2005.92,1468.4C1997.08,1462.55 1988.2,1456.87 1979.41,1451.26C1967.13,1443.42 1954.45,1435.32 1942.24,1426.95C1935.53,1433.43 1929.98,1441.44 1924.24,1449.95ZM1989.81,1495.64C2017.44,1509.62 2047.65,1519.87 2078.17,1526.38C2077.13,1525.36 2076.09,1524.35 2075.06,1523.34C2069.16,1517.59 2063.06,1511.65 2056.86,1506.27C2042.39,1493.69 2026.79,1482.39 2010.93,1471.74C2004.51,1480.04 1997.41,1488 1989.81,1495.64ZM2322.34,1480.47C2304.27,1480.47 2286.27,1485.69 2269.97,1491.51C2259.24,1495.34 2222.14,1515.5 2204.9,1531.36C2208.22,1530.84 2211.5,1530.27 2214.73,1529.64C2222.79,1528.06 2231.02,1526.53 2238.98,1525.05C2271.09,1519.08 2304.29,1512.91 2335.54,1502.34C2337.93,1501.53 2340.49,1500.69 2343.18,1499.8C2349.86,1497.6 2357.27,1495.16 2364.75,1492.39C2361.66,1490.6 2358.52,1488.93 2355.32,1487.44C2344.55,1482.44 2333.43,1480.47 2322.34,1480.47ZM2089.11,1528.55C2112.45,1532.83 2135.87,1534.97 2158.26,1534.88C2113.79,1512.81 2078.43,1477.7 2044.17,1443.69C2040.73,1440.27 2037.29,1436.86 2033.85,1433.46C2028.79,1445.22 2022.23,1456.35 2014.53,1466.93C2030.47,1477.64 2046.17,1489.02 2060.8,1501.74C2067.12,1507.23 2073.28,1513.24 2079.24,1519.05C2082.49,1522.2 2085.78,1525.42 2089.11,1528.55ZM2125.28,1660.19C2124.18,1662.95 2123.14,1665.76 2122.17,1668.64C2136.81,1655.36 2156.83,1642.08 2176.54,1629C2203.21,1611.31 2230.71,1593.07 2237.46,1578.45C2207.86,1583.83 2177.54,1612.14 2150.64,1637.26C2141.86,1645.46 2133.38,1653.37 2125.28,1660.19ZM1335.48,1639.62C1316.05,1644.03 1296.77,1651.87 1294.48,1660.5C1293.59,1663.88 1295.52,1667.67 1300.22,1671.76C1306.41,1677.15 1321.14,1677.18 1329.69,1673.61C1330.8,1673.14 1331.83,1672.66 1332.8,1672.16C1332.44,1661.85 1333.7,1650.25 1335.48,1639.62ZM2097.8,1536.41C2098.37,1536.9 2098.95,1537.39 2099.53,1537.87C2100.98,1539.09 2104.12,1541.09 2107.45,1543.21C2116.76,1549.13 2123.49,1553.61 2125.2,1557.45C2131.83,1572.24 2109.15,1597.51 2085.13,1624.27C2072.26,1638.6 2060.11,1652.14 2055.1,1661.67C2044.7,1681.41 2047.39,1686.92 2049.03,1688.37C2055.93,1694.48 2085.78,1681.37 2108.28,1665.79C2112.15,1663.1 2116.15,1659.99 2120.27,1656.56C2131.84,1628.27 2149.56,1606.09 2168.16,1582.8C2176.34,1572.56 2184.79,1561.99 2192.64,1550.86C2190.16,1548.3 2189.81,1545.43 2190.03,1543.26C2190.17,1541.98 2190.56,1540.63 2191.19,1539.21C2161.46,1542.37 2129.55,1541.37 2097.8,1536.41ZM1920.86,1454.97C1915.24,1463.27 1909.34,1471.64 1902.14,1478.6C1860.16,1519.24 1811.25,1559.92 1760.7,1596.25C1729.67,1618.55 1695.78,1638.53 1663.01,1657.86C1644.3,1668.9 1624.95,1680.31 1606.53,1691.93C1601.14,1695.33 1593.91,1699.6 1585.52,1703.85C1597.4,1701.82 1609.44,1699.57 1620.82,1696.31C1716.31,1668.99 1809.23,1616.36 1870.37,1577.02L1876.08,1573.35C1909.82,1551.67 1948.42,1526.87 1979.6,1497.21C1957.35,1485.11 1937.56,1470.88 1920.86,1454.97ZM1570.11,1623.09C1571.02,1623.09 1571.89,1623.5 1572.47,1624.23C1586.91,1642.59 1562.43,1690.2 1549.36,1710.48C1553.04,1709.65 1556.78,1708.9 1560.53,1708.19C1574.32,1703.17 1589,1695.89 1603.33,1686.85C1621.82,1675.19 1641.21,1663.75 1659.96,1652.69C1692.62,1633.43 1726.38,1613.52 1757.2,1591.37C1807.52,1555.22 1856.2,1514.73 1897.97,1474.29C1904.99,1467.49 1910.87,1459.04 1916.5,1450.7C1907.95,1442.12 1900.28,1433.07 1893.59,1423.62C1881.44,1436.55 1870.86,1451.05 1859.69,1466.35C1844.26,1487.5 1828.3,1509.37 1807.61,1527.11C1786.73,1545 1764.58,1561.45 1743.15,1577.37C1734.97,1583.45 1726.5,1589.74 1718.21,1596.03C1712.67,1600.23 1707.05,1604.78 1701.61,1609.17C1680.05,1626.59 1657.76,1644.6 1630.16,1651C1616.88,1654.09 1606.88,1653.28 1599.59,1648.53C1588.47,1641.3 1585.6,1626.35 1582.57,1610.51C1580.23,1598.32 1577.81,1585.72 1571.62,1575.47C1562.26,1559.99 1553.82,1552.44 1536.04,1556.85C1531.97,1557.86 1528.85,1560.53 1525.84,1563.11C1520.48,1567.69 1514.41,1572.89 1504.01,1567.01C1498.34,1563.81 1496.02,1557.93 1493.77,1552.24C1491.57,1546.65 1489.49,1541.36 1484.43,1538.6C1470.4,1530.92 1462.55,1537.14 1452.6,1545.02C1448.69,1548.11 1444.66,1551.31 1440.04,1553.68C1428.52,1559.62 1426.03,1559.4 1420.54,1557.9C1418.08,1557.23 1415.02,1556.4 1409.12,1556.18C1372.39,1554.83 1360.94,1594.27 1355.08,1628.83C1354.31,1633.37 1353.93,1637.78 1353.56,1642.03C1352.44,1654.94 1351.37,1667.23 1338.98,1675.47C1339.69,1684.73 1341.95,1691.2 1345.72,1694.29C1349.17,1697.12 1354.08,1697.21 1360.73,1694.56C1373.55,1689.45 1379.86,1669.85 1385.96,1650.89C1393.2,1628.37 1400.69,1605.08 1420.1,1603.48C1421.73,1603.35 1423.18,1604.55 1423.33,1606.19C1423.91,1612.25 1423.54,1621.09 1423.1,1631.32C1421.89,1659.85 1420.22,1698.93 1438.29,1707.04C1442.8,1709.07 1446.72,1709.28 1450.26,1707.68C1461.34,1702.69 1468.08,1680.98 1474.59,1659.98C1481.6,1637.42 1488.22,1616.1 1500.98,1610.16C1501.78,1609.78 1502.71,1609.78 1503.52,1610.16C1504.32,1610.54 1504.92,1611.25 1505.14,1612.11C1507.01,1619.15 1504.88,1631.69 1502.42,1646.21C1497.9,1672.93 1492.27,1706.18 1511.63,1709.79C1525.84,1712.43 1532.82,1691.32 1540.21,1668.97C1547.18,1647.89 1554.39,1626.09 1569.54,1623.14C1569.73,1623.1 1569.92,1623.09 1570.11,1623.09ZM1654.75,1746.33C1815.65,1746.33 2041.58,1749.53 2059.07,1749.78C2081.34,1744.73 2093.04,1730.6 2101.07,1712.74C2097.2,1701.19 2102.51,1689.47 2113.06,1677.71C2113.73,1675.48 2114.41,1673.24 2115.1,1671.01C2115.47,1669.8 2115.85,1668.61 2116.25,1667.42C2114.71,1668.57 2113.2,1669.68 2111.69,1670.72C2100.03,1678.8 2071.38,1695.78 2054.43,1695.78C2050.6,1695.78 2047.36,1694.91 2045.06,1692.87C2039.01,1687.51 2040.56,1676.39 2049.79,1658.87C2055.15,1648.69 2067.54,1634.88 2080.66,1620.26C2100.31,1598.37 2124.76,1571.13 2119.73,1559.9C2118.61,1557.41 2109.26,1551.47 2104.24,1548.27C2100.58,1545.95 2097.43,1543.94 2095.67,1542.47C2092.66,1539.95 2089.66,1537.27 2086.7,1534.51C2070.03,1531.41 2053.49,1527.22 2037.4,1521.96C2018.91,1515.92 2001.43,1508.61 1985.18,1500.18C1953.37,1530.82 1913.84,1556.22 1879.32,1578.4L1873.62,1582.06C1812.14,1621.62 1718.66,1674.56 1622.47,1702.08C1608.49,1706.08 1593.71,1708.57 1579.42,1710.97C1573.66,1711.94 1568.01,1712.89 1562.5,1713.92C1556.09,1716.25 1549.42,1718.26 1542.68,1719.69C1535.28,1728.37 1526.34,1734.12 1517.67,1739.71C1513.13,1742.63 1508.74,1745.45 1504.65,1748.62C1527.81,1746.93 1585.21,1746.33 1654.75,1746.33ZM2222.96,1759.32C2240.9,1775.67 2283.91,1776.53 2344.66,1761.66C2376.54,1753.86 2402.48,1751.53 2428.74,1754.1C2432.53,1754.48 2436.23,1754.9 2439.81,1755.31C2464.69,1758.15 2484.34,1760.39 2503.08,1742.57C2531.32,1715.74 2553.57,1689.2 2569.19,1663.71C2570.76,1661.15 2572.51,1658.35 2574.37,1655.38C2586.42,1636.07 2602.93,1609.64 2606.6,1591.22C2606.87,1589.83 2607.14,1588.56 2607.38,1587.38C2608.57,1581.6 2609.3,1578.11 2608.31,1576.63C2607.17,1574.92 2602.91,1573.31 2595.85,1570.64C2594.42,1570.09 2592.86,1569.5 2591.16,1568.85C2573.9,1562.22 2555.19,1557.71 2537.1,1553.35C2522.76,1549.9 2507.94,1546.33 2493.84,1541.71C2482.11,1537.86 2469.71,1535.1 2457.73,1532.42C2441.58,1528.81 2424.89,1525.08 2409.32,1518.65C2398.69,1514.25 2389.13,1507.98 2379.9,1501.92C2377.06,1500.06 2374.18,1498.17 2371.27,1496.34C2362.2,1499.85 2353.12,1502.84 2345.06,1505.5C2342.39,1506.38 2339.84,1507.22 2337.47,1508.02C2305.81,1518.73 2272.39,1524.94 2240.08,1530.95C2232.13,1532.43 2223.91,1533.96 2215.88,1535.53C2210.19,1536.64 2204.39,1537.57 2198.49,1538.35C2197.05,1540.37 2196.18,1542.24 2196,1543.89C2195.88,1545.02 2196.06,1546.35 2198.28,1547.72C2198.98,1548.16 2199.48,1548.86 2199.64,1549.66C2199.81,1550.47 2199.64,1551.31 2199.17,1551.98C2190.76,1564.12 2181.65,1575.52 2172.85,1586.54C2157.22,1606.1 2142.23,1624.87 2131.17,1647.07C2136.16,1642.56 2141.3,1637.77 2146.54,1632.87C2175.54,1605.79 2208.41,1575.1 2241.48,1571.84C2242.42,1571.74 2243.34,1572.1 2243.98,1572.79C2244.62,1573.48 2244.9,1574.43 2244.73,1575.35C2241.52,1593.09 2211.57,1612.97 2179.86,1634C2157.13,1649.08 2132.66,1665.31 2118.36,1680.95C2118.27,1681.22 2118.19,1681.49 2118.11,1681.76C2114.96,1692.3 2111.77,1702.96 2107.55,1712.83C2107.76,1713.29 2107.99,1713.76 2108.24,1714.22C2111.23,1719.73 2115.85,1722.85 2122.38,1723.78C2142.42,1726.63 2175.76,1708.31 2205.95,1687.23C2231.82,1662.25 2263.65,1638.93 2269.76,1635.37C2271.06,1634.61 2272.72,1634.93 2273.64,1636.12C2274.56,1637.31 2274.46,1639 2273.41,1640.07C2267.41,1646.14 2240.59,1670.13 2209.7,1691.81C2193.6,1707.41 2180.15,1723.35 2177.55,1734.68C2176.77,1738.06 2177.05,1740.68 2178.41,1742.71C2188.4,1757.61 2228.96,1738.24 2253.2,1726.66C2263.87,1721.56 2272.29,1717.54 2277.29,1716.42C2278.53,1716.15 2279.79,1716.67 2280.47,1717.73C2281.15,1718.79 2281.1,1720.16 2280.33,1721.16C2273.11,1730.69 2261.7,1735.9 2250.66,1740.94C2239.65,1745.97 2229.21,1750.73 2222.96,1759.32ZM3076.2,1745.4C3092.42,1754.76 3107.34,1765.59 3122.68,1776.74C3133.75,1784.78 3145.19,1793.1 3157.42,1801.04C3158.65,1801.84 3160.16,1802.89 3161.92,1804.09C3168.52,1808.65 3186.05,1820.73 3191.09,1818.08C3192.26,1817.45 3192.49,1815.36 3192.48,1813.71C3192.43,1805.71 3176.25,1791.29 3167.56,1783.55C3165.41,1781.63 3163.55,1779.97 3162.18,1778.65C3140.86,1758.14 3104.01,1734.57 3071.76,1729.55C3072.6,1734.86 3074.18,1740.15 3076.2,1745.4ZM3084.68,1764C3085.28,1765.19 3085.88,1766.38 3086.48,1767.57C3089.46,1773.46 3092.53,1779.55 3095.05,1785.52C3098.26,1793.12 3101.33,1801.13 3104.57,1809.62C3114.8,1836.36 3126.39,1866.67 3144.51,1886.12C3160.1,1902.84 3170.45,1905.25 3174.58,1902.23C3180.04,1898.23 3179.51,1883.1 3169.15,1864.71C3153.72,1837.31 3132.34,1810.28 3101.88,1779.67C3096.35,1774.11 3090.61,1768.92 3084.68,1764ZM3149.34,2094.18C3121.73,2094.18 3097.73,2088.77 3077.89,2078.05C3035.9,2055.38 2990.42,2025.92 2942.7,1990.48C2923.21,1976.01 2905.36,1959.19 2888.11,1942.93C2871.6,1927.37 2854.52,1911.28 2836.11,1897.35C2826.99,1890.46 2811.53,1884.66 2795.17,1878.52C2770.65,1869.32 2745.3,1859.81 2735.96,1844.62C2721.76,1821.54 2745.24,1772.81 2770.83,1726.65C2770.11,1727.75 2769.39,1728.85 2768.68,1729.95C2731.2,1787.29 2698.81,1834.78 2682.36,1834.78C2682.23,1834.78 2682.09,1834.77 2681.95,1834.77C2635.96,1832.47 2561.23,1790.68 2549.48,1782.31C2531.61,1769.6 2559.96,1722.3 2592.79,1667.52C2616.58,1627.83 2643.54,1582.85 2639.31,1567.44C2638.8,1565.58 2637.86,1564.33 2636.35,1563.52C2635.13,1562.86 2634.52,1561.46 2634.87,1560.12C2635.22,1558.78 2636.46,1557.83 2637.82,1557.88C2642.31,1557.95 2646.88,1557.93 2651.3,1557.91C2669.22,1557.84 2687.73,1557.76 2705.55,1563.66C2730.4,1571.89 2754.7,1584.76 2778.2,1597.21C2799.36,1608.42 2821.23,1620.01 2843.52,1628.23C2885.61,1643.76 2905.83,1659.84 2937.95,1686.92C2961.95,1707.15 2989.82,1714.48 3019.32,1722.24L3023.6,1723.37C3024.82,1723.69 3026.04,1724.03 3027.25,1724.37C3025.38,1723.21 3023.49,1722.05 3021.61,1720.88C3018.29,1718.83 3014.98,1716.78 3011.66,1714.71C3001.06,1708.11 2988.98,1702.19 2977.31,1696.47C2957.61,1686.82 2937.24,1676.84 2921.43,1662.63C2897.66,1641.27 2902.02,1620.08 2907.07,1595.55C2912.74,1567.96 2911.62,1540.79 2909.78,1517.85L2909.06,1508.97C2900.23,1400.07 2889.23,1264.55 2993.46,1193.44C3017.25,1177.21 3049.55,1164.74 3082.06,1159.23C3117.32,1153.25 3151,1155.71 3176.9,1166.14C3205.48,1177.65 3232.98,1197.2 3258.63,1224.25C3281.09,1247.94 3300.95,1276.3 3316.06,1306.29C3335.23,1344.33 3348.6,1382.13 3355.8,1418.63C3359.93,1439.55 3364.83,1460.66 3369.57,1481.07C3377.67,1515.93 3386.04,1551.97 3390.82,1588.24C3398.26,1644.74 3412.77,1713.23 3435.09,1797.28C3440.6,1756.66 3436.17,1713.42 3431.88,1671.47C3431.01,1662.98 3430.12,1654.21 3429.34,1645.79C3426.83,1618.4 3425.97,1590.45 3425.14,1563.42C3423.62,1513.83 3422.04,1462.55 3410.11,1413.81C3384.73,1310.18 3357.66,1222.31 3308.06,1130.31C3241.12,1006.15 3121.17,896.155 3009.57,856.599C2999.71,853.103 2989.4,849.87 2979.43,846.744C2953.8,838.709 2927.55,830.479 2904.66,816.638C2906.21,818.673 2907.8,820.772 2909.42,822.915C2922.59,840.331 2940.63,864.184 2949.27,864.414C2950.13,864.437 2950.94,864.832 2951.49,865.497C2952.05,866.162 2952.29,867.032 2952.15,867.886C2947.52,896.954 2939.76,945.606 2897.52,1020.97C2849.31,1106.98 2766.18,1209.27 2650.42,1325.03C2649.73,1325.72 2648.75,1326.03 2647.79,1325.86C2646.83,1325.7 2646.01,1325.07 2645.59,1324.19C2638.51,1309.19 2641.17,1294.49 2643.75,1280.27C2646.22,1266.62 2648.77,1252.51 2642.95,1237.59L2642.57,1236.62C2630.23,1204.99 2630.23,1204.99 2612.03,1184.43C2610.2,1182.36 2608.19,1180.08 2605.97,1177.55C2604.91,1176.35 2604.98,1174.54 2606.13,1173.42C2610.73,1168.95 2620.91,1161.34 2635,1150.8C2696.57,1104.79 2824.67,1009.05 2857.65,902.902L2858.91,898.844C2869.38,865.268 2876.95,841.009 2862.42,805.992C2860.3,800.876 2857.62,796.359 2854.94,792.027C2843.85,813.939 2826.86,832.875 2800.83,838.898C2782.33,843.179 2758.89,839.826 2743.82,830.743C2724.93,819.358 2723.78,807.828 2722.2,791.869C2721.86,788.433 2721.51,784.879 2720.96,780.942L2720.8,779.806C2716.61,749.458 2711.86,715.063 2684.85,696.729C2670.24,686.814 2654.68,683.661 2639.86,687.609C2623.63,691.933 2609.83,704.269 2601.01,722.344C2594.09,736.518 2598.13,746.917 2602.41,757.927C2606.77,769.14 2611.28,780.734 2604.02,795.948C2603.52,796.998 2602.46,797.638 2601.29,797.655L2601.23,797.655C2595.84,797.655 2587.29,802.774 2579.02,807.726C2566.75,815.074 2554.05,822.674 2545.6,817.527C2544.64,816.942 2544.08,815.868 2544.16,814.746C2547.18,773.572 2526.85,748.101 2503.32,718.608C2500.84,715.5 2498.33,712.352 2495.81,709.142C2481.65,691.1 2477.65,671.831 2483.59,650.233C2488.96,630.683 2502.03,611.643 2514.11,595.596C2531.59,572.38 2555.83,554.725 2579.28,537.649C2599.14,523.18 2619.68,508.218 2636.23,489.853C2664.82,458.134 2681.54,423.403 2685.93,386.624C2687.81,370.802 2684.33,359.232 2674.31,350.39C2672.43,350.222 2670.54,350.058 2668.65,349.893C2655.93,348.786 2642.79,347.642 2629.27,344.926C2628.19,344.71 2627.32,343.929 2626.99,342.885C2626.67,341.841 2626.93,340.701 2627.69,339.911C2630.09,337.406 2632.77,335.178 2635.7,333.207C2557.84,313.206 2472.33,339.528 2416.56,372.131C2310.61,434.068 2253.26,501.606 2236.06,584.678C2227.63,625.347 2221.07,710.776 2256.48,743.009C2259.76,745.998 2263.33,747.815 2266.78,749.573C2273.99,753.25 2281.45,757.052 2283.06,770.76C2284.45,782.517 2279.8,794.876 2275.7,805.782C2274.36,809.317 2273.11,812.656 2272.12,815.793C2268.41,827.556 2264.88,845.538 2261.77,861.403C2260.18,869.51 2258.67,877.167 2257.28,883.355C2256.49,886.84 2255.36,890.614 2254.17,894.61C2250.71,906.189 2246.79,919.313 2250.2,929.093C2258.55,953.024 2290.94,949.653 2312.36,947.425C2313.19,947.34 2314.01,947.597 2314.64,948.138C2315.26,948.679 2315.64,949.455 2315.67,950.282C2316.13,961.106 2319.77,966.167 2323.62,971.527C2327.03,976.268 2330.56,981.171 2332.09,989.723C2333.13,995.543 2331.73,1000.37 2330.61,1004.25C2328.73,1010.73 2327.78,1013.98 2336.56,1019.32C2342.38,1022.86 2351.44,1022.08 2364.27,1016.93C2365.44,1016.45 2366.79,1016.77 2367.63,1017.72C2368.47,1018.67 2368.62,1020.05 2368.01,1021.16C2362.27,1031.56 2360.1,1038.01 2361.18,1041.45C2361.95,1043.93 2364.72,1045.4 2369.54,1047.78C2374.43,1050.21 2380.53,1053.22 2386.47,1059.22C2394.92,1067.76 2395.88,1078.12 2396.74,1087.25C2397.88,1099.49 2398.86,1110.07 2415.78,1116.87C2425.2,1120.66 2431.41,1118.67 2438.6,1116.36C2443.72,1114.72 2449.01,1113.02 2455.58,1113.52C2461.83,1113.99 2467.66,1117.12 2473.3,1120.14C2478.67,1123.02 2484.23,1126.01 2489.98,1126.58C2519.13,1129.48 2545.11,1125.67 2563.13,1115.87C2572.2,1110.95 2583.05,1112.18 2590.79,1119C2598.47,1125.78 2601.03,1136.33 2597.29,1145.86L2597.07,1146.41C2586.92,1171.7 2574.48,1188.03 2562.44,1203.81C2547.64,1223.23 2533.65,1241.56 2524.78,1275.17C2521.97,1285.82 2512.15,1300.93 2502.64,1315.55C2494.7,1327.77 2487.2,1339.3 2484.29,1347.3C2479.44,1360.65 2471.16,1368.51 2462.4,1376.84C2459.07,1380 2455.63,1383.27 2452.3,1386.93C2441.59,1398.69 2437.85,1412.87 2433.89,1427.89C2430.17,1442.01 2426.32,1456.61 2416.16,1468.85C2407.49,1479.27 2393.18,1487.23 2378.1,1493.58C2379.81,1494.69 2381.5,1495.8 2383.19,1496.91C2392.19,1502.81 2401.5,1508.92 2411.61,1513.1C2426.7,1519.34 2443.14,1523.01 2459.03,1526.56C2471.16,1529.27 2483.7,1532.07 2495.7,1536.01C2509.58,1540.55 2524.28,1544.1 2538.51,1547.52C2556.78,1551.92 2575.68,1556.48 2593.32,1563.25C2595,1563.9 2596.55,1564.48 2597.98,1565.02C2615.08,1571.49 2616.57,1572.55 2613.26,1588.59C2613.02,1589.76 2612.76,1591.02 2612.48,1592.39C2608.6,1611.88 2591.76,1638.86 2579.46,1658.56C2577.61,1661.52 2575.87,1664.3 2574.31,1666.85C2558.41,1692.78 2535.83,1719.72 2507.21,1746.92C2486.44,1766.67 2464.52,1764.17 2439.13,1761.27C2435.58,1760.86 2431.9,1760.44 2428.16,1760.07C2402.25,1757.54 2377.7,1759.76 2346.08,1767.49C2300.15,1778.73 2240.45,1786.86 2216.9,1761.78C2215.98,1760.79 2215.82,1759.31 2216.53,1758.16C2221.32,1750.33 2228.71,1745.18 2236.8,1740.93C2211.21,1752.31 2183.68,1761.34 2173.43,1746.05C2171.13,1742.62 2170.55,1738.35 2171.7,1733.34C2173.5,1725.52 2179.66,1716.03 2188.09,1706.07C2165.79,1719.76 2143.38,1730.06 2126.58,1730.06C2124.83,1730.06 2123.16,1729.95 2121.54,1729.72C2114.11,1728.67 2108.38,1725.24 2104.45,1719.52C2095.81,1736.73 2083,1750.63 2060.03,1755.71C2059.8,1755.76 2059.57,1755.79 2059.34,1755.78C1908.98,1753.62 1514.73,1749.36 1496.37,1755.62C1495.05,1756.07 1493.6,1755.56 1492.86,1754.38C1492.12,1753.21 1492.28,1751.68 1493.26,1750.68C1499.64,1744.18 1507.15,1739.34 1514.42,1734.66C1520.64,1730.66 1527.01,1726.56 1532.7,1721.37C1532.39,1721.41 1532.08,1721.44 1531.77,1721.48C1530.24,1721.64 1528.84,1720.64 1528.51,1719.14C1528.18,1717.65 1529.03,1716.14 1530.48,1715.65C1533.78,1714.53 1537.18,1713.52 1540.66,1712.6C1553.85,1694.81 1578.23,1646.64 1568.82,1629.56C1558.26,1633.49 1551.98,1652.47 1545.9,1670.85C1538.03,1694.67 1529.88,1719.28 1510.53,1715.69C1485.37,1710.99 1491.54,1674.52 1496.51,1645.21C1498.29,1634.71 1499.99,1624.68 1499.86,1618.08C1491.56,1625.58 1485.86,1643.94 1480.32,1661.76C1473.1,1685.05 1466.27,1707.04 1452.73,1713.15C1447.6,1715.46 1441.92,1715.25 1435.83,1712.52C1414.06,1702.74 1415.82,1661.31 1417.11,1631.06C1417.46,1622.8 1417.77,1615.47 1417.56,1609.98C1404.28,1613.52 1398.14,1632.6 1391.67,1652.73C1385.15,1673.01 1378.4,1693.98 1362.95,1700.13C1354.21,1703.61 1347.13,1703.21 1341.91,1698.93C1336.88,1694.8 1334.29,1687.44 1333.27,1678.59C1332.86,1678.78 1332.43,1678.96 1332,1679.14C1322.81,1682.98 1305.28,1684.12 1296.28,1676.29C1289.71,1670.57 1287.15,1664.74 1288.68,1658.96C1292.87,1643.17 1327.95,1634.96 1338.61,1632.81C1339.59,1632.62 1340.59,1632.92 1341.3,1633.62C1342.01,1634.31 1342.33,1635.32 1342.15,1636.3C1339.91,1648.51 1338.78,1659.22 1338.73,1668.08C1345.84,1661.6 1346.61,1652.74 1347.58,1641.52C1347.96,1637.14 1348.35,1632.61 1349.16,1627.82C1354.95,1593.73 1367.48,1548.62 1409.34,1550.18C1415.93,1550.43 1419.51,1551.4 1422.12,1552.12C1426.07,1553.19 1427.26,1553.52 1437.29,1548.35C1441.39,1546.24 1445.19,1543.23 1448.88,1540.31C1458.68,1532.55 1469.8,1523.74 1487.31,1533.33C1494.27,1537.14 1496.97,1543.99 1499.36,1550.04C1501.39,1555.19 1503.14,1559.63 1506.96,1561.79C1513.71,1565.6 1516.8,1562.95 1521.94,1558.55C1525.32,1555.66 1529.15,1552.38 1534.6,1551.03C1555.78,1545.77 1566.43,1555.29 1576.75,1572.36C1583.51,1583.53 1586.02,1596.67 1588.46,1609.38C1591.37,1624.56 1593.88,1637.67 1602.86,1643.51C1608.71,1647.31 1617.2,1647.85 1628.8,1645.16C1655.06,1639.06 1676.81,1621.5 1697.84,1604.51C1703.31,1600.08 1708.97,1595.51 1714.58,1591.25C1722.9,1584.94 1731.38,1578.64 1739.57,1572.55C1760.91,1556.7 1782.98,1540.3 1803.7,1522.55C1823.87,1505.27 1839.62,1483.69 1854.85,1462.82C1866.37,1447.02 1878.3,1430.68 1891.81,1416.8C1892.44,1416.15 1893.33,1415.83 1894.23,1415.9C1895.12,1415.98 1895.94,1416.46 1896.44,1417.21C1903.34,1427.35 1911.21,1436.83 1919.9,1445.66C1925.91,1436.77 1932.22,1427.83 1939.95,1420.89C1940.99,1419.96 1942.52,1419.86 1943.66,1420.65C1956.39,1429.44 1969.73,1437.96 1982.64,1446.2C1991.55,1451.9 2000.57,1457.65 2009.54,1463.59C2017.92,1452.1 2024.91,1439.96 2029.99,1427.09C2030.36,1426.16 2031.17,1425.47 2032.16,1425.26C2033.14,1425.05 2034.16,1425.35 2034.88,1426.06C2039.39,1430.48 2043.89,1434.95 2048.4,1439.43C2081.34,1472.13 2115.3,1505.85 2157.18,1527.6C2142.01,1507.57 2114.55,1469.85 2099.57,1440.65C2089.99,1426.17 2082.76,1396.46 2076.94,1372.57C2076.08,1369.05 2075.26,1365.71 2074.49,1362.62C2062.08,1313.11 2041.48,1239.94 2005.92,1176.47L2004.44,1173.82C1972.59,1116.95 1942.52,1063.24 1878.34,1042.58C1863.87,1037.92 1847.88,1034.32 1830.96,1030.51C1803.12,1024.24 1773.2,1017.51 1747.58,1004.86C1730.82,1024.24 1711.89,1038.86 1693.04,1046.44C1686.44,1049.1 1679.32,1050.42 1672.44,1051.7C1671.19,1051.94 1669.95,1052.17 1668.72,1052.4C1671.86,1093.9 1653.14,1133.84 1633.92,1167.92C1627.61,1179.11 1619.3,1191.47 1610.51,1204.54C1590.46,1234.37 1567.73,1268.19 1563.01,1297.4C1562.83,1298.52 1562.04,1299.44 1560.97,1299.78C1559.89,1300.13 1558.72,1299.84 1557.92,1299.04C1542.47,1283.56 1525.74,1268.2 1509.56,1253.34C1495.26,1240.2 1480.47,1226.62 1466.41,1212.83C1446.81,1193.6 1429.84,1170.98 1413.42,1149.09C1408.35,1142.34 1403.11,1135.36 1397.92,1128.65C1392.6,1121.77 1386.87,1111.95 1380.81,1101.55C1370.94,1084.62 1359.83,1065.56 1348.84,1056.9C1314.97,1092.1 1273.32,1112.27 1234.21,1112.32L1234.07,1112.32C1202.19,1112.32 1172.57,1098.8 1148.4,1073.21C1147.61,1072.37 1147.37,1071.16 1147.78,1070.08C1148.19,1069 1149.19,1068.26 1150.33,1068.16C1165.67,1066.89 1177.81,1060.84 1186.43,1050.2C1196.9,1037.26 1201.18,1018.42 1198.48,997.161C1196.12,978.683 1187.96,961.184 1180.07,944.261C1175.83,935.179 1171.45,925.789 1168.01,916.333C1143.39,848.77 1140.69,787.908 1159.26,718.992C1173.07,667.756 1201.23,617.744 1236.52,581.778C1266.13,551.604 1314.86,517.224 1378.83,524.802C1393.59,526.55 1405.81,532.945 1417.62,539.13C1427.14,544.112 1436.13,548.817 1446.25,551.183C1457.51,553.817 1469.02,553.11 1481.21,552.359C1494.8,551.524 1508.84,550.661 1522.97,554.663C1567.16,567.184 1604.7,595.773 1631.51,637.342C1655.12,673.953 1670.07,720.49 1673.59,768.381C1674.54,781.27 1675.03,794.939 1675.54,809.411C1677.33,860.213 1679.37,917.795 1703.38,958.416C1713.74,975.939 1728.63,988.282 1746.1,997.536C1781.46,954.596 1803.25,892.349 1792.72,847.181C1791.87,847.353 1791,847.529 1790.14,847.707C1778.74,850.041 1765.83,852.686 1753.69,847.886C1752.54,847.431 1751.79,846.316 1751.79,845.079C1751.8,843.842 1752.57,842.735 1753.72,842.293C1766.75,837.313 1775.41,823.16 1781.12,811.182C1752.77,814.017 1730.64,809.229 1716.92,797.23C1705.62,787.355 1699.85,772.715 1699.76,753.715C1699.55,708.172 1686.52,671.154 1657.51,633.684C1582.89,537.299 1512.58,485.729 1442.59,476.024C1416.72,472.439 1391.86,476.091 1372.6,486.306C1365.71,489.955 1361.01,493.187 1356.85,496.039C1348.23,501.957 1342,506.233 1325.36,507.821C1266.84,513.403 1210.23,543.916 1181.14,585.555C1127.41,662.482 1107.87,750.368 1121.41,854.235C1123.03,866.675 1127.64,881.084 1132.53,896.34C1146.02,938.456 1161.28,986.088 1117.91,1010.1C1121.86,1018.33 1130.74,1020.1 1140.1,1021.97C1142.82,1022.51 1145.62,1023.07 1148.27,1023.79C1149.42,1024.1 1150.27,1025.06 1150.45,1026.24C1150.62,1027.41 1150.09,1028.58 1149.09,1029.22C1135.1,1038.09 1118.27,1044.97 1102,1051.62C1089.08,1056.91 1075.73,1062.37 1063.78,1068.81C1024.87,1089.8 1011.12,1125.71 996.566,1163.73C992.471,1174.42 988.236,1185.49 983.395,1196.25C975.537,1213.72 961.445,1226.63 947.816,1239.11C941.824,1244.6 935.627,1250.27 930.122,1256.21C903.761,1284.64 857.515,1341.59 843.969,1403.59L842.475,1410.44C830.575,1465.12 820.298,1512.34 784.584,1558.3C782.451,1561.05 780.195,1563.9 777.862,1566.85C756.265,1594.18 726.686,1631.59 730.904,1666.69C731.006,1667.54 730.74,1668.39 730.17,1669.03C729.601,1669.68 728.784,1670.04 727.926,1670.04L119.935,1670.04L119.935,1844.37L2660.98,1844.37C2662.64,1844.37 2663.98,1845.71 2663.98,1847.37L2663.98,1920.13C2663.98,1921.78 2662.64,1923.13 2660.98,1923.13L116.935,1923.13C115.278,1923.13 113.935,1921.78 113.935,1920.13C113.935,1918.47 115.278,1917.13 116.935,1917.13L2657.98,1917.13L2657.98,1850.37L116.935,1850.37C115.278,1850.37 113.935,1849.03 113.935,1847.37L113.935,1667.04C113.935,1665.39 115.278,1664.04 116.935,1664.04L724.636,1664.04C722.24,1627.54 751.567,1590.44 773.155,1563.13C775.477,1560.2 777.723,1557.36 779.847,1554.62C814.725,1509.73 824.868,1463.13 836.611,1409.17L838.106,1402.31C851.957,1338.92 898.945,1281.01 925.722,1252.13C931.394,1246.01 937.683,1240.25 943.765,1234.68C957.55,1222.06 970.573,1210.13 977.923,1193.79C982.694,1183.18 986.898,1172.2 990.963,1161.58C1005.93,1122.49 1020.06,1085.58 1060.93,1063.53C1073.16,1056.94 1086.67,1051.41 1099.73,1046.07C1113.93,1040.26 1127.45,1034.73 1139.49,1027.96C1139.3,1027.92 1139.12,1027.89 1138.93,1027.85C1128.03,1025.68 1115.68,1023.22 1111.28,1009.63C1110.83,1008.22 1111.46,1006.7 1112.78,1006.03C1154.56,984.782 1140.46,940.751 1126.82,898.17C1121.85,882.648 1117.15,867.988 1115.46,855.011C1108.75,803.515 1109.88,757.243 1118.93,713.553C1128.72,666.289 1147.46,623.296 1176.22,582.12C1206.27,539.098 1264.59,507.589 1324.79,501.848C1339.89,500.408 1344.99,496.901 1353.46,491.092C1357.74,488.149 1362.6,484.814 1369.78,481.005C1390.15,470.205 1416.3,466.325 1443.41,470.082C1483.83,475.686 1525.31,495.531 1566.68,529.067C1598.16,554.591 1629.43,587.609 1662.25,630.011C1692.12,668.594 1705.54,706.737 1705.76,753.687C1705.84,770.891 1710.93,784.021 1720.87,792.713C1737.59,807.337 1765.35,807.258 1785.68,804.618C1786.75,804.474 1787.82,804.929 1788.47,805.796C1789.12,806.664 1789.25,807.814 1788.81,808.805C1783.68,820.427 1775.7,835.839 1763.05,844.184C1771.48,845.401 1780.32,843.592 1788.93,841.829C1790.78,841.451 1792.6,841.079 1794.39,840.742C1795.93,840.451 1797.44,841.4 1797.84,842.917C1806.69,876.156 1799.12,919.3 1777.07,961.29C1769.6,975.507 1760.92,988.636 1751.45,1000.24C1775.69,1011.92 1804.24,1018.34 1832.28,1024.65C1849.34,1028.49 1865.45,1032.12 1880.18,1036.87C1946.6,1058.25 1977.24,1112.96 2009.67,1170.89L2011.16,1173.54C2047.06,1237.63 2067.82,1311.31 2080.31,1361.16C2081.09,1364.26 2081.91,1367.62 2082.77,1371.15C2088.19,1393.42 2095.62,1423.92 2104.66,1437.47C2104.73,1437.56 2104.78,1437.66 2104.84,1437.76C2122.7,1472.67 2158.94,1520.23 2169.63,1533.98C2169.79,1534.19 2169.92,1534.41 2170.02,1534.64C2178.7,1534.32 2187.18,1533.66 2195.46,1532.66C2201.1,1525.87 2211.1,1517.87 2225.36,1508.76C2242.9,1497.54 2261.68,1488.1 2267.95,1485.86C2295.41,1476.06 2327.57,1467.94 2357.85,1482C2362.69,1484.25 2367.35,1486.88 2371.88,1489.65C2387.66,1483.33 2402.9,1475.41 2411.54,1465.01C2420.85,1453.8 2424.37,1440.47 2428.09,1426.36C2432.06,1411.31 2436.16,1395.74 2447.86,1382.89C2451.34,1379.07 2454.86,1375.72 2458.27,1372.49C2466.86,1364.32 2474.28,1357.27 2478.65,1345.25C2481.79,1336.61 2489.48,1324.79 2497.61,1312.28C2506.86,1298.06 2516.42,1283.36 2518.98,1273.64C2528.16,1238.88 2542.49,1220.08 2557.67,1200.17C2569.46,1184.71 2581.66,1168.71 2591.51,1144.18L2591.71,1143.67C2595.11,1134.98 2591.41,1127.55 2586.82,1123.5C2582.18,1119.41 2574.28,1116.64 2566,1121.15C2540.27,1135.13 2506.96,1134.29 2489.39,1132.55C2482.45,1131.86 2476.36,1128.59 2470.46,1125.43C2465.14,1122.58 2460.11,1119.88 2455.13,1119.5C2449.74,1119.09 2445.21,1120.54 2440.43,1122.08C2433.19,1124.4 2424.98,1127.03 2413.54,1122.44C2393.23,1114.27 2391.92,1100.21 2390.76,1087.8C2389.93,1078.88 2389.14,1070.46 2382.2,1063.44C2376.97,1058.15 2371.61,1055.5 2366.88,1053.16C2361.59,1050.54 2357.03,1048.29 2355.45,1043.24C2354.12,1038.99 2355.2,1033.51 2359.2,1025.13C2351.8,1027.4 2341.33,1029.24 2333.44,1024.44C2320.74,1016.71 2322.92,1009.2 2324.84,1002.58C2325.89,998.959 2326.98,995.219 2326.18,990.78C2324.89,983.568 2321.91,979.42 2318.75,975.03C2314.92,969.703 2310.97,964.21 2309.9,953.71C2287.81,955.952 2254,958.188 2244.54,931.068C2240.49,919.456 2244.7,905.344 2248.42,892.894C2249.58,888.998 2250.68,885.319 2251.42,882.034C2252.8,875.928 2254.3,868.311 2255.88,860.247C2259.03,844.228 2262.59,826.072 2266.4,813.989C2267.44,810.697 2268.72,807.283 2270.08,803.669C2273.94,793.404 2278.32,781.77 2277.1,771.462C2275.86,760.94 2270.91,758.414 2264.05,754.918C2260.43,753.071 2256.32,750.978 2252.44,747.446C2235.92,732.411 2226.33,706.09 2223.92,669.214C2222.2,642.782 2224.53,610.725 2230.18,583.461C2239.9,536.518 2261.87,494.959 2297.36,456.411C2326.25,425.024 2364.25,395.762 2413.53,366.951C2471.76,332.914 2561.9,305.631 2643.09,329.002C2683.71,309.546 2757.1,326.811 2789.58,344.318C2820.79,361.145 2843.71,386.583 2859.65,422.089C2861,425.107 2862.31,428.194 2863.56,431.359C2882.74,447.086 2899.42,466.739 2912.72,494.6C2936.71,544.845 2932.72,649.81 2904.82,702.587C2897.2,717 2885.38,722.814 2874.95,727.945C2874.44,728.194 2873.94,728.442 2873.44,728.69C2871.19,744.725 2866.75,765.925 2858,785.582C2858.32,786.098 2858.64,786.619 2858.97,787.145C2862.12,792.209 2865.37,797.446 2867.97,803.692C2883.32,840.719 2875.49,865.849 2864.64,900.63L2863.38,904.682C2829.82,1012.69 2700.66,1109.22 2638.59,1155.61C2626.6,1164.58 2617.47,1171.4 2612.42,1175.8C2613.88,1177.46 2615.25,1179.01 2616.53,1180.45C2635.26,1201.62 2635.55,1202.12 2648.16,1234.44L2648.54,1235.41C2654.98,1251.91 2652.27,1266.87 2649.65,1281.34C2647.39,1293.83 2645.24,1305.7 2649.37,1317.59C2913,1053.17 2936.11,930.024 2945.77,869.798C2935.45,866.42 2921.99,849.484 2904.64,826.533C2898.34,818.21 2891.91,809.705 2886.7,803.896C2884.02,801.651 2881.4,799.286 2878.87,796.792C2877.8,795.731 2877.68,794.039 2878.59,792.838C2879.5,791.637 2881.17,791.301 2882.48,792.056C2884.87,793.435 2887.69,796.051 2890.86,799.547C2916.37,820.685 2949.29,831.007 2981.22,841.019C2991.25,844.161 3001.61,847.411 3011.58,850.943C3069.78,871.572 3129.84,910.086 3185.29,962.325C3236.43,1010.5 3281.91,1069.15 3313.34,1127.46C3363.25,1220.02 3390.45,1308.3 3415.93,1412.38C3428.02,1461.73 3429.61,1513.34 3431.14,1563.24C3431.97,1590.18 3432.82,1618.03 3435.32,1645.24C3436.09,1653.63 3436.95,1662 3437.85,1670.86C3442.67,1717.97 3447.65,1766.68 3438.73,1812.04C3438.46,1813.41 3437.29,1814.41 3435.89,1814.46C3434.51,1814.51 3433.26,1813.59 3432.89,1812.24C3408.45,1721.78 3392.74,1648.77 3384.87,1589.03C3380.13,1553.05 3371.79,1517.15 3363.73,1482.43C3358.97,1461.97 3354.06,1440.81 3349.91,1419.8C3342.82,1383.83 3329.63,1346.55 3310.7,1308.99C3278.05,1244.19 3227.19,1192.86 3174.65,1171.7C3120.07,1149.72 3041.38,1168.01 2996.84,1198.4C2895.49,1267.54 2906.33,1401.14 2915.04,1508.49L2915.76,1517.37C2917.64,1540.73 2918.77,1568.43 2912.95,1596.75C2907.38,1623.8 2905.22,1639.99 2925.44,1658.17C2940.63,1671.82 2960.62,1681.61 2979.95,1691.08C2991.76,1696.87 3003.97,1702.85 3014.83,1709.62C3018.14,1711.68 3021.46,1713.73 3024.77,1715.78C3034.19,1721.61 3043.72,1727.51 3053.14,1733.68C3058.37,1735.97 3063.42,1738.43 3068.32,1741.04C3066.83,1736.21 3065.76,1731.3 3065.32,1726.32C3065.24,1725.43 3065.57,1724.54 3066.21,1723.92C3066.86,1723.29 3067.75,1722.98 3068.64,1723.08C3103.14,1726.9 3143.47,1752.33 3166.34,1774.33C3167.63,1775.57 3169.45,1777.19 3171.56,1779.07C3185.15,1791.18 3198.42,1803.83 3198.48,1813.67C3198.51,1818.48 3196.97,1821.75 3193.89,1823.38C3186.28,1827.41 3172.81,1818.89 3158.51,1809.03C3156.8,1807.85 3155.31,1806.83 3154.15,1806.07C3141.79,1798.05 3130.28,1789.69 3119.15,1781.6C3110.13,1775.04 3101.26,1768.59 3092.19,1762.51C3096.98,1766.62 3101.65,1770.92 3106.14,1775.43C3136.99,1806.45 3158.67,1833.88 3174.38,1861.77C3185.66,1881.8 3187.2,1900.43 3178.12,1907.07C3174.14,1909.98 3162.46,1914.17 3140.12,1890.21C3121.2,1869.9 3109.39,1839.01 3098.97,1811.76C3095.74,1803.33 3092.69,1795.36 3089.53,1787.86C3087.08,1782.07 3084.19,1776.34 3081.13,1770.28C3078.67,1765.41 3076.18,1760.48 3073.92,1755.49C3066.32,1749.75 3058.47,1744.33 3050.41,1739.05C3041.55,1735.19 3032.18,1731.84 3022.07,1729.17L3017.8,1728.05C2987.62,1720.11 2959.11,1712.61 2934.09,1691.51C2902.48,1664.86 2882.59,1649.04 2841.45,1633.86C2818.78,1625.5 2796.72,1613.81 2775.39,1602.51C2752.11,1590.18 2728.04,1577.43 2703.67,1569.36C2686.78,1563.77 2669.56,1563.84 2651.33,1563.91C2649.05,1563.92 2646.74,1563.93 2644.42,1563.93C2644.68,1564.53 2644.91,1565.18 2645.09,1565.85C2650,1583.73 2624.71,1625.93 2597.94,1670.61C2571.95,1713.97 2539.61,1767.93 2552.96,1777.43C2564.47,1785.62 2637.53,1826.54 2682.25,1828.77C2682.31,1828.78 2682.37,1828.78 2682.43,1828.78C2685.88,1828.78 2694.96,1824.09 2717.64,1793.94C2733.25,1773.18 2750.11,1747.39 2763.66,1726.66C2770.27,1716.54 2775.99,1707.8 2780.27,1701.62C2786.83,1692.15 2788.87,1689.94 2791.78,1691.24C2794.58,1692.5 2793.66,1695.89 2793.31,1697.16C2792.43,1700.38 2788.73,1707.04 2781.7,1719.5C2763.76,1751.35 2726.41,1817.64 2741.07,1841.48C2749.33,1854.92 2773.7,1864.06 2797.28,1872.91C2814.06,1879.2 2829.92,1885.15 2839.73,1892.57C2858.4,1906.69 2875.59,1922.89 2892.22,1938.56C2909.35,1954.71 2927.07,1971.4 2946.28,1985.67C2993.77,2020.93 3039,2050.24 3080.74,2072.77C3120.85,2094.43 3181.46,2093.09 3247.03,2069.08C3307.16,2047.06 3362.58,2009.05 3391.66,1969.88C3439.41,1905.56 3566.79,1644.96 3609.49,1513.41C3638.61,1423.71 3659.99,1327.72 3673.03,1228.11C3673.67,1223.23 3674.74,1217.24 3675.98,1210.31C3676.97,1204.8 3678.04,1198.79 3679.02,1192.63C3675.77,1190.64 3672.3,1188.73 3668.61,1186.9C3621.16,1163.42 3392.73,1104.75 3331.62,1107.78C3330.44,1107.85 3329.31,1107.18 3328.78,1106.11C3328.25,1105.03 3328.41,1103.75 3329.19,1102.84C3335.12,1095.86 3351.7,1091.85 3379.88,1090.58C3402.5,1089.57 3432.5,1090.33 3469.03,1092.86C3532.09,1097.22 3601.52,1106.01 3632.8,1110.85C3634.22,1111.07 3635.64,1111.28 3637.05,1111.49C3656.66,1114.44 3676.93,1117.49 3684.84,1136.86C3690.03,1149.58 3688.44,1170.18 3685.54,1189.68C3703.67,1201.67 3716,1217.04 3723.03,1236.32C3731.69,1260.08 3731.84,1287.68 3730.7,1313.95C3726.98,1399.85 3698.36,1485.74 3670.67,1568.81C3663.2,1591.21 3655.48,1614.37 3648.56,1636.72C3631.32,1692.38 3610.91,1750.09 3582.39,1823.84C3580.65,1828.33 3579,1833.08 3577.24,1838.11C3571.76,1853.85 3565.63,1871.42 3555.55,1883.78L3985.23,1883.78C3986.89,1883.78 3988.23,1885.13 3988.23,1886.78C3988.23,1888.44 3986.89,1889.78 3985.23,1889.78L3548.68,1889.78C3547.45,1889.78 3546.35,1889.03 3545.89,1887.89C3545.44,1886.74 3545.73,1885.44 3546.63,1884.59C3558.6,1873.37 3565.49,1853.59 3571.58,1836.14C3573.35,1831.06 3575.02,1826.26 3576.79,1821.68C3605.26,1748.06 3625.63,1690.47 3642.83,1634.95C3649.77,1612.54 3657.5,1589.34 3664.98,1566.91C3692.53,1484.24 3721.03,1398.75 3724.7,1313.69C3727.05,1259.41 3720.82,1221.52 3684.51,1196.22C3683.65,1201.5 3682.74,1206.61 3681.89,1211.37C3680.66,1218.22 3679.61,1224.14 3678.98,1228.89C3665.89,1328.86 3644.43,1425.21 3615.2,1515.27C3572.36,1647.23 3444.46,1908.83 3396.48,1973.45C3366.74,2013.52 3310.26,2052.32 3249.09,2074.71C3217.73,2086.2 3186.29,2092.87 3158.18,2094C3155.2,2094.12 3152.25,2094.18 3149.34,2094.18Z" style="fill:white;fill-rule:nonzero;"/>
            </g>
        </g>
    </g>
</svg>
