<?xml version="1.0" encoding="UTF-8" standalone="no"?>
<!DOCTYPE svg PUBLIC "-//W3C//DTD SVG 1.1//EN" "http://www.w3.org/Graphics/SVG/1.1/DTD/svg11.dtd">
<svg width="100%" height="100%" viewBox="0 0 400250 178984" version="1.1" xmlns="http://www.w3.org/2000/svg" xmlns:xlink="http://www.w3.org/1999/xlink" xml:space="preserve" xmlns:serif="http://www.serif.com/" style="fill-rule:evenodd;clip-rule:evenodd;stroke-linejoin:round;stroke-miterlimit:2;">
    <g transform="matrix(5.55556,0,0,5.55556,0,0)">
        <g transform="matrix(-30.8642,0,0,30.8642,75650.6,-13838.9)">
            <g>
                <g>
                    <path d="M2431.86,1457.66C2420.21,1458.42 2409.23,1458.76 2398.85,1458.76C2345.6,1458.76 2307.77,1449.68 2273.18,1439.67C2238.6,1429.66 2207.24,1418.68 2167.24,1415.1C2149.76,1413.53 2134.91,1412.86 2121.9,1412.86C2084.02,1412.86 2061.66,1418.56 2035.17,1424.2C2008.67,1429.83 1977.9,1435.45 1922.59,1435.46C1914.13,1435.46 1905.1,1435.33 1895.43,1435.04L1895.38,1436.79L1895.69,1438.51C1903.39,1437.11 1915.61,1433.92 1926.08,1429.1C1931.31,1426.68 1936.1,1423.86 1939.69,1420.55C1941.48,1418.9 1942.98,1417.11 1944.04,1415.17C1945.1,1413.22 1945.72,1411.1 1945.72,1408.87C1945.72,1406.72 1945.14,1404.5 1943.95,1402.29C1941.01,1396.83 1937.56,1393.33 1933.92,1390.14C1928.45,1385.34 1922.61,1381.19 1916.21,1371.35C1909.82,1361.5 1902.9,1345.91 1895.85,1318.49C1884.96,1276.08 1874.82,1248.6 1865.58,1230.17C1858.65,1216.35 1852.21,1207.62 1846.35,1201.56C1841.96,1197.02 1837.9,1193.99 1834.3,1191.49C1831.6,1189.61 1829.17,1188.02 1827.03,1186.3C1823.82,1183.72 1821.23,1180.91 1819.05,1176.18C1816.88,1171.45 1815.18,1164.75 1814.07,1154.6L1814.06,1154.46L1814.06,1154.42L1813.6,1154.34L1814,1154.57L1814.06,1154.42L1813.6,1154.34L1814,1154.57L1813.34,1154.2L1813.65,1154.9C1813.75,1154.86 1813.93,1154.71 1814,1154.57L1813.34,1154.2L1813.65,1154.9L1813.52,1154.6L1813.58,1154.92L1813.65,1154.9L1813.52,1154.6L1813.58,1154.92L1813.67,1154.92C1813.84,1154.91 1814.23,1154.97 1814.74,1155.12C1815.71,1155.4 1817.09,1156 1818.71,1156.83C1821.56,1158.28 1825.19,1160.43 1829.16,1162.82C1835.12,1166.41 1841.88,1170.57 1848.23,1173.85C1851.4,1175.49 1854.47,1176.91 1857.32,1177.94C1860.17,1178.96 1862.79,1179.61 1865.16,1179.62C1866.23,1179.62 1867.25,1179.48 1868.21,1179.15C1869.65,1178.66 1870.93,1177.66 1871.72,1176.26C1872.51,1174.86 1872.86,1173.16 1872.86,1171.14C1872.86,1170.4 1872.82,1169.62 1872.72,1168.78C1870.08,1145.64 1869.04,1125.2 1869.04,1106.93C1869.04,1072.23 1872.8,1045.36 1876.57,1022.62C1880.34,999.886 1884.15,981.252 1884.15,963.03C1884.16,948.321 1881.64,933.898 1874.62,918.035C1867.61,902.166 1856.13,884.858 1838.25,864.167C1819.76,842.781 1808.83,820.23 1802.51,799.495C1796.19,778.762 1794.49,759.847 1794.49,745.795C1794.49,737.571 1795.07,731.013 1795.64,726.747C1797.12,715.791 1805.17,706.8 1815.89,703.99C1822.74,702.195 1829.74,699.974 1838.08,694.883C1838.75,694.473 1839.07,693.657 1838.85,692.901C1838.63,692.145 1837.92,691.625 1837.14,691.639C1836.86,691.644 1836.57,691.647 1836.28,691.647C1831.79,691.648 1825.45,691.089 1818.55,690.522C1811.65,689.957 1804.17,689.387 1797.28,689.386C1790.72,689.394 1784.71,689.884 1780.09,691.513C1777.78,692.334 1775.79,693.455 1774.32,695.067C1773.59,695.872 1773,696.801 1772.61,697.835C1772.21,698.868 1772.01,699.998 1772.01,701.191C1772.01,702.822 1772.38,704.567 1773.09,706.45C1795.99,766.799 1823.58,799.333 1846.06,823.781C1857.3,836.003 1867.24,846.209 1874.68,856.822C1882.13,867.444 1887.12,878.421 1888.64,892.46C1889.66,901.993 1890.58,913.603 1892.32,925.18C1894.06,936.76 1896.6,948.311 1900.96,957.813C1901.33,958.629 1901.93,959.29 1902.63,959.71C1903.33,960.133 1904.11,960.327 1904.86,960.327C1905.9,960.324 1906.92,959.974 1907.74,959.276C1908.57,958.585 1909.16,957.494 1909.23,956.265C1909.71,948.463 1911.01,939.156 1911.24,931.437C1911.27,930.738 1911.55,930.219 1911.99,929.811C1912.42,929.408 1913.03,929.172 1913.61,929.175C1914.13,929.181 1914.61,929.339 1915.08,929.761C1916.77,931.327 1918.09,933.214 1919.13,935.369C1920.95,939.134 1921.86,943.725 1922.31,948.545C1922.99,955.781 1922.62,963.472 1923.02,969.746C1923.23,972.89 1923.61,975.689 1924.55,978.015C1925.02,979.175 1925.64,980.228 1926.49,981.089C1927.35,981.95 1928.44,982.591 1929.69,982.897C1930.64,983.135 1931.58,983.253 1932.49,983.253C1934.44,983.256 1936.25,982.703 1937.83,981.756C1940.59,980.091 1942.67,977.333 1944.34,974.1C1946.83,969.239 1948.41,963.202 1949.41,957.571C1950.41,951.937 1950.8,946.74 1950.8,943.545C1950.8,943.107 1950.79,942.706 1950.78,942.343L1950.78,942.341C1950.32,931.242 1948.63,923.372 1946.04,917.196C1944.09,912.566 1941.65,908.915 1938.94,905.633C1934.87,900.705 1930.27,896.593 1925.63,890.954C1920.98,885.314 1916.24,878.138 1911.87,867.037C1907.01,854.669 1899.11,833.473 1890.33,812.699C1885.94,802.309 1881.33,792.022 1876.76,782.975C1872.18,773.925 1867.66,766.125 1863.37,760.643C1849.75,743.252 1843.55,730.707 1839.74,719.422C1837.83,713.775 1836.52,708.424 1835.19,702.914C1833.87,697.405 1832.53,691.738 1830.55,685.513C1820.75,654.608 1812.11,634.464 1804.03,621.044C1797.98,610.982 1792.2,604.685 1786.47,600.571C1782.18,597.487 1777.93,595.653 1773.73,594.368C1767.43,592.442 1761.29,591.697 1754.94,589.729C1748.58,587.76 1741.96,584.627 1734.52,577.849C1726.65,570.668 1722.11,563.722 1718.73,556.597C1716.19,551.254 1714.32,545.796 1712.25,540.103C1709.14,531.568 1705.56,522.502 1698.54,512.754C1691.51,503.002 1681.07,492.595 1664.32,481.201C1656.69,476.016 1647.22,473.712 1637.24,473.711C1620.63,473.722 1602.48,480.069 1588.36,490.709C1581.3,496.034 1575.25,502.444 1570.94,509.72C1566.64,516.992 1564.09,525.145 1564.09,533.857C1564.09,542.09 1566.37,550.796 1571.47,559.674C1581.69,577.471 1585.9,587.333 1590.91,595.245C1593.41,599.196 1596.12,602.638 1599.8,606.191C1603.48,609.747 1608.13,613.419 1614.55,617.941C1618.38,620.634 1623.18,623.274 1628.26,625.264C1633.35,627.249 1638.73,628.592 1643.76,628.597C1647.68,628.597 1651.44,627.767 1654.56,625.656C1657.69,623.552 1660.06,620.172 1661.24,615.528C1663.85,605.41 1665.03,596.803 1665.03,589.452C1665.03,580.958 1663.45,574.127 1660.66,568.668C1660.65,568.64 1660.58,568.46 1660.54,568.163C1660.5,567.866 1660.47,567.457 1660.47,566.971C1660.47,565.959 1660.57,564.623 1660.68,563.104C1660.78,561.583 1660.89,559.872 1660.89,558.06C1660.89,554.305 1660.43,550.082 1658.41,546.19C1657.4,544.249 1656,542.404 1654.1,540.801C1652.2,539.197 1649.82,537.838 1646.88,536.812C1643.27,535.555 1640.73,534.977 1638.7,534.968C1638.04,534.968 1637.43,535.034 1636.85,535.184C1636.31,535.323 1635.81,535.54 1635.37,535.837C1634.53,536.392 1633.98,537.218 1633.68,538.013C1633.17,539.419 1633.18,540.793 1633.11,542.111C1633.07,543.097 1633.02,544.043 1632.84,544.862C1632.71,545.477 1632.52,546.014 1632.24,546.478C1631.81,547.167 1631.22,547.758 1630,548.272C1628.79,548.776 1626.94,549.138 1624.26,549.136C1621.76,549.137 1618.53,548.827 1614.45,548.093C1613.07,547.845 1611.65,547.734 1610.21,547.734C1605.92,547.737 1601.4,548.709 1596.82,550.123C1589.96,552.249 1582.94,555.39 1576.52,557.972C1573.31,559.263 1570.26,560.414 1567.47,561.232C1564.69,562.052 1562.18,562.529 1560.12,562.526C1558.82,562.526 1557.7,562.341 1556.77,561.977C1556.08,561.703 1555.48,561.334 1554.94,560.834C1554.13,560.085 1553.44,559.019 1552.92,557.447C1552.41,555.878 1552.08,553.815 1552.03,551.202C1552.02,550.706 1552.02,550.213 1552.02,549.723C1552.02,537.455 1554.86,526.519 1559.57,516.878C1566.64,502.422 1577.96,490.879 1590.29,482.41C1602.6,473.94 1615.92,468.558 1626.78,466.39C1637.5,464.247 1646.54,463.313 1654.22,463.313C1667.02,463.318 1676.04,465.887 1682.97,469.778C1688.16,472.701 1692.2,476.391 1695.76,480.428C1701.09,486.477 1705.26,493.321 1710.48,499.271C1713.09,502.243 1715.97,504.988 1719.4,507.245C1722.84,509.502 1726.82,511.259 1731.55,512.268C1743.97,514.915 1753.1,517.144 1759.97,519.199C1765.12,520.741 1769,522.184 1772.04,523.622C1776.61,525.788 1779.3,527.893 1781.81,530.467C1784.32,533.04 1786.65,536.155 1790.22,540.109C1798.35,549.117 1804.18,557.769 1807.96,565.974C1811.74,574.182 1813.48,581.935 1813.48,589.203C1813.48,598.056 1810.91,606.216 1806.13,613.673L1807.6,614.618L1809.25,615.188C1810.55,611.43 1811.17,607.846 1811.17,604.501C1811.18,597.648 1808.54,591.802 1804.06,587.773C1799.58,583.734 1793.34,581.51 1786.25,581.513C1777.49,581.515 1767.39,584.878 1757.36,592.406C1754.32,594.682 1751.43,596.286 1748.62,597.322C1745.82,598.358 1743.09,598.832 1740.33,598.833C1734.8,598.837 1729.06,596.899 1722.6,593.429C1716.14,589.965 1709.01,584.995 1700.77,579.134C1695.6,575.467 1691.18,572.908 1687.37,571.249C1683.56,569.593 1680.35,568.824 1677.61,568.821C1675.84,568.82 1674.26,569.15 1672.9,569.79C1670.86,570.747 1669.39,572.404 1668.52,574.315C1667.65,576.231 1667.29,578.402 1667.29,580.645C1667.29,583.525 1667.88,586.541 1668.85,589.353C1669.83,592.164 1671.19,594.767 1672.86,596.805C1675.44,599.951 1678.7,603.286 1681.27,606.876C1682.55,608.668 1683.66,610.515 1684.44,612.401C1685.22,614.289 1685.67,616.206 1685.67,618.193C1685.67,619.987 1685.31,621.849 1684.43,623.85C1680.22,633.483 1677.41,644.971 1675.08,656.577C1672.76,668.18 1670.91,679.903 1668.72,689.925C1668.22,692.211 1667.23,695.896 1666.04,700.295C1664.25,706.902 1662,715.147 1660.18,723.003C1659.28,726.932 1658.48,730.764 1657.91,734.259C1657.34,737.757 1656.99,740.908 1656.99,743.533C1656.99,745.007 1657.09,746.316 1657.38,747.475C1660.14,758.871 1665.07,766.068 1670.9,770.95C1675.27,774.615 1680.08,776.987 1684.78,779.047C1688.3,780.591 1691.76,781.963 1694.96,783.544C1699.76,785.921 1703.92,788.723 1707.03,793.241C1710.14,797.761 1712.28,804.118 1712.67,813.823C1712.91,819.937 1713.38,830.496 1713.38,844.426C1713.38,874.349 1711.21,919.793 1699.96,969.676C1688.72,1019.56 1668.39,1073.87 1632.14,1121.57C1631.65,1122.21 1631.66,1123.1 1632.17,1123.73C1633.05,1124.82 1634.25,1126.05 1635.72,1127.41C1640.87,1132.17 1649.43,1138.48 1658.93,1143.68C1663.68,1146.27 1668.65,1148.58 1673.56,1150.25C1678.47,1151.91 1683.31,1152.95 1687.82,1152.96C1690.64,1152.96 1693.34,1152.55 1695.82,1151.59C1699.53,1150.17 1702.69,1147.47 1704.8,1143.42C1706.92,1139.37 1708.05,1134.03 1708.05,1127.14C1708.04,1115.24 1704.69,1098.64 1696.68,1075.7C1696.44,1075.03 1695.82,1074.56 1695.12,1074.53C1694.41,1074.49 1693.74,1074.89 1693.44,1075.53C1687.7,1087.67 1680.21,1100.28 1674.12,1114.16C1668.04,1128.05 1663.37,1143.24 1663.38,1160.51C1663.37,1166.06 1663.86,1171.81 1664.92,1177.8C1667.13,1190.26 1670.14,1206.77 1672.6,1223.8C1675.05,1240.82 1676.95,1258.37 1676.95,1272.84C1676.95,1275.69 1676.88,1278.41 1676.72,1280.98C1674.93,1310.84 1676.45,1336.67 1671.27,1360.72C1668.69,1372.75 1664.46,1384.35 1657.32,1395.88C1650.18,1407.42 1640.11,1418.89 1625.8,1430.62C1624.22,1431.92 1622.37,1433.63 1620.38,1435.52C1617.4,1438.35 1614.13,1441.57 1611.22,1444.2C1609.76,1445.51 1608.4,1446.68 1607.23,1447.57C1606.07,1448.47 1605.06,1449.07 1604.55,1449.25C1603.26,1449.73 1601.81,1449.84 1600.12,1449.84C1599.24,1449.84 1598.3,1449.81 1597.3,1449.81C1594.93,1449.81 1592.22,1449.97 1589.34,1451.17C1586.61,1452.31 1584.57,1453.56 1583.13,1454.99C1582.41,1455.7 1581.84,1456.47 1581.45,1457.3C1581.06,1458.13 1580.85,1459.02 1580.85,1459.9C1580.85,1461.13 1581.24,1462.31 1581.88,1463.37C1582.99,1465.22 1584.82,1466.79 1587.13,1468.21C1590.61,1470.33 1595.27,1472.1 1600.61,1473.38C1605.94,1474.64 1611.95,1475.4 1618.09,1475.4C1622.07,1475.4 1626.11,1475.08 1630.06,1474.38C1664.22,1468.27 1693.61,1464.31 1703.76,1463.04C1706.32,1462.72 1708.51,1462.19 1710.36,1461.43C1713.14,1460.3 1715.2,1458.61 1716.48,1456.46C1717.76,1454.32 1718.23,1451.83 1718.23,1449.18C1718.23,1446.05 1717.58,1442.63 1716.65,1438.93C1715.26,1433.37 1713.2,1427.16 1711.5,1420.53C1709.81,1413.91 1708.47,1406.87 1708.47,1399.71C1708.47,1396.26 1708.78,1392.78 1709.51,1389.29C1717.35,1351.73 1724.64,1329.02 1729.99,1310.97C1735.35,1292.94 1738.81,1279.45 1738.8,1260.75C1738.8,1255.37 1738.52,1249.56 1737.92,1243.08C1736.47,1227.45 1733.54,1209.38 1733.54,1192.21C1733.54,1182.74 1734.43,1173.55 1736.91,1165.22C1738.7,1159.19 1741.17,1153.19 1743.41,1148.76C1744.54,1146.55 1745.61,1144.73 1746.47,1143.53C1746.89,1142.93 1747.27,1142.48 1747.51,1142.26L1747.66,1142.14L1747.7,1142.1L1747.63,1141.98L1747.69,1142.11L1747.7,1142.1L1747.63,1141.98L1747.69,1142.11L1747.27,1141.26L1747.27,1142.19C1747.53,1142.19 1747.66,1142.12 1747.69,1142.11L1747.27,1141.26L1747.27,1142.19L1747.27,1140.89L1746.47,1141.91C1746.68,1142.09 1747.03,1142.2 1747.27,1142.19L1747.27,1140.89L1746.47,1141.91L1747.15,1141.04L1746.18,1141.58C1746.22,1141.65 1746.3,1141.78 1746.47,1141.91L1747.15,1141.04L1746.18,1141.58L1746.63,1141.33L1746.13,1141.48L1746.18,1141.58L1746.63,1141.33L1746.13,1141.48L1746.14,1141.51C1746.16,1141.59 1746.18,1141.77 1746.18,1142.04C1746.18,1142.59 1746.09,1143.48 1745.88,1144.67C1745.68,1145.86 1745.35,1147.35 1744.89,1149.16C1743.74,1153.64 1743.19,1157.98 1743.2,1162.19C1743.19,1170.07 1745.09,1177.52 1748.35,1184.81C1753.24,1195.76 1761.17,1206.4 1770.53,1218.02C1779.89,1229.65 1790.71,1242.25 1801.45,1257.04C1822.03,1285.37 1838.88,1308.8 1850.54,1328.63C1856.37,1338.54 1860.9,1347.55 1863.96,1355.8C1867.02,1364.05 1868.61,1371.54 1868.61,1378.42C1868.61,1384.93 1867.2,1390.92 1864.23,1396.64C1861.92,1401.06 1859.58,1405.43 1853.94,1410.15C1848.29,1414.86 1839.24,1419.9 1823.6,1425.11C1820.94,1426 1818.99,1426.97 1817.59,1428.12C1816.89,1428.69 1816.32,1429.33 1815.92,1430.04C1815.52,1430.76 1815.3,1431.56 1815.31,1432.35C1815.31,1433.5 1815.74,1434.56 1816.36,1435.45C1817.46,1437.03 1819.14,1438.3 1821.15,1439.48C1824.17,1441.24 1827.98,1442.72 1831.75,1443.79C1835.52,1444.86 1839.22,1445.52 1842.11,1445.55L1842.32,1445.55C1846.52,1445.55 1850.19,1444.41 1853.39,1442.72C1858.19,1440.18 1862.01,1436.44 1865.5,1433.29C1867.24,1431.7 1868.89,1430.27 1870.48,1429.18C1872.08,1428.08 1873.6,1427.35 1875.09,1427.07C1883.78,1425.44 1890.79,1424.38 1896.42,1423.56C1900.65,1422.94 1904.11,1422.45 1906.96,1421.95C1909.09,1421.58 1910.88,1421.2 1912.41,1420.73C1913.56,1420.37 1914.56,1419.97 1915.45,1419.46C1916.77,1418.71 1917.83,1417.64 1918.46,1416.31C1919.08,1414.99 1919.29,1413.51 1919.29,1411.86C1919.29,1408.7 1918.55,1404.72 1917.65,1399.06C1914.39,1378.8 1905.98,1358.84 1894.65,1339.34C1877.65,1310.08 1854.08,1281.82 1831.23,1255.1C1808.38,1228.39 1786.26,1203.22 1772.2,1180.36C1768.98,1175.14 1766.71,1170.91 1765.26,1167.54C1763.81,1164.16 1763.21,1161.63 1763.21,1159.88C1763.21,1158.79 1763.42,1158.01 1763.76,1157.37C1764.07,1156.82 1764.49,1156.35 1765.09,1155.9C1766.14,1155.11 1767.78,1154.46 1769.91,1153.94C1773.1,1153.15 1777.31,1152.62 1782.08,1151.81C1786.86,1151.01 1792.22,1149.91 1797.78,1147.93C1798.5,1147.67 1798.97,1146.98 1798.94,1146.22C1798.92,1145.46 1798.4,1144.8 1797.67,1144.6C1789.51,1142.28 1780.01,1140.13 1770.34,1137.52C1755.83,1133.61 1740.97,1128.63 1729.91,1120.69C1724.37,1116.72 1719.78,1112.03 1716.57,1106.37C1713.36,1100.71 1711.5,1094.07 1711.5,1086.06C1711.5,1080.25 1712.48,1073.72 1714.68,1066.37C1722.99,1038.45 1726.25,1008.1 1726.25,978.785C1726.25,941.375 1720.95,905.651 1713.99,878.8C1710.51,865.371 1706.62,854.167 1702.73,846.029C1700.78,841.958 1698.83,838.653 1696.88,836.187C1695.91,834.954 1694.93,833.928 1693.92,833.124C1692.91,832.322 1691.85,831.731 1690.71,831.448C1690.12,831.303 1689.5,831.474 1689.07,831.901C1688.63,832.328 1688.45,832.948 1688.59,833.541C1688.66,833.864 1688.7,834.185 1688.7,834.515C1688.7,835.582 1688.31,836.79 1687.45,838.146C1685.96,840.518 1683.04,843.194 1679.29,845.874C1673.67,849.91 1666.19,854.017 1658.81,857.939C1651.42,861.868 1644.12,865.61 1638.74,869.039C1630,874.613 1618.79,878.997 1607.36,883.07C1595.93,887.148 1584.29,890.921 1574.61,895.416C1569.27,897.899 1565.27,900.609 1562.05,903.453C1557.22,907.723 1554.17,912.239 1550.79,916.63C1547.41,921.032 1543.71,925.355 1537.47,929.614L1538.46,931.06L1537.84,929.421C1533.75,930.958 1528.73,933.02 1524.85,934.77C1524.68,934.842 1524.56,934.863 1524.44,934.864C1524.21,934.865 1523.97,934.764 1523.78,934.57C1523.58,934.376 1523.48,934.126 1523.48,933.901C1523.48,933.764 1523.51,933.624 1523.61,933.438C1525.27,930.467 1527.54,927.24 1529.44,924.138C1530.38,922.583 1531.24,921.057 1531.88,919.563C1532.52,918.068 1532.96,916.6 1532.97,915.1C1532.97,914.279 1532.82,913.443 1532.47,912.66C1532.13,911.876 1531.58,911.165 1530.88,910.592C1530.69,910.437 1530.47,910.325 1530.24,910.259C1527.49,909.489 1524.94,909.129 1522.59,909.129C1519.37,909.127 1516.52,909.806 1514.1,911.003C1510.45,912.798 1507.78,915.733 1506.06,919.084C1504.34,922.44 1503.52,926.22 1503.52,929.88C1503.52,932.194 1503.85,934.463 1504.5,936.557C1504.58,936.806 1504.61,937.034 1504.61,937.252C1504.61,937.867 1504.35,938.44 1503.88,938.889C1503.42,939.335 1502.79,939.599 1502.2,939.596C1501.8,939.593 1501.41,939.494 1500.99,939.223C1499.12,937.996 1497.84,936.433 1496.99,934.543C1496.13,932.656 1495.72,930.426 1495.72,927.962C1495.72,924.651 1496.47,920.936 1497.77,917.209C1499.72,911.616 1502.9,905.996 1506.47,901.567C1508.26,899.352 1510.14,897.435 1511.98,895.964C1513.82,894.49 1515.62,893.473 1517.2,893.004C1523.13,891.229 1527.65,890.758 1532.17,890.138C1536.69,889.521 1541.22,888.736 1546.73,886.307C1567.95,876.987 1581.4,867.376 1596.64,854.627C1611.89,841.875 1628.98,825.979 1657.78,803.788L1656.71,802.402L1655.32,803.469C1657.26,805.997 1658.08,808.562 1658.09,811.334C1658.09,814.268 1657.11,817.473 1655.26,820.86C1652.03,826.788 1646.15,833.179 1638.92,839.448C1628.07,848.865 1614.24,858.052 1601.87,865.626C1595.68,869.415 1589.86,872.803 1584.95,875.628C1580.05,878.454 1576.06,880.71 1573.5,882.263C1568.5,885.298 1561.94,887.652 1554.91,889.79C1544.36,893.01 1532.8,895.746 1523.69,900.058C1519.14,902.222 1515.16,904.79 1512.27,908.13C1510.82,909.799 1509.66,911.665 1508.86,913.74C1508.06,915.815 1507.63,918.092 1507.63,920.557C1507.63,924.696 1508.82,929.343 1511.34,934.649C1515.72,943.87 1520.55,955.478 1524.28,967.993C1528.01,980.507 1530.63,993.928 1530.63,1006.75C1530.63,1017.98 1528.62,1028.73 1523.67,1038.09C1522.27,1040.73 1520.98,1042.37 1519.87,1043.29C1519.32,1043.75 1518.82,1044.04 1518.34,1044.22C1517.86,1044.4 1517.4,1044.48 1516.9,1044.48C1515.98,1044.48 1514.88,1044.18 1513.6,1043.63C1511.69,1042.82 1509.44,1041.48 1506.79,1040.32C1504.15,1039.15 1501.07,1038.17 1497.49,1038.17C1494.78,1038.17 1491.8,1038.74 1488.57,1040.14L1489.27,1041.74L1490.85,1041C1487.76,1034.46 1485.47,1029.06 1483.95,1024.5C1482.44,1019.94 1481.72,1016.24 1481.72,1013.11C1481.72,1010.61 1482.17,1008.47 1483.05,1006.43C1484.37,1003.38 1486.75,1000.5 1490.32,997.303C1493.89,994.112 1498.62,990.638 1504.48,986.4C1505.23,985.859 1505.43,984.831 1504.94,984.05C1504.44,983.268 1503.43,983.004 1502.62,983.446C1500.91,984.375 1499.02,984.743 1496.87,984.745C1494.01,984.749 1490.73,984.059 1487.23,983.267C1483.73,982.48 1480,981.601 1476.14,981.345C1475.21,981.284 1474.29,981.26 1473.39,981.26C1469.88,981.263 1466.53,981.608 1463.64,981.605C1461.16,981.61 1459.06,981.344 1457.5,980.59C1456.72,980.212 1456.05,979.725 1455.45,979.046C1454.86,978.367 1454.33,977.484 1453.9,976.289C1452.75,973.129 1452.28,969.74 1452.28,966.14C1452.27,958.761 1454.3,950.526 1456.38,941.988C1458.45,933.446 1460.57,924.593 1460.58,915.825C1460.58,911.543 1460.07,907.277 1458.77,903.107C1457.34,898.485 1454.97,894.375 1451.97,890.785C1447.47,885.399 1441.58,881.17 1435.25,878.002C1428.91,874.836 1422.13,872.729 1415.77,871.629C1411.86,870.951 1407.9,870.631 1403.95,870.631C1386.24,870.638 1368.6,877.032 1355.29,886.892C1348.63,891.826 1343.05,897.635 1339.12,903.999C1335.18,910.359 1332.89,917.294 1332.89,924.405C1332.88,929.117 1333.9,933.893 1336.07,938.571C1338.24,943.25 1341.57,947.828 1346.16,952.194C1346.65,952.659 1347.35,952.802 1347.99,952.562C1348.62,952.322 1349.05,951.744 1349.11,951.071C1349.95,940.82 1351.71,931.597 1354.79,925.154C1356.33,921.929 1358.18,919.419 1360.34,917.745C1362.5,916.074 1364.95,915.177 1368,915.168C1371.91,915.161 1376.89,916.742 1383,920.543C1389.11,924.336 1396.33,930.316 1404.77,938.908C1405.05,939.193 1405.38,939.445 1405.77,939.619C1406.16,939.793 1406.59,939.88 1407,939.878C1407.79,939.873 1408.44,939.595 1408.98,939.274C1409.94,938.696 1410.75,937.904 1411.62,937.009C1412.92,935.668 1414.32,934.082 1415.85,932.739C1417.37,931.392 1419,930.328 1420.64,929.918C1421.42,929.718 1422.19,929.623 1422.94,929.623C1425.35,929.632 1427.48,930.601 1429.12,932.517C1430.75,934.437 1431.87,937.375 1431.87,941.355C1431.87,943.479 1431.55,945.892 1430.82,948.571C1428.88,955.608 1428.05,962.197 1428.05,968.313C1428.05,986.676 1435.56,1000.7 1443.03,1010.06C1450.5,1019.44 1457.94,1024.23 1458.05,1024.3C1458.68,1024.7 1459.49,1024.66 1460.08,1024.19C1460.67,1023.73 1460.89,1022.94 1460.64,1022.24L1460.63,1022.21C1460.53,1021.93 1459.57,1019.15 1458.64,1015.13C1457.71,1011.12 1456.81,1005.87 1456.81,1000.68C1456.81,997.728 1457.1,994.805 1457.81,992.149C1458.51,989.489 1459.63,987.108 1461.28,985.166C1474.71,969.262 1480.9,949.336 1480.9,930.264C1480.9,913.016 1475.85,896.427 1466.36,884.053C1461.61,877.869 1455.75,872.745 1448.86,869.171C1441.98,865.597 1434.08,863.583 1425.32,863.585C1411.37,863.586 1395.3,868.672 1377.48,880.468C1368.16,886.634 1361.64,893.819 1357.48,901.58C1353.31,909.339 1351.51,917.651 1351.51,926.017C1351.52,937.739 1355.02,949.572 1360.45,960.434C1365.89,971.297 1373.27,981.198 1381.13,989.058C1384.69,992.621 1387.75,995.262 1390.58,997.061C1393.4,998.853 1396.06,999.822 1398.71,999.822C1400.69,999.825 1402.6,999.27 1404.41,998.287C1407.14,996.809 1409.72,994.421 1412.6,991.262C1415.49,988.1 1418.68,984.145 1422.51,979.469L1421.15,978.361L1419.41,978.495C1419.56,980.456 1419.63,982.249 1419.63,983.887C1419.63,988.521 1419.04,991.905 1417.98,994.438C1417.19,996.342 1416.15,997.788 1414.82,999.028C1412.82,1000.88 1410.09,1002.27 1406.6,1003.6C1403.12,1004.93 1398.9,1006.21 1394.07,1007.93C1385.34,1011.05 1379.17,1014.56 1374.65,1018.6C1371.27,1021.63 1368.83,1024.96 1366.99,1028.54C1364.23,1033.92 1362.75,1039.84 1361.1,1046.43C1359.45,1053.02 1357.62,1060.3 1354.26,1068.51C1351.07,1076.28 1348.43,1081.03 1345.06,1085.19C1341.69,1089.35 1337.48,1093 1331.14,1098.4C1326.79,1102.09 1321.34,1107.63 1315.47,1112.61C1312.54,1115.09 1309.51,1117.43 1306.51,1119.31C1303.51,1121.19 1300.54,1122.61 1297.75,1123.29C1296.94,1123.49 1296.04,1123.59 1295.05,1123.59C1293.16,1123.59 1290.98,1123.23 1288.67,1122.67C1285.19,1121.83 1281.42,1120.53 1277.74,1119.42C1274.06,1118.32 1270.48,1117.4 1267.19,1117.39C1266.36,1117.39 1265.54,1117.45 1264.75,1117.6C1264.16,1117.71 1263.6,1117.87 1263.05,1118.3C1262.78,1118.51 1262.52,1118.8 1262.35,1119.15C1262.18,1119.5 1262.1,1119.89 1262.11,1120.23C1262.11,1120.64 1262.2,1120.98 1262.31,1121.27C1262.53,1121.83 1262.83,1122.25 1263.16,1122.66C1263.74,1123.38 1264.47,1124.06 1265.25,1124.75C1266.42,1125.79 1267.71,1126.85 1268.65,1127.74C1269.12,1128.18 1269.5,1128.59 1269.71,1128.87C1269.81,1129.01 1269.87,1129.11 1269.89,1129.14L1269.89,1129.15L1270.18,1129.03L1269.87,1129.1L1269.89,1129.15L1270.18,1129.03L1269.87,1129.1L1270.66,1128.92L1269.85,1128.92L1269.87,1129.1L1270.66,1128.92L1269.85,1128.92L1270.94,1128.92L1269.94,1128.5C1269.88,1128.65 1269.85,1128.8 1269.85,1128.92L1270.94,1128.92L1269.94,1128.5L1270.86,1128.88L1270.29,1128.05C1270.21,1128.1 1270.03,1128.27 1269.94,1128.5L1270.86,1128.88L1270.29,1128.05L1270.51,1128.37L1270.36,1128.01L1270.29,1128.05L1270.51,1128.37L1270.36,1128.01L1270.29,1128.03C1269.22,1128.32 1267.86,1128.44 1266.37,1128.43C1264.59,1128.43 1262.61,1128.27 1260.64,1128.1C1258.67,1127.92 1256.71,1127.75 1254.89,1127.74C1253.75,1127.75 1252.66,1127.81 1251.63,1128.03C1250.61,1128.26 1249.62,1128.63 1248.78,1129.34C1247.11,1130.78 1245.64,1132.76 1244.55,1134.92C1243.46,1137.08 1242.73,1139.43 1242.72,1141.7C1242.72,1143.12 1243.02,1144.56 1243.83,1145.79C1244.62,1147.03 1245.94,1147.98 1247.55,1148.43C1248.53,1148.71 1249.17,1148.98 1249.56,1149.2C1249.9,1149.39 1250.05,1149.53 1250.16,1149.65C1250.26,1149.76 1250.34,1149.87 1250.45,1150.08C1250.64,1150.43 1250.92,1151.09 1251.51,1151.82C1251.95,1152.36 1252.54,1152.91 1253.34,1153.45C1255.76,1155.05 1260.04,1156.69 1269.4,1158.86C1271.26,1159.29 1273,1159.5 1274.65,1159.5C1278.72,1159.5 1282.18,1158.25 1285.74,1156.51C1289.31,1154.76 1293.06,1152.51 1297.96,1150.23C1304.52,1147.18 1312.41,1144.25 1319.79,1141.55C1327.17,1138.85 1334.03,1136.38 1338.66,1134.14C1351.99,1127.69 1360.8,1122.1 1366.4,1116.94C1369.19,1114.35 1371.18,1111.87 1372.49,1109.41C1373.8,1106.95 1374.41,1104.51 1374.4,1102.16C1374.4,1098.65 1373.1,1095.43 1371.23,1092.4C1368.42,1087.86 1364.3,1083.61 1360.58,1079.12C1356.84,1074.63 1353.54,1069.95 1352.2,1064.77L1350.5,1065.21L1349.86,1066.84C1364.16,1072.48 1373.97,1079.19 1380.16,1086.78C1386.35,1094.37 1389.04,1102.84 1389.05,1112.42C1389.06,1120.98 1386.86,1130.41 1382.93,1140.62C1377.05,1155.94 1367.32,1172.97 1355.62,1191.41C1343.92,1209.86 1330.27,1229.73 1316.57,1250.81C1316.13,1251.48 1316.21,1252.38 1316.77,1252.97C1318.55,1254.84 1320.63,1256.16 1322.95,1256.97C1325.28,1257.79 1327.83,1258.12 1330.63,1258.12C1334.8,1258.11 1339.53,1257.4 1345.08,1256.36C1361.69,1253.23 1385.66,1247.05 1421.63,1247.05C1436.08,1247.05 1452.46,1248.05 1471.05,1250.65L1471.21,1250.67C1476.48,1250.91 1481.18,1250.85 1485.66,1250.88C1492.39,1250.92 1498.62,1251.17 1505.7,1252.86C1512.79,1254.55 1520.77,1257.71 1530.95,1263.68C1531.04,1263.73 1531.12,1263.76 1531.21,1263.8C1532.92,1264.45 1534.51,1264.79 1536,1264.79C1537.77,1264.79 1539.41,1264.29 1540.74,1263.33C1541.74,1262.62 1542.55,1261.69 1543.21,1260.61C1544.2,1258.99 1544.84,1257.04 1545.26,1254.83C1545.68,1252.62 1545.86,1250.14 1545.86,1247.45C1545.86,1240.31 1544.56,1231.62 1542.5,1222.62C1540.44,1213.62 1537.61,1204.33 1534.5,1196.06C1527.43,1177.26 1516.18,1161.02 1506.79,1141.7C1497.4,1122.37 1489.78,1099.98 1489.77,1068.69C1489.77,1065.21 1489.87,1061.63 1490.07,1057.92L1488.32,1057.83L1486.57,1057.77C1485.85,1081.41 1484.45,1109.35 1481.69,1137.26C1478.93,1165.17 1474.8,1193.06 1468.64,1216.56C1464.03,1234.14 1458.57,1248.01 1454.23,1260.08C1449.9,1272.13 1446.64,1282.42 1446.63,1292.81C1446.63,1294.32 1446.7,1295.82 1446.84,1297.34C1448.19,1311.26 1453.35,1324.24 1458.09,1337.2C1462.84,1350.16 1467.17,1363.06 1467.17,1376.78C1467.17,1379.71 1466.97,1382.68 1466.54,1385.71C1465.96,1389.77 1465.71,1393.52 1465.71,1397.06C1465.7,1403.83 1466.64,1409.79 1467.93,1415.64C1469.23,1421.48 1470.88,1427.21 1472.36,1433.58C1472.54,1434.37 1472.63,1435.16 1472.63,1435.94C1472.63,1440.36 1469.8,1444.42 1465.41,1445.8C1461.41,1447.07 1457.51,1447.45 1453.37,1447.45C1447.45,1447.45 1441.03,1446.65 1433.39,1446.64C1425.83,1446.64 1417.08,1447.45 1406.46,1450.64C1405.63,1450.89 1404.96,1450.98 1404.46,1450.98C1404.05,1450.98 1403.76,1450.92 1403.56,1450.84C1403.27,1450.72 1403.15,1450.61 1403.02,1450.38C1402.89,1450.16 1402.78,1449.78 1402.78,1449.23C1402.77,1448.18 1403.21,1446.61 1404.12,1445.01C1405.03,1443.41 1406.38,1441.78 1408.05,1440.44C1411.29,1437.85 1414.73,1435.82 1418.12,1433.91C1423.19,1431.04 1428.18,1428.47 1432.02,1424.49C1433.93,1422.5 1435.54,1420.15 1436.64,1417.31C1437.74,1414.46 1438.34,1411.13 1438.34,1407.19C1438.34,1405.57 1438.24,1403.83 1438.03,1401.98C1437.41,1396.56 1435.93,1390.19 1433.93,1383.24C1430.94,1372.82 1426.79,1361.1 1422.66,1349.49C1418.52,1337.89 1414.4,1326.41 1411.48,1316.54C1409.27,1309.08 1407.28,1302.83 1405.87,1297.25C1404.45,1291.66 1403.6,1286.74 1403.6,1281.88C1403.6,1276.19 1404.74,1270.53 1407.62,1263.8L1406.02,1263.11L1406.36,1264.83C1407.43,1264.61 1408.99,1264.49 1410.83,1264.49C1416.63,1264.49 1425.3,1265.6 1433.39,1267.14C1437.43,1267.91 1441.35,1268.79 1444.7,1269.68C1448.05,1270.57 1450.85,1271.49 1452.6,1272.28C1455.51,1273.59 1458.02,1275.98 1460.2,1279.36C1464.03,1285.26 1466.69,1294.12 1468.59,1304.34C1471.45,1319.69 1472.64,1338.09 1474.18,1354.55C1474.95,1362.79 1475.8,1370.54 1477.01,1377.23C1478.23,1383.91 1479.77,1389.52 1482.07,1393.58C1484.88,1398.51 1488.16,1403.29 1490.69,1407.87C1491.96,1410.15 1493.04,1412.39 1493.79,1414.54C1494.55,1416.7 1494.97,1418.77 1494.97,1420.75C1494.97,1422.68 1494.58,1424.53 1493.66,1426.39C1492.74,1428.26 1491.28,1430.15 1489.06,1432.07C1487.94,1433.05 1486.92,1433.68 1485.99,1434.07C1485.06,1434.46 1484.22,1434.61 1483.36,1434.61C1481.93,1434.62 1480.39,1434.15 1478.61,1433.34C1475.95,1432.13 1472.85,1430.17 1468.99,1428.49C1465.13,1426.81 1460.48,1425.44 1454.72,1425.44C1448.27,1425.44 1440.48,1427.14 1430.8,1431.82C1427.6,1433.36 1422.86,1434.83 1417.01,1436.11C1399.46,1439.98 1372.01,1442.25 1344.45,1442.25C1320.84,1442.25 1297.1,1440.58 1279.41,1436.88C1270.57,1435.04 1263.24,1432.68 1258.28,1429.87C1255.8,1428.48 1253.92,1426.97 1252.72,1425.45C1251.52,1423.92 1250.96,1422.44 1250.95,1420.8C1250.95,1419.21 1251.51,1417.38 1252.89,1415.27C1254.26,1413.16 1256.45,1410.8 1259.55,1408.26C1264.68,1404.04 1268.45,1400.19 1271,1396.58C1272.27,1394.78 1273.23,1393.04 1273.88,1391.34C1274.53,1389.64 1274.87,1387.97 1274.87,1386.36C1274.87,1384.21 1274.26,1382.18 1273.12,1380.39C1271.11,1377.25 1267.65,1374.84 1263.05,1372.87C1256.16,1369.91 1246.58,1367.91 1234.8,1366.61C1223.02,1365.32 1209.06,1364.75 1193.5,1364.75C1131.45,1364.75 1043.9,1373.88 969.68,1383.41C854.856,1398.16 738.271,1405.91 637.185,1405.91C551.955,1405.91 477.727,1400.39 424.956,1388.97C398.576,1383.27 377.562,1376.07 363.305,1367.46C356.174,1363.16 350.744,1358.52 347.135,1353.61C343.525,1348.69 341.707,1343.54 341.701,1337.98C341.702,1333.07 343.133,1327.81 346.208,1322.13C350.815,1313.62 359.137,1304.23 371.581,1294.08C384.023,1283.93 400.574,1273 421.591,1261.33C427.135,1258.25 431.236,1255.33 434.038,1252.49C435.437,1251.07 436.514,1249.66 437.259,1248.22C438.003,1246.79 438.41,1245.32 438.409,1243.86C438.416,1241.88 437.65,1240.01 436.35,1238.42C435.211,1237.03 433.677,1235.8 431.794,1234.68C428.498,1232.72 424.11,1231.07 418.69,1229.65C410.564,1227.53 400.116,1225.93 387.7,1224.86C375.285,1223.78 360.907,1223.24 344.958,1223.24C292.231,1223.24 222.332,1229.21 149.876,1241.99C148.924,1242.16 148.289,1243.07 148.457,1244.02C148.625,1244.97 149.533,1245.61 150.484,1245.44C222.74,1232.69 292.489,1226.73 344.958,1226.74C372.588,1226.73 395.439,1228.39 411.245,1231.54C419.142,1233.11 425.28,1235.07 429.281,1237.27C431.282,1238.37 432.735,1239.52 433.634,1240.63C434.535,1241.75 434.903,1242.77 434.91,1243.86C434.909,1244.67 434.689,1245.57 434.152,1246.61C433.352,1248.16 431.815,1249.98 429.45,1251.95C427.088,1253.92 423.912,1256.04 419.891,1258.27C391.698,1273.94 371.387,1288.29 358.036,1301.48C351.361,1308.08 346.422,1314.39 343.131,1320.46C339.842,1326.53 338.201,1332.38 338.201,1337.98C338.195,1344.32 340.334,1350.28 344.315,1355.68C347.798,1360.42 352.672,1364.76 358.796,1368.76C369.514,1375.77 384.078,1381.76 401.956,1386.86C428.772,1394.51 463.052,1400.14 502.9,1403.86C542.746,1407.59 588.155,1409.41 637.185,1409.41C738.448,1409.41 855.158,1401.65 970.126,1386.88C1044.27,1377.36 1131.77,1368.24 1193.5,1368.25C1217.07,1368.24 1236.9,1369.58 1250.66,1372.68C1257.53,1374.22 1262.88,1376.22 1266.35,1378.57C1268.09,1379.74 1269.35,1380.99 1270.16,1382.27C1270.97,1383.55 1271.37,1384.87 1271.37,1386.36C1271.37,1387.48 1271.14,1388.71 1270.61,1390.08C1269.83,1392.14 1268.38,1394.48 1266.19,1397.07C1263.99,1399.66 1261.05,1402.49 1257.33,1405.55C1254.04,1408.26 1251.6,1410.83 1249.96,1413.35C1248.32,1415.87 1247.45,1418.37 1247.45,1420.8C1247.45,1423.3 1248.38,1425.63 1249.98,1427.63C1251.38,1429.39 1253.27,1430.93 1255.55,1432.33C1259.56,1434.78 1264.81,1436.79 1271.04,1438.49C1280.37,1441.03 1291.88,1442.83 1304.49,1444.02C1317.1,1445.2 1330.8,1445.75 1344.45,1445.75C1362.96,1445.75 1381.38,1444.74 1396.93,1442.9C1404.71,1441.98 1411.76,1440.85 1417.76,1439.53C1423.77,1438.21 1428.7,1436.71 1432.32,1434.97C1441.65,1430.47 1448.9,1428.94 1454.72,1428.94C1461.66,1428.95 1466.66,1431.09 1471,1433.33C1473.17,1434.45 1475.17,1435.61 1477.16,1436.52C1479.15,1437.43 1481.17,1438.11 1483.36,1438.11C1484.66,1438.12 1486.01,1437.86 1487.34,1437.3C1488.68,1436.74 1490.01,1435.88 1491.36,1434.72C1493.85,1432.55 1495.64,1430.29 1496.8,1427.94C1497.96,1425.59 1498.47,1423.16 1498.47,1420.75C1498.47,1418.27 1497.94,1415.81 1497.1,1413.39C1495.82,1409.75 1493.84,1406.17 1491.67,1402.58C1489.5,1399 1487.14,1395.42 1485.11,1391.85C1483.62,1389.25 1482.37,1385.53 1481.35,1381.04C1479.56,1373.16 1478.45,1362.92 1477.45,1351.87C1475.94,1335.28 1474.69,1316.86 1471.6,1301.48C1470.06,1293.79 1468.06,1286.85 1465.28,1281.24C1463.89,1278.43 1462.29,1275.95 1460.44,1273.89C1458.58,1271.82 1456.46,1270.17 1454.04,1269.08C1451.97,1268.16 1449.06,1267.22 1445.6,1266.3C1440.42,1264.92 1434.04,1263.6 1427.81,1262.62C1421.57,1261.64 1415.49,1260.99 1410.83,1260.99C1408.84,1260.99 1407.11,1261.11 1405.67,1261.4C1405.11,1261.51 1404.63,1261.9 1404.41,1262.42C1401.37,1269.49 1400.09,1275.71 1400.1,1281.88C1400.1,1287.16 1401.02,1292.38 1402.47,1298.11C1403.93,1303.84 1405.92,1310.11 1408.12,1317.53C1412.08,1330.89 1418.11,1346.92 1423.45,1362.23C1426.11,1369.89 1428.6,1377.36 1430.57,1384.21C1432.54,1391.05 1433.98,1397.27 1434.55,1402.37C1434.74,1404.11 1434.84,1405.71 1434.84,1407.19C1434.83,1411.99 1433.88,1415.48 1432.32,1418.29C1431.14,1420.39 1429.6,1422.13 1427.75,1423.7C1424.97,1426.06 1421.47,1428.02 1417.68,1430.15C1413.88,1432.28 1409.79,1434.57 1405.87,1437.7C1403.83,1439.34 1402.21,1441.3 1401.08,1443.29C1399.95,1445.29 1399.29,1447.31 1399.28,1449.23C1399.28,1449.89 1399.36,1450.55 1399.57,1451.18C1399.86,1452.12 1400.47,1453.02 1401.35,1453.61C1402.23,1454.21 1403.31,1454.49 1404.46,1454.48C1405.39,1454.48 1406.38,1454.31 1407.46,1453.99C1417.74,1450.91 1426.08,1450.15 1433.39,1450.14C1440.78,1450.14 1447.14,1450.94 1453.37,1450.95C1457.72,1450.95 1462.03,1450.54 1466.47,1449.14C1472.33,1447.28 1476.13,1441.86 1476.13,1435.94C1476.13,1434.9 1476.01,1433.84 1475.77,1432.79C1474.26,1426.31 1472.61,1420.58 1471.35,1414.88C1470.09,1409.18 1469.21,1403.5 1469.21,1397.06C1469.21,1393.69 1469.45,1390.11 1470,1386.2C1470.46,1383.01 1470.67,1379.87 1470.67,1376.78C1470.66,1362.31 1466.13,1349 1461.37,1335.99C1456.6,1322.99 1451.59,1310.26 1450.33,1297C1450.19,1295.6 1450.13,1294.21 1450.13,1292.81C1450.12,1283.18 1453.2,1273.26 1457.52,1261.26C1461.84,1249.27 1467.36,1235.25 1472.02,1217.45C1478.26,1193.66 1482.4,1165.63 1485.17,1137.6C1487.95,1109.58 1489.34,1081.57 1490.07,1057.88C1490.1,1056.92 1489.35,1056.12 1488.39,1056.08C1487.43,1056.04 1486.62,1056.77 1486.57,1057.73C1486.37,1061.5 1486.27,1065.15 1486.27,1068.69C1486.27,1100.55 1494.1,1123.62 1503.65,1143.23C1513.2,1162.84 1524.37,1179.02 1531.23,1197.29C1534.27,1205.4 1537.07,1214.57 1539.09,1223.4C1541.12,1232.22 1542.37,1240.73 1542.36,1247.45C1542.37,1251.95 1541.78,1255.65 1540.66,1257.98C1540.1,1259.15 1539.44,1259.96 1538.71,1260.48C1537.97,1261 1537.14,1261.28 1536,1261.29C1535.04,1261.29 1533.86,1261.06 1532.46,1260.53L1531.84,1262.17L1532.72,1260.66C1518.87,1252.53 1508.65,1249.34 1499.31,1248.13C1494.64,1247.53 1490.22,1247.41 1485.68,1247.38C1481.15,1247.35 1476.51,1247.41 1471.37,1247.17L1471.29,1248.92L1471.53,1247.19C1452.78,1244.56 1436.24,1243.55 1421.63,1243.55C1397.39,1243.55 1378.47,1246.33 1363.67,1249.11C1356.27,1250.5 1349.9,1251.89 1344.43,1252.92C1338.96,1253.95 1334.39,1254.62 1330.63,1254.62C1328.1,1254.62 1325.96,1254.32 1324.12,1253.67C1322.27,1253.02 1320.72,1252.04 1319.3,1250.55L1318.04,1251.76L1319.5,1252.71C1337.73,1224.68 1355.93,1198.7 1369.62,1175.21C1376.46,1163.47 1382.18,1152.35 1386.2,1141.88C1390.22,1131.41 1392.55,1121.58 1392.55,1112.42C1392.57,1102.18 1389.59,1092.76 1382.87,1084.56C1376.16,1076.36 1365.81,1069.37 1351.15,1063.59C1350.53,1063.34 1349.84,1063.47 1349.34,1063.9C1348.85,1064.34 1348.64,1065.02 1348.81,1065.66C1349.86,1069.67 1351.85,1073.26 1354.18,1076.57C1357.68,1081.53 1361.98,1085.91 1365.3,1090.11C1366.97,1092.21 1368.39,1094.26 1369.37,1096.26C1370.36,1098.26 1370.9,1100.19 1370.9,1102.16C1370.9,1103.92 1370.47,1105.75 1369.4,1107.76C1367.8,1110.79 1364.7,1114.23 1359.49,1118.08C1354.29,1121.94 1347.01,1126.22 1337.14,1130.99C1332.8,1133.09 1325.97,1135.56 1318.58,1138.27C1311.2,1140.97 1303.24,1143.92 1296.49,1147.06C1291.41,1149.42 1287.57,1151.72 1284.21,1153.36C1280.83,1155.01 1277.99,1155.99 1274.65,1156C1273.28,1156 1271.82,1155.83 1270.18,1155.45C1264.09,1154.05 1260.26,1152.85 1257.89,1151.86C1256.1,1151.12 1255.15,1150.5 1254.65,1150.05C1254.26,1149.7 1254.1,1149.46 1253.92,1149.16C1253.79,1148.93 1253.66,1148.64 1253.45,1148.27C1253.14,1147.72 1252.61,1147 1251.8,1146.47C1250.99,1145.92 1249.97,1145.49 1248.51,1145.07C1247.57,1144.79 1247.1,1144.39 1246.76,1143.88C1246.42,1143.37 1246.22,1142.64 1246.22,1141.7C1246.21,1140.22 1246.76,1138.29 1247.67,1136.5C1248.57,1134.71 1249.83,1133.05 1251.06,1132C1251.28,1131.81 1251.7,1131.6 1252.37,1131.46C1253.03,1131.31 1253.9,1131.24 1254.89,1131.24C1256.47,1131.24 1258.36,1131.41 1260.33,1131.58C1262.31,1131.75 1264.38,1131.93 1266.37,1131.93C1268.04,1131.93 1269.67,1131.81 1271.18,1131.42C1271.66,1131.28 1272.16,1131.09 1272.61,1130.66C1272.84,1130.44 1273.04,1130.16 1273.17,1129.85C1273.3,1129.54 1273.35,1129.21 1273.35,1128.92C1273.35,1128.51 1273.26,1128.16 1273.15,1127.87C1272.93,1127.32 1272.63,1126.91 1272.3,1126.5C1271.71,1125.79 1270.99,1125.12 1270.21,1124.42C1269.04,1123.39 1267.75,1122.34 1266.81,1121.44C1266.34,1120.99 1265.96,1120.58 1265.76,1120.3C1265.65,1120.16 1265.59,1120.05 1265.58,1120.02L1264.98,1120.23L1265.61,1120.23C1265.61,1120.09 1265.58,1120.03 1265.58,1120.02L1264.98,1120.23L1265.61,1120.23L1264.55,1120.23L1265.49,1120.7C1265.58,1120.54 1265.61,1120.35 1265.61,1120.23L1264.55,1120.23L1265.49,1120.7L1264.72,1120.32L1265.15,1121.09C1265.19,1121.08 1265.37,1120.95 1265.49,1120.7L1264.72,1120.32L1265.15,1121.09L1265.08,1120.98L1265.13,1121.1L1265.15,1121.09L1265.08,1120.98L1265.13,1121.1C1265.15,1121.09 1265.23,1121.06 1265.37,1121.04C1265.92,1120.94 1266.53,1120.89 1267.19,1120.89C1268.92,1120.89 1271,1121.24 1273.25,1121.81C1276.63,1122.65 1280.38,1123.95 1284.11,1125.06C1287.86,1126.16 1291.58,1127.08 1295.05,1127.09C1296.26,1127.09 1297.45,1126.97 1298.59,1126.69C1301.89,1125.88 1305.16,1124.29 1308.37,1122.28C1313.18,1119.26 1317.86,1115.29 1322.14,1111.4C1326.41,1107.51 1330.3,1103.7 1333.41,1101.06C1339.75,1095.67 1344.13,1091.89 1347.78,1087.39C1351.43,1082.9 1354.25,1077.76 1357.5,1069.84C1360.58,1062.31 1362.41,1055.55 1363.93,1049.51C1365.08,1044.98 1366.06,1040.86 1367.27,1037.13C1369.09,1031.51 1371.39,1026.8 1375.53,1022.59C1379.67,1018.39 1385.75,1014.63 1395.25,1011.23C1399.46,1009.72 1403.25,1008.55 1406.61,1007.33C1409.13,1006.41 1411.42,1005.47 1413.46,1004.3C1416.52,1002.55 1419.05,1000.23 1420.7,996.917C1422.35,993.606 1423.13,989.423 1423.13,983.887C1423.13,982.144 1423.05,980.263 1422.9,978.227C1422.84,977.516 1422.36,976.905 1421.68,976.691C1421,976.477 1420.25,976.701 1419.8,977.253C1414.69,983.499 1410.75,988.403 1407.38,991.635C1405.7,993.253 1404.16,994.445 1402.75,995.208C1401.33,995.971 1400.05,996.319 1398.71,996.322C1396.94,996.322 1394.94,995.681 1392.45,994.105C1389.97,992.536 1387.07,990.05 1383.6,986.583C1376.01,978.989 1368.83,969.358 1363.58,958.868C1358.33,948.376 1355.01,937.034 1355.01,926.017C1355.02,918.147 1356.69,910.446 1360.56,903.235C1364.43,896.025 1370.51,889.283 1379.41,883.386C1396.82,871.864 1412.24,867.083 1425.32,867.085C1433.54,867.087 1440.86,868.962 1447.25,872.278C1456.83,877.251 1464.36,885.498 1469.51,895.65C1474.66,905.799 1477.4,917.839 1477.4,930.264C1477.4,948.589 1471.44,967.713 1458.6,982.907C1456.55,985.332 1455.23,988.21 1454.42,991.248C1453.62,994.289 1453.31,997.502 1453.31,1000.68C1453.31,1006.44 1454.32,1012.09 1455.32,1016.33C1456.33,1020.56 1457.33,1023.37 1457.34,1023.41L1458.99,1022.82L1459.94,1021.35L1459.93,1021.34C1459.59,1021.13 1452.44,1016.4 1445.43,1007.46C1438.42,998.511 1431.55,985.422 1431.55,968.313C1431.55,962.514 1432.34,956.245 1434.19,949.498C1435,946.553 1435.37,943.832 1435.37,941.355C1435.38,936.725 1434.06,932.922 1431.79,930.253C1429.54,927.581 1426.33,926.113 1422.94,926.123C1421.89,926.123 1420.83,926.257 1419.77,926.526C1417.9,927.003 1416.27,927.952 1414.83,929.046C1412.68,930.69 1410.91,932.69 1409.47,934.204C1408.75,934.96 1408.11,935.592 1407.62,935.971C1407.38,936.161 1407.18,936.285 1407.06,936.339L1406.95,936.381L1406.95,936.382L1407,936.627L1407,936.378L1406.95,936.382L1407,936.627L1407,936.378L1407,936.881L1407.2,936.423L1407,936.378L1407,936.881L1407.2,936.423L1407.05,936.755L1407.27,936.458L1407.2,936.423L1407.05,936.755L1407.27,936.458L1407.2,936.546L1407.27,936.464L1407.27,936.458L1407.2,936.546L1407.27,936.464L1407.26,936.456C1398.7,927.732 1391.3,921.58 1384.85,917.569C1378.39,913.567 1372.86,911.675 1368,911.668C1364.23,911.659 1360.9,912.859 1358.19,914.983C1354.1,918.175 1351.35,923.255 1349.39,929.422C1347.43,935.6 1346.28,942.928 1345.62,950.781L1347.36,950.926L1348.57,949.658C1344.25,945.55 1341.21,941.329 1339.25,937.097C1337.28,932.864 1336.39,928.617 1336.39,924.405C1336.39,918.057 1338.43,911.759 1342.09,905.84C1347.58,896.966 1356.7,889.001 1367.64,883.295C1378.57,877.583 1391.31,874.128 1403.95,874.13C1407.71,874.13 1411.47,874.436 1415.18,875.077C1423.21,876.465 1432.06,879.591 1439.48,884.455C1443.19,886.886 1446.54,889.747 1449.28,893.028C1452.02,896.31 1454.15,900.007 1455.43,904.144C1456.6,907.917 1457.08,911.82 1457.08,915.825C1457.08,924.022 1455.05,932.634 1452.98,941.161C1450.91,949.693 1448.78,958.133 1448.78,966.14C1448.78,970.044 1449.29,973.854 1450.6,977.481C1451.16,979.017 1451.9,980.308 1452.82,981.354C1454.2,982.93 1455.95,983.9 1457.8,984.429C1459.65,984.963 1461.61,985.103 1463.64,985.105C1466.79,985.102 1470.11,984.758 1473.39,984.76C1474.23,984.76 1475.07,984.782 1475.91,984.837C1479.38,985.064 1482.94,985.887 1486.46,986.681C1489.99,987.47 1493.47,988.24 1496.87,988.245C1499.42,988.247 1501.95,987.795 1504.29,986.52L1503.46,984.983L1502.43,983.565C1494.61,989.231 1488.67,993.577 1484.56,998.043C1482.51,1000.28 1480.91,1002.56 1479.84,1005.04C1478.76,1007.52 1478.22,1010.19 1478.22,1013.11C1478.22,1016.78 1479.05,1020.83 1480.63,1025.6C1482.22,1030.38 1484.57,1035.89 1487.68,1042.49C1488.09,1043.35 1489.09,1043.72 1489.96,1043.35C1492.8,1042.13 1495.26,1041.68 1497.49,1041.67C1501.4,1041.67 1504.66,1043.09 1507.73,1044.64C1509.27,1045.41 1510.74,1046.21 1512.23,1046.85C1513.72,1047.48 1515.25,1047.97 1516.9,1047.98C1517.78,1047.98 1518.69,1047.83 1519.57,1047.5C1520.89,1047 1522.14,1046.11 1523.31,1044.83C1524.49,1043.56 1525.61,1041.89 1526.76,1039.72C1532.05,1029.73 1534.13,1018.39 1534.13,1006.75C1534.12,993.453 1531.42,979.733 1527.63,966.994C1523.83,954.254 1518.94,942.496 1514.5,933.147C1512.13,928.17 1511.13,924.018 1511.13,920.557C1511.14,917.802 1511.75,915.471 1512.86,913.382C1513.84,911.556 1515.21,909.91 1516.94,908.399C1519.96,905.754 1524.08,903.548 1528.83,901.632C1535.96,898.751 1544.47,896.515 1552.74,894.091C1561.01,891.658 1569.04,889.054 1575.31,885.255C1579.09,882.964 1586.37,878.921 1595.12,873.763C1608.25,866.018 1624.71,855.745 1637.97,844.833C1644.6,839.373 1650.43,833.757 1654.67,828.149C1656.78,825.344 1658.5,822.538 1659.7,819.733C1660.9,816.93 1661.59,814.118 1661.59,811.334C1661.6,807.834 1660.47,804.404 1658.1,801.334C1657.81,800.964 1657.4,800.727 1656.94,800.666C1656.47,800.606 1656.01,800.73 1655.64,801.015C1626.74,823.288 1609.54,839.285 1594.4,851.942C1579.25,864.6 1566.22,873.909 1545.32,883.103C1540.19,885.354 1536.14,886.058 1531.7,886.671C1527.26,887.28 1522.44,887.781 1516.2,889.651C1513.3,890.527 1510.46,892.459 1507.72,895.036C1503.63,898.909 1499.81,904.286 1496.95,910.115C1494.11,915.946 1492.23,922.218 1492.22,927.962C1492.22,930.808 1492.69,933.536 1493.8,935.982C1494.89,938.427 1496.65,940.573 1499.08,942.154C1500.05,942.794 1501.15,943.098 1502.2,943.096C1503.78,943.092 1505.23,942.445 1506.31,941.412C1507.39,940.382 1508.11,938.908 1508.11,937.252C1508.11,936.68 1508.03,936.091 1507.84,935.511C1507.3,933.792 1507.02,931.862 1507.02,929.88C1507.02,925.692 1508.3,921.298 1510.85,918.062C1512.13,916.439 1513.71,915.094 1515.64,914.143C1517.57,913.194 1519.86,912.63 1522.59,912.629C1524.58,912.629 1526.81,912.934 1529.29,913.629L1529.76,911.944L1528.65,913.296C1528.97,913.563 1529.15,913.809 1529.27,914.082C1529.4,914.356 1529.46,914.678 1529.47,915.1C1529.47,915.862 1529.2,916.941 1528.66,918.184C1527.87,920.054 1526.51,922.273 1525.02,924.588C1523.52,926.907 1521.9,929.331 1520.56,931.731C1520.17,932.419 1519.98,933.176 1519.98,933.901C1519.99,935.128 1520.5,936.234 1521.29,937.033C1522.08,937.833 1523.2,938.363 1524.44,938.364C1525.05,938.365 1525.68,938.231 1526.28,937.961C1530.08,936.25 1535.06,934.203 1539.07,932.698C1539.21,932.647 1539.32,932.588 1539.44,932.506C1543.86,929.495 1547.14,926.393 1549.85,923.323C1553.91,918.71 1556.72,914.228 1560.36,910.108C1564.01,905.983 1568.48,902.133 1576.09,898.59C1585.48,894.225 1597.05,890.462 1608.54,886.366C1620.03,882.264 1631.45,877.834 1640.62,871.991C1644.55,869.488 1649.7,866.719 1655.21,863.805C1663.47,859.429 1672.52,854.729 1679.6,849.924C1683.15,847.516 1686.2,845.088 1688.45,842.578C1689.57,841.321 1690.49,840.04 1691.15,838.702C1691.81,837.367 1692.2,835.959 1692.2,834.515C1692.2,833.928 1692.13,833.337 1692,832.754L1690.29,833.147L1689.88,834.847C1690.37,834.966 1691.01,835.282 1691.74,835.865C1693.12,836.951 1694.76,838.945 1696.45,841.724C1699.43,846.588 1702.6,853.823 1705.64,862.848C1714.77,889.941 1722.76,933.167 1722.75,978.785C1722.75,1007.84 1719.52,1037.88 1711.32,1065.37C1709.05,1072.99 1708,1079.85 1708,1086.06C1707.99,1097.47 1711.59,1106.64 1717.5,1113.92C1721.93,1119.38 1727.61,1123.79 1733.99,1127.45C1743.57,1132.94 1754.73,1136.77 1765.76,1139.88C1776.78,1143 1787.69,1145.4 1796.72,1147.96L1797.19,1146.28L1796.6,1144.63C1787.42,1147.91 1778.65,1148.67 1771.93,1149.93C1768.57,1150.57 1765.69,1151.31 1763.43,1152.79C1762.3,1153.53 1761.33,1154.5 1760.68,1155.71C1760.03,1156.92 1759.71,1158.33 1759.71,1159.88C1759.72,1162.39 1760.49,1165.29 1762.04,1168.92C1763.59,1172.54 1765.94,1176.88 1769.21,1182.2C1788.31,1213.2 1821.42,1247.74 1851.33,1284.52C1866.29,1302.91 1880.44,1321.84 1891.62,1341.1C1902.81,1360.36 1911.03,1379.94 1914.19,1399.61C1915.11,1405.29 1915.8,1409.26 1915.79,1411.86C1915.8,1412.93 1915.68,1413.75 1915.48,1414.36C1915.3,1414.89 1915.07,1415.28 1914.73,1415.64C1914.43,1415.96 1914.03,1416.26 1913.46,1416.56C1912.48,1417.08 1910.99,1417.56 1908.96,1418C1905.91,1418.66 1901.66,1419.25 1896,1420.08C1890.33,1420.91 1883.24,1421.98 1874.44,1423.63C1871.57,1424.18 1869.07,1425.75 1866.69,1427.63C1863.12,1430.48 1859.69,1434.15 1855.8,1437.04C1853.85,1438.49 1851.81,1439.74 1849.59,1440.63C1847.38,1441.52 1845,1442.05 1842.32,1442.05L1842.14,1442.05C1840.33,1442.04 1837.85,1441.69 1835.21,1441.07C1831.25,1440.15 1826.92,1438.63 1823.7,1436.9C1822.09,1436.03 1820.76,1435.11 1819.92,1434.26C1819.5,1433.84 1819.2,1433.45 1819.03,1433.12C1818.86,1432.79 1818.81,1432.54 1818.81,1432.35C1818.81,1432.17 1818.84,1432 1818.98,1431.75C1819.18,1431.38 1819.67,1430.84 1820.61,1430.25C1821.54,1429.66 1822.89,1429.04 1824.71,1428.43C1840.59,1423.13 1850.05,1417.95 1856.18,1412.84C1862.31,1407.74 1865.02,1402.7 1867.33,1398.25C1870.57,1392.05 1872.11,1385.44 1872.11,1378.42C1872.11,1370.99 1870.41,1363.11 1867.24,1354.58C1862.5,1341.8 1854.47,1327.54 1843.78,1311.15C1833.08,1294.76 1819.72,1276.24 1804.29,1254.99C1789.82,1235.08 1775.32,1219.19 1764.52,1204.6C1759.12,1197.3 1754.65,1190.33 1751.55,1183.38C1748.44,1176.43 1746.7,1169.51 1746.7,1162.19C1746.7,1158.28 1747.2,1154.24 1748.28,1150.02C1748.76,1148.15 1749.1,1146.58 1749.33,1145.27C1749.56,1143.96 1749.68,1142.91 1749.68,1142.04C1749.67,1141.36 1749.63,1140.79 1749.37,1140.14C1749.23,1139.82 1749.01,1139.47 1748.63,1139.16C1748.26,1138.86 1747.72,1138.68 1747.27,1138.69C1746.71,1138.7 1746.3,1138.88 1745.97,1139.06C1745.37,1139.41 1744.94,1139.86 1744.46,1140.4C1743.66,1141.35 1742.81,1142.63 1741.88,1144.23C1739.14,1149 1735.85,1156.52 1733.55,1164.23C1730.94,1173.01 1730.04,1182.52 1730.04,1192.21C1730.04,1209.77 1733.01,1227.94 1734.43,1243.41C1735.02,1249.79 1735.3,1255.49 1735.3,1260.75C1735.3,1279 1731.98,1291.97 1726.64,1309.98C1721.3,1327.97 1713.95,1350.88 1706.08,1388.57C1705.3,1392.32 1704.97,1396.05 1704.97,1399.71C1704.97,1409.84 1707.47,1419.48 1709.92,1427.98C1711.15,1432.23 1712.36,1436.2 1713.26,1439.78C1714.16,1443.36 1714.74,1446.55 1714.73,1449.18C1714.73,1450.67 1714.55,1451.98 1714.18,1453.11C1713.61,1454.79 1712.67,1456.08 1710.99,1457.18C1709.31,1458.28 1706.83,1459.13 1703.32,1459.57C1693.12,1460.84 1663.69,1464.81 1629.44,1470.93C1625.72,1471.6 1621.89,1471.9 1618.09,1471.9C1609.17,1471.9 1600.47,1470.21 1594.13,1467.73C1590.96,1466.49 1588.39,1465.05 1586.71,1463.62C1585.87,1462.91 1585.26,1462.2 1584.88,1461.57C1584.5,1460.93 1584.35,1460.39 1584.35,1459.9C1584.35,1459.55 1584.43,1459.2 1584.61,1458.8C1584.89,1458.2 1585.46,1457.49 1586.45,1456.73C1587.44,1455.96 1588.84,1455.17 1590.69,1454.4C1592.94,1453.47 1595.08,1453.31 1597.3,1453.31C1598.23,1453.31 1599.17,1453.34 1600.12,1453.34C1601.93,1453.34 1603.84,1453.24 1605.76,1452.54C1606.53,1452.25 1607.28,1451.81 1608.09,1451.27C1609.51,1450.31 1611.1,1448.98 1612.82,1447.46C1615.39,1445.17 1618.22,1442.43 1620.91,1439.86C1623.58,1437.29 1626.12,1434.88 1628.02,1433.33C1642.57,1421.4 1652.92,1409.63 1660.3,1397.73C1671.36,1379.87 1675.67,1361.76 1677.54,1342.66C1679.41,1323.54 1678.87,1303.4 1680.22,1281.19C1680.38,1278.54 1680.45,1275.75 1680.45,1272.84C1680.45,1258.08 1678.53,1240.41 1676.06,1223.3C1673.6,1206.19 1670.58,1189.64 1668.37,1177.19C1667.34,1171.4 1666.88,1165.86 1666.87,1160.51C1666.88,1143.88 1671.36,1129.2 1677.33,1115.57C1683.3,1101.94 1690.76,1089.38 1696.61,1077.02L1695.02,1076.27L1693.37,1076.85C1701.32,1099.58 1704.56,1115.9 1704.55,1127.14C1704.55,1131.48 1704.07,1135.05 1703.22,1137.95C1701.95,1142.3 1699.9,1145.08 1697.34,1146.86C1694.76,1148.64 1691.55,1149.45 1687.82,1149.46C1683.29,1149.46 1678.05,1148.23 1672.68,1146.22C1664.63,1143.2 1656.29,1138.44 1649.41,1133.71C1645.97,1131.34 1642.89,1128.99 1640.39,1126.87C1637.9,1124.76 1635.97,1122.87 1634.89,1121.53L1633.53,1122.63L1634.93,1123.69C1671.58,1075.46 1692.05,1020.68 1703.38,970.446C1714.7,920.213 1716.88,874.52 1716.88,844.426C1716.88,830.422 1716.41,819.788 1716.17,813.685C1715.93,807.671 1715.04,802.739 1713.6,798.628C1712.35,795.032 1710.67,792.068 1708.69,789.601C1705.21,785.276 1700.82,782.512 1696.23,780.268C1692.78,778.583 1689.19,777.177 1685.68,775.62C1680.41,773.285 1675.33,770.628 1671.01,766.306C1666.69,761.98 1663.05,755.965 1660.78,746.645C1660.59,745.898 1660.48,744.826 1660.49,743.533C1660.48,740.448 1661.07,736.131 1661.99,731.32C1663.38,724.095 1665.52,715.722 1667.51,708.277C1669.5,700.821 1671.34,694.323 1672.14,690.674C1674.36,680.5 1676.2,668.775 1678.51,657.266C1680.82,645.759 1683.6,634.471 1687.64,625.252C1688.7,622.84 1689.17,620.467 1689.17,618.193C1689.17,615.671 1688.59,613.287 1687.68,611.067C1686.3,607.734 1684.17,604.748 1681.94,602.018C1679.72,599.291 1677.38,596.813 1675.57,594.589C1674.24,592.969 1673.02,590.686 1672.16,588.206C1671.3,585.726 1670.79,583.046 1670.79,580.645C1670.79,578.142 1671.35,575.99 1672.4,574.595C1672.92,573.891 1673.56,573.35 1674.39,572.956C1675.22,572.565 1676.27,572.322 1677.61,572.321C1679.68,572.317 1682.46,572.927 1685.97,574.458C1689.48,575.986 1693.72,578.422 1698.74,581.987C1707,587.856 1714.21,592.896 1720.94,596.512C1727.67,600.121 1733.96,602.33 1740.33,602.333C1743.49,602.335 1746.66,601.779 1749.84,600.606C1753.01,599.433 1756.2,597.648 1759.46,595.206C1769,588.05 1778.39,585.01 1786.25,585.013C1792.62,585.015 1797.97,586.997 1801.71,590.371C1805.45,593.754 1807.66,598.528 1807.67,604.501C1807.67,607.415 1807.13,610.613 1805.95,614.047C1805.66,614.886 1806.04,615.806 1806.84,616.192C1807.64,616.579 1808.59,616.309 1809.07,615.562C1814.18,607.613 1816.99,598.745 1816.98,589.203C1816.98,581.371 1815.1,573.104 1811.14,564.51C1807.18,555.913 1801.14,546.981 1792.82,537.763C1789.74,534.362 1787.58,531.541 1785.22,528.974C1783.45,527.053 1781.56,525.286 1779.15,523.635C1775.53,521.154 1770.8,518.954 1763.5,516.628C1756.2,514.301 1746.31,511.836 1732.28,508.844C1728.44,508.024 1725.22,506.693 1722.38,504.98C1717.4,501.986 1713.57,497.787 1709.89,493.046C1704.38,485.952 1699.28,477.651 1691.1,471.071C1687,467.786 1682.13,464.953 1676.11,462.962C1670.09,460.969 1662.93,459.813 1654.22,459.813C1646.25,459.814 1636.99,460.779 1626.09,462.958C1610.91,466.005 1591.65,474.838 1576.03,489.334C1568.23,496.584 1561.36,505.258 1556.43,515.34C1551.49,525.421 1548.52,536.912 1548.52,549.723C1548.52,550.236 1548.52,550.751 1548.53,551.267C1548.58,553.813 1548.86,555.988 1549.39,557.854C1549.78,559.253 1550.32,560.479 1551,561.533C1552.02,563.116 1553.39,564.292 1554.97,565.012C1556.55,565.737 1558.29,566.026 1560.12,566.026C1563.57,566.019 1567.38,565.03 1571.49,563.619C1577.64,561.495 1584.45,558.371 1591.19,555.799C1597.92,553.22 1604.58,551.223 1610.21,551.234C1611.47,551.234 1612.68,551.332 1613.83,551.538C1618.06,552.297 1621.47,552.636 1624.26,552.636C1626.56,552.635 1628.45,552.405 1630.02,551.961C1631.39,551.573 1632.53,551.012 1633.45,550.295C1634.25,549.669 1634.87,548.926 1635.32,548.144C1636.1,546.769 1636.37,545.326 1636.5,544.022C1636.59,543.041 1636.61,542.121 1636.65,541.327C1636.68,540.733 1636.72,540.21 1636.8,539.807C1636.86,539.505 1636.94,539.273 1637.01,539.117C1637.14,538.88 1637.2,538.81 1637.39,538.7C1637.58,538.596 1637.97,538.468 1638.7,538.468C1640.02,538.459 1642.31,538.913 1645.73,540.115C1648.31,541.021 1650.29,542.173 1651.84,543.475C1654.15,545.431 1655.5,547.733 1656.32,550.242C1657.14,552.747 1657.39,555.456 1657.39,558.06C1657.39,559.733 1657.29,561.36 1657.18,562.864C1657.08,564.37 1656.97,565.747 1656.97,566.971C1656.97,567.562 1657,568.119 1657.07,568.659C1657.15,569.198 1657.28,569.727 1657.55,570.26C1660.04,575.138 1661.53,581.385 1661.53,589.452C1661.53,596.428 1660.41,604.754 1657.85,614.653C1656.81,618.645 1654.97,621.143 1652.6,622.758C1650.23,624.366 1647.2,625.096 1643.76,625.097C1639.36,625.101 1634.34,623.883 1629.54,622.004C1624.74,620.129 1620.15,617.601 1616.57,615.078C1610.22,610.613 1605.72,607.042 1602.23,603.673C1599.61,601.145 1597.56,598.732 1595.69,596.096C1592.88,592.146 1590.48,587.663 1587.33,581.621C1584.18,575.582 1580.29,568.009 1574.5,557.931C1569.67,549.511 1567.59,541.443 1567.59,533.857C1567.59,525.832 1569.92,518.317 1573.95,511.502C1579.99,501.284 1589.89,492.677 1601.26,486.658C1612.62,480.635 1625.45,477.207 1637.24,477.211C1646.7,477.21 1655.45,479.402 1662.35,484.095C1677.02,494.07 1686.62,503.172 1693.32,511.648C1703.35,524.362 1706.89,535.704 1711,546.927C1713.05,552.53 1715.25,558.094 1718.49,563.671C1721.72,569.248 1726,574.822 1732.16,580.435C1741.41,588.886 1749.84,592.145 1757.58,594.103C1763.4,595.577 1768.79,596.372 1774.02,598.135C1777.94,599.457 1781.78,601.303 1785.75,604.403C1791.69,609.049 1797.94,616.577 1804.77,629.479C1811.6,642.377 1818.99,660.62 1827.22,686.571C1829.14,692.646 1830.46,698.214 1831.79,703.732C1833.78,712.005 1835.79,720.182 1839.92,729.584C1844.04,738.988 1850.26,749.589 1860.62,762.803C1864.66,767.954 1869.12,775.616 1873.63,784.553C1880.41,797.965 1887.33,814.262 1893.47,829.52C1899.6,844.781 1904.95,859.001 1908.61,868.317C1912.6,878.474 1916.98,885.583 1921.31,891.158C1924.55,895.34 1927.76,898.656 1930.71,901.755C1935.15,906.411 1938.98,910.543 1941.88,916.492C1944.77,922.442 1946.78,930.309 1947.28,942.484L1947.28,942.482C1947.29,942.79 1947.3,943.147 1947.3,943.545C1947.3,945.769 1947.08,949.255 1946.55,953.176C1945.77,959.059 1944.26,965.964 1941.85,971.222C1940.65,973.852 1939.22,976.054 1937.64,977.521C1936.86,978.258 1936.04,978.813 1935.2,979.185C1934.35,979.556 1933.46,979.751 1932.49,979.753C1931.88,979.753 1931.23,979.674 1930.53,979.5C1930.04,979.376 1929.65,979.182 1929.3,978.907C1928.64,978.398 1928.06,977.521 1927.6,976.194C1926.79,973.885 1926.47,970.359 1926.37,966.281C1926.19,960.15 1926.43,952.763 1925.52,945.728C1925.06,942.208 1924.32,938.768 1923.05,935.6C1921.79,932.436 1919.99,929.535 1917.45,927.189C1916.34,926.161 1914.94,925.669 1913.61,925.675C1912.13,925.678 1910.72,926.238 1909.63,927.223C1908.54,928.202 1907.79,929.662 1907.75,931.329C1907.52,938.761 1906.23,948.057 1905.73,956.047C1905.7,956.358 1905.62,956.477 1905.47,956.612C1905.33,956.739 1905.09,956.829 1904.86,956.827C1904.7,956.826 1904.56,956.785 1904.45,956.718C1904.33,956.647 1904.24,956.56 1904.14,956.351C1900,947.363 1897.49,936.078 1895.78,924.661C1894.07,913.24 1893.15,901.691 1892.12,892.085C1890.54,877.407 1885.23,865.747 1877.55,854.811C1866.01,838.398 1849.23,823.478 1831.1,801.398C1812.96,779.324 1793.42,750.113 1776.36,705.208C1775.76,703.626 1775.51,702.292 1775.51,701.191C1775.51,700.382 1775.64,699.697 1775.87,699.086C1776.28,698.024 1777.02,697.134 1778.18,696.327C1779.9,695.119 1782.58,694.211 1785.89,693.662C1789.19,693.106 1793.1,692.886 1797.28,692.886C1803.98,692.886 1811.38,693.446 1818.27,694.011C1825.16,694.574 1831.53,695.145 1836.28,695.147C1836.59,695.147 1836.9,695.144 1837.2,695.139L1837.17,693.389L1836.26,691.895C1828.26,696.763 1821.74,698.833 1815,700.605C1802.93,703.773 1793.85,713.892 1792.17,726.28C1791.58,730.703 1790.99,737.405 1790.99,745.795C1790.99,760.127 1792.72,779.381 1799.16,800.516C1805.6,821.649 1816.76,844.664 1835.6,866.456C1853.34,886.978 1864.6,904.017 1871.42,919.449C1878.24,934.886 1880.65,948.716 1880.65,963.03C1880.66,980.749 1876.91,999.238 1873.12,1022.05C1869.34,1044.86 1865.54,1071.98 1865.54,1106.93C1865.54,1125.33 1866.59,1145.91 1869.24,1169.18C1869.33,1169.9 1869.36,1170.55 1869.36,1171.14C1869.36,1172.21 1869.24,1173.06 1869.03,1173.7C1868.71,1174.67 1868.3,1175.16 1867.73,1175.53C1867.16,1175.89 1866.32,1176.12 1865.16,1176.12C1863.77,1176.12 1861.98,1175.78 1859.95,1175.14C1856.39,1174.02 1852.1,1171.99 1847.64,1169.58C1840.93,1165.96 1833.79,1161.48 1827.74,1157.89C1824.71,1156.1 1821.96,1154.52 1819.62,1153.37C1818.45,1152.8 1817.39,1152.33 1816.41,1151.99C1815.44,1151.65 1814.57,1151.42 1813.67,1151.42C1813.32,1151.42 1812.95,1151.45 1812.58,1151.57C1812.01,1151.73 1811.4,1152.13 1811.04,1152.71C1810.67,1153.28 1810.56,1153.9 1810.56,1154.46C1810.56,1154.64 1810.57,1154.81 1810.59,1154.98C1811.49,1163.17 1812.77,1169.29 1814.45,1174.08C1815.91,1178.28 1817.7,1181.47 1819.78,1184.05C1821.59,1186.32 1823.61,1188.11 1825.75,1189.75C1829.52,1192.61 1833.67,1195.03 1838.27,1198.84C1841.72,1201.69 1845.44,1205.32 1849.45,1210.5C1861.49,1226.04 1876.1,1255.66 1892.47,1319.36C1897.2,1337.79 1901.9,1351.01 1906.48,1360.84C1909.92,1368.21 1913.31,1373.67 1916.59,1377.95C1921.5,1384.37 1926.19,1388.12 1930.27,1391.61C1934.36,1395.12 1937.83,1398.32 1940.87,1403.95C1941.82,1405.73 1942.22,1407.34 1942.22,1408.87C1942.22,1410.45 1941.79,1411.97 1940.96,1413.49C1939.52,1416.15 1936.79,1418.78 1933.23,1421.17C1927.9,1424.76 1920.79,1427.82 1913.8,1430.17C1906.81,1432.53 1899.94,1434.19 1895.07,1435.07C1894.18,1435.23 1893.57,1436.03 1893.63,1436.92C1893.7,1437.82 1894.43,1438.51 1895.33,1438.54C1905.03,1438.83 1914.1,1438.96 1922.59,1438.96C1978.12,1438.96 2009.3,1433.28 2035.89,1427.62C2062.49,1421.96 2084.37,1416.37 2121.9,1416.36C2134.79,1416.36 2149.53,1417.02 2166.93,1418.58C2206.44,1422.12 2237.5,1432.98 2272.21,1443.03C2306.9,1453.07 2345.2,1462.27 2398.85,1462.26C2409.31,1462.26 2420.36,1461.91 2432.08,1461.16C2433.05,1461.09 2433.78,1460.26 2433.72,1459.3C2433.65,1458.33 2432.82,1457.6 2431.86,1457.66Z" style="fill:white;fill-rule:nonzero;"/>
                </g>
            </g>
        </g>
    </g>
</svg>
