<?xml version="1.0" encoding="UTF-8" standalone="no"?>
<!DOCTYPE svg PUBLIC "-//W3C//DTD SVG 1.1//EN" "http://www.w3.org/Graphics/SVG/1.1/DTD/svg11.dtd">
<svg width="100%" height="100%" viewBox="0 0 166667 92284" version="1.1" xmlns="http://www.w3.org/2000/svg" xmlns:xlink="http://www.w3.org/1999/xlink" xml:space="preserve" xmlns:serif="http://www.serif.com/" style="fill-rule:evenodd;clip-rule:evenodd;stroke-linecap:round;stroke-linejoin:round;stroke-miterlimit:2;">
    <g transform="matrix(5.55556,0,0,5.55556,0,0)">
        <g transform="matrix(5.55556,0,0,5.55556,0,-2024)">
            <g>
                <path d="M5389.35,3150.43C5389.35,3150.43 4768.42,3154.05 4764.75,3142.31C4761.08,3130.55 4779.92,3118.83 4779.87,3128.61C4779.79,3138.41 4732.7,3159.91 4680.08,3161.81C4627.42,3163.72 4597.57,3138.21 4610.7,3142.15C4623.81,3146.08 4562.45,3263.86 4624.39,3289.44C4686.33,3315.04 4900.78,3317 4893.42,3285.56C4886.08,3254.13 4786.85,3203.07 4764.57,3167.77C4742.29,3132.49 4800.96,3060.21 4774.51,3089.48C4748.03,3118.79 4593.62,3157.81 4605.53,3091.22C4617.41,3024.76 4580.61,2901.29 4576.55,2741.79C4572.51,2583.01 4572.74,2559.84 4561.86,2526.99C4551,2494.17 4552.97,2484.54 4549.48,2461.42C4545.99,2438.31 4444.13,2060.61 4463.04,2030.29C4481.94,2000.01 4521.04,1983.2 4517.15,2000.26C4513.26,2017.34 4488.8,2049.5 4499.82,2059.11C4510.85,2068.7 4544.31,2061.32 4536.63,2086.02C4528.96,2110.74 4563.15,2399.93 4585.2,2430.8C4607.27,2461.69 4666.87,2463.89 4653.58,2490.78C4640.3,2517.7 4621.77,2506.04 4625.22,2534.98C4628.7,2563.93 4683.61,2962.46 4675.92,2983.89C4668.25,3005.33 4600.61,3014.97 4649.2,3038.5C4697.79,3062.01 4787.77,3069.96 4789.93,3027.01C4792.08,2984.11 4771.95,2917.87 4763.37,2811C4754.8,2704.45 4775.84,2581.89 4750.39,2495.07C4725,2408.43 4746.3,2047.53 4746.81,1979.19C4747.32,1910.99 4715.56,1958.1 4754.48,1939.45C4793.38,1920.82 4841.49,1896.61 4830.74,1847.4C4820,1798.25 4816.86,1713.47 4789.22,1720.74C4761.57,1728.03 4708.1,1736.96 4706.21,1742.6C4704.32,1748.23 4708.48,1918.26 4736.34,1897.66C4764.17,1877.08 4728.39,1733.38 4715.64,1714.44C4702.92,1695.51 4686.54,1672.78 4688.45,1663.41C4690.37,1654.03 4699.51,1661.63 4699.62,1648.48C4699.72,1635.33 4665.28,1576.82 4657.95,1573C4650.63,1569.18 4645.27,1552.25 4643.53,1540.99L4641.79,1529.73L4671.01,1552.51C4671.01,1552.51 4676.34,1573.17 4683.56,1588.25C4690.79,1603.33 4708.79,1650.44 4718,1650.53C4727.2,1650.61 4730.96,1639.38 4734.54,1650.68C4738.14,1661.99 4743.38,1699.63 4750.64,1712.87C4757.9,1726.12 4774.25,1756.38 4766.94,1748.79C4759.63,1741.2 4771.93,1566.62 4775.51,1577.9C4779.11,1589.19 4783.78,1709.42 4783.91,1690.61C4784.04,1671.82 4782.93,1568.61 4788.33,1583.65C4793.74,1598.7 4802.1,1720.86 4794.55,1749.04C4787,1777.22 4674.68,1766.82 4648.86,1766.6C4623.04,1766.37 4603.03,1737.92 4615.83,1749.33C4628.64,1760.76 4664.45,1883.85 4636.36,1925.28C4608.24,1966.77 4380.26,1972.65 4377.23,1919.46C4374.21,1866.35 4362.58,1764.1 4395.9,1762.5C4429.2,1760.9 4621.41,1743.74 4591.72,1762.33C4562,1780.94 4427.03,1787.34 4419.73,1779.7C4412.42,1772.09 4395.9,1762.5 4379.95,1707.64C4364.03,1652.84 4377.65,1600.29 4385,1602.24C4392.36,1604.2 4384.42,1647.39 4400.57,1685.2C4416.72,1723.05 4423.83,1745.76 4438.69,1740.22C4453.54,1734.7 4457.59,1704.56 4454.36,1664.99C4451.14,1625.44 4427.5,1597.02 4442.22,1599.04C4456.96,1601.06 4478.48,1653.92 4481.87,1680.29C4485.27,1706.71 4460.51,1770.62 4477.19,1766.99C4493.85,1763.36 4507.7,1680.54 4516.94,1678.75C4526.19,1676.95 4566.29,1540.21 4566.05,1564.59C4565.8,1588.97 4537.31,1671.4 4537.22,1678.94C4537.15,1686.46 4511.69,1822.07 4506.36,1803.12C4501.02,1784.19 4543.74,1761.91 4555.01,1743.15C4566.27,1724.4 4600.22,1647.53 4599.92,1677.62C4599.63,1707.75 4556.49,1779.01 4561.75,1805.48C4567.03,1831.98 4618.3,1879.69 4570.08,1896.34C4521.8,1913 4436.39,1931.3 4427.55,1897.09C4418.7,1862.92 4439.51,1827.13 4419.3,1813.72C4399.11,1800.32 4384.78,1764.3 4357,1765.94L4329.21,1767.58C4329.21,1767.58 4329.5,1883.04 4297.53,1915.04C4265.5,1947.08 4161.65,1932.97 4153.09,1887.32C4144.54,1841.73 4172.25,1734.09 4192.64,1734.26C4213.02,1734.44 4325.33,1780.78 4295.81,1772.96C4266.29,1765.15 4320.13,1620.44 4305.01,1644.75C4289.88,1669.11 4250.96,1799.06 4243.81,1781.98C4236.65,1764.89 4135.23,1729.97 4105.98,1705.16C4076.73,1680.34 4039,1612.09 4013.95,1562.88C3988.92,1513.74 3914.91,1415.35 3917.31,1387.26C3919.71,1359.2 4010.88,1326.55 4038.29,1341.8C4065.71,1357.07 4074.81,1364.65 4082.32,1357.25C4089.83,1349.86 4106.94,1320.16 4086.97,1301.26C4067.02,1282.36 3993.38,1274.04 3961.91,1279.28C3930.41,1284.52 3882.91,1349.43 3905.14,1347.8C3927.36,1346.18 3963.05,1316.66 4001.85,1315.23C4040.64,1313.8 4064.86,1301 4055.27,1321.44C4045.67,1341.88 4063.31,1388.85 4078.88,1448.96C4094.48,1509.17 4112.97,1620.34 4137.06,1618.69C4161.16,1617.03 4226.38,1585.66 4248.58,1584.01C4270.79,1582.34 4370.23,1602.1 4342.4,1613.11C4314.53,1624.14 4246.27,1615.97 4253.64,1617.92C4261,1619.87 4367.83,1645.35 4338.17,1652.61C4308.49,1659.86 4243.95,1647.95 4243.95,1647.95C4243.95,1647.95 4348.66,1697.92 4328.21,1705.27C4307.76,1712.64 4236.04,1681.81 4235.89,1691.23C4235.75,1700.66 4279.9,1719.94 4250.21,1725.33C4220.48,1730.74 4185.34,1726.65 4174.56,1705.77C4163.77,1684.92 4177.63,1628.49 4186.51,1534.52C4195.36,1440.82 4212.34,1416.66 4204.31,1339.92C4196.29,1263.35 4193.11,1231.64 4197.41,1192.61C4201.69,1153.64 4212.77,1150.07 4212.51,1166.78C4212.25,1183.5 4099.16,1344.36 4084.71,1325.5C4070.29,1306.66 3964.96,1312.94 3955.9,1303.49C3946.85,1294.06 3901.71,1334.67 3924.91,1282.6C3948.08,1230.61 4037.05,1103.31 4059.82,1064.65C4082.54,1026.02 4133.22,960.094 4149.87,951.083C4166.51,942.067 4181.44,925.662 4190.42,936.854C4199.41,948.055 4244.77,1098.5 4217.81,1061.1C4190.88,1023.72 4181.23,938.58 4214.49,920.576C4247.7,902.589 4313.8,885.085 4334.07,872.476C4354.33,859.866 4358.36,832.344 4360.01,845.238C4361.67,858.129 4399.5,897.312 4417.57,914.133C4435.61,930.95 4464.31,975.587 4464.31,975.587C4464.31,975.587 4469.88,968.292 4499.66,918.934C4529.38,869.672 4566.11,842.623 4568.07,827.969C4570.05,813.314 4572.02,798.659 4570.05,813.314C4568.07,827.969 4582.55,837.35 4587.75,863.132C4592.97,888.94 4554.03,952.819 4559.27,975.007C4564.52,997.208 4598.91,1027.19 4571.59,1019.44C4544.28,1011.71 4479.01,968.409 4476.98,986.835C4474.93,1005.26 4470.59,1064.33 4468.93,1049.52C4467.28,1034.72 4446.17,964.282 4422.31,973.187C4398.43,982.091 4359.09,1051.8 4352.06,1029.52C4345.04,1007.25 4340.13,964.708 4349.82,924.258C4359.5,883.864 4392.02,796.353 4379.41,783.308C4366.8,770.272 4397.74,854.508 4456.29,842.445C4514.77,830.393 4563.28,763.711 4567.13,741.781C4571,719.878 4563.93,673.631 4571.66,660.395C4579.37,647.172 4594.78,621.685 4600.31,637.959C4605.84,654.246 4586.18,724.548 4579.6,717.772C4573.03,710.983 4571.63,662.299 4561.41,642.136C4551.19,621.97 4546.72,597.144 4547.77,586.686C4548.84,576.242 4620.63,592.576 4599.73,599.862C4578.82,607.161 4557.22,588.745 4503.22,587.906C4449.19,587.065 4396.04,588.142 4373.16,595.403C4350.28,602.679 4332.17,607.161 4332.02,618.597C4331.85,630.046 4332.26,669.186 4332.38,660.586C4332.5,652 4325.4,615.64 4316.56,636.493C4307.7,657.357 4317.08,734.932 4329.75,714.067C4342.4,693.218 4308.5,601.069 4319.36,571.703C4330.22,542.357 4399.11,496.881 4504.05,514.704C4608.91,532.517 4610.92,618.124 4592.97,613.085C4575.03,608.046 4595.01,597.887 4592.68,546.507C4590.35,495.211 4570.87,458.855 4515.38,432.362C4459.88,405.879 4388.67,424.591 4360.83,453.534C4332.94,482.512 4325.22,560.371 4327.77,581.365C4330.34,602.359 4346.36,751.635 4372.35,801.817C4398.37,852.074 4411.26,887.78 4455.99,892.239C4500.7,896.698 4588.65,857.62 4612.32,867.53C4635.98,877.454 4738.99,945.098 4757.95,950.147C4776.92,955.21 4784.62,939.952 4766.58,939.703C4748.53,939.466 4729.17,985.323 4722.89,1057.45C4716.6,1129.72 4729.48,1188.85 4744.57,1210.32C4759.68,1231.81 4856.35,1327.94 4887.91,1312.77C4919.45,1297.62 4933.7,1307.48 4947.18,1276.62C4960.65,1245.8 4944.75,1184.7 4957.09,1190.63C4969.42,1196.59 4984.42,1251.88 4969.04,1285.59C4953.66,1319.34 4933.54,1340.46 4898.26,1340.05C4862.97,1339.66 4797.2,1323.39 4788.88,1284.48C4780.56,1245.61 4809.73,1162.76 4824.94,1166.8C4840.15,1170.86 4827.68,1184.24 4841.75,1220.19C4855.82,1256.18 4891.86,1287.61 4917.67,1273.37C4943.45,1259.14 4971.35,1189.84 4952.48,1159.68C4933.6,1129.54 4908.06,1104.14 4903.47,1073.25C4898.89,1042.39 4898.19,997.185 4887.84,978.792C4877.51,960.403 4815.81,961.489 4830.97,965.546C4846.14,969.593 4865.1,973.683 4865.21,954.476C4865.32,935.281 4872.27,879.774 4852.3,892.914C4832.3,906.066 4830.24,931.932 4830.11,952.085C4829.98,972.251 4835.6,985.783 4834.69,979.041C4833.78,972.298 4831.91,967.474 4813.87,967.239C4795.83,966.987 4782.38,987.958 4791.82,997.694C4801.25,1007.44 4846.87,1005.16 4834.52,1004.99C4822.17,1004.84 4780.3,1012.94 4787.85,1021.69C4795.39,1030.46 4841.93,1036.83 4835.28,1036.75C4828.62,1036.67 4782.03,1037.99 4787.63,1051.53C4793.25,1065.1 4834.15,1063.69 4827.5,1064.58C4820.84,1065.45 4785.64,1065.96 4789.38,1073.72C4793.14,1081.48 4811.08,1101.95 4831.04,1104.14C4851.01,1106.32 4870.07,1098.84 4861.47,1104.52C4852.89,1110.2 4837.51,1134.14 4837.45,1144.74C4837.38,1155.36 4761.98,1178.61 4758.18,1177.59C4754.37,1176.58 4771.07,1108.21 4754.73,1127.31C4738.4,1146.42 4742.15,1279.09 4739.72,1347.02C4737.29,1415.1 4768.3,1552.46 4722.41,1540.27C4676.49,1528.09 4548.08,1372.14 4510.41,1311.4C4472.8,1250.72 4470.88,1086.07 4478,1130.64C4485.15,1175.24 4571.44,1526.57 4495.11,1480.82C4418.8,1435.09 4373.49,1372.17 4376.85,1409.27C4380.22,1446.39 4443.02,1497.88 4383.61,1481.62C4324.19,1465.35 4278.65,1419.92 4293.29,1472.85C4307.95,1525.86 4344.79,1795.63 4343.89,1862.8C4342.99,1930.12 4378.82,2005.77 4380.7,2009.75C4382.59,2013.74 4295.08,2030.99 4316.18,2049.04C4337.28,2067.09 4417.45,2015.99 4422.82,2051.79C4428.2,2087.62 4380.85,2455.48 4374.71,2477.59C4368.58,2499.71 4364.69,2497.67 4364.44,2517.82C4364.17,2537.98 4349.04,2846.37 4340.76,2878.88C4332.48,2911.42 4320.56,2921.57 4320.34,2937.87C4320.12,2954.16 4321.59,2990.89 4321.45,3001.1C4321.31,3011.31 4339.62,3113.57 4306.1,3117.62C4272.55,3121.68 4213.69,3103.17 4193.95,3105.21C4174.2,3107.22 4176.18,3107.22 4174.2,3107.22C4172.23,3107.22 4159.45,3041.69 4156.43,2984.44C4153.38,2927.31 4167.86,2882.52 4160.91,2825.53C4153.95,2768.63 4148.71,2680.73 4149.75,2615.91C4150.78,2551.22 4159.19,2514.91 4150.44,2450.36C4141.71,2385.92 4142.93,1950.39 4152.64,1950.47C4162.35,1950.54 4152.18,2099.69 4172.61,2161.68C4193.05,2223.77 4246.78,2280.14 4240.69,2296.13C4234.6,2312.13 4183.36,2345.96 4192.56,2382.17C4201.77,2418.4 4240,2474.95 4224.09,2493.01C4208.17,2511.1 4198.36,2513.07 4193.82,2553.41C4189.29,2593.82 4209.52,2858.2 4208.68,2913.16C4207.85,2968.22 4254.94,2976.47 4236.99,2992.77C4219.04,3009.08 4183.66,3004.93 4212.83,3029.51C4242.01,3054.08 4275.33,3064.36 4290.71,3090.99C4306.1,3117.62 4345.62,3257.2 4309.97,3267.46C4274.3,3277.74 4262.45,3277.74 4244.55,3285.98C4226.64,3294.21 4050.84,3331.23 4056.87,3273.58C4063.97,3205.66 4161.46,3164.64 4179.08,3174.91C4196.67,3185.19 4215.99,3213.97 4255.93,3181.14C4295.82,3148.35 4301.82,3142.21 4240.78,3138.05C4179.7,3133.89 10.651,3141.8 10.651,3141.8" style="fill:none;stroke:white;stroke-width:12px;"/>
            </g>
        </g>
    </g>
</svg>
