<?xml version="1.0" encoding="UTF-8" standalone="no"?>
<!DOCTYPE svg PUBLIC "-//W3C//DTD SVG 1.1//EN" "http://www.w3.org/Graphics/SVG/1.1/DTD/svg11.dtd">
<svg width="100%" height="100%" viewBox="0 0 425 512" version="1.1" xmlns="http://www.w3.org/2000/svg" xmlns:xlink="http://www.w3.org/1999/xlink" xml:space="preserve" xmlns:serif="http://www.serif.com/" style="fill-rule:evenodd;clip-rule:evenodd;stroke-linejoin:round;stroke-miterlimit:2;">
    <path d="M283,260C283,254.333 282.167,248.167 280.5,241.5L301.5,241.5L301.5,342.5C301.5,345.167 300.583,347.333 298.75,349C296.917,350.667 294.667,351.5 292,351.5L127.5,351.5C124.833,351.5 122.667,350.667 121,349C119.333,347.333 118.5,345.167 118.5,342.5L118.5,241.5L139,241.5C137.333,248.167 136.5,254.333 136.5,260C136.5,270 138.417,279.5 142.25,288.5C146.083,297.5 151.333,305.25 158,311.75C164.667,318.25 172.5,323.417 181.5,327.25C190.5,331.083 200,333 210,333C220,333 229.5,331.083 238.5,327.25C247.5,323.417 255.25,318.25 261.75,311.75C268.25,305.25 273.417,297.5 277.25,288.5C281.083,279.5 283,270 283,260ZM210,305.5C203.667,305.5 197.667,304.333 192,302C186.333,299.667 181.417,296.417 177.25,292.25C173.083,288.083 169.833,283.25 167.5,277.75C165.167,272.25 164,266.333 164,260C164,253.667 165.167,247.667 167.5,242C169.833,236.333 173.083,231.417 177.25,227.25C181.417,223.083 186.333,219.833 192,217.5C197.667,215.167 203.667,214 210,214C216.333,214 222.25,215.167 227.75,217.5C233.25,219.833 238.083,223.083 242.25,227.25C246.417,231.417 249.667,236.333 252,242C254.333,247.667 255.5,253.667 255.5,260C255.5,266.333 254.333,272.25 252,277.75C249.667,283.25 246.417,288.083 242.25,292.25C238.083,296.417 233.25,299.667 227.75,302C222.25,304.333 216.333,305.5 210,305.5ZM292,168.5C294.667,168.5 296.917,169.333 298.75,171C300.583,172.667 301.5,174.833 301.5,177.5L301.5,205C301.5,207.667 300.583,209.833 298.75,211.5C296.917,213.167 294.667,214 292,214L264.5,214C261.833,214 259.667,213.167 258,211.5C256.333,209.833 255.5,207.667 255.5,205L255.5,177.5C255.5,174.833 256.333,172.667 258,171C259.667,169.333 261.833,168.5 264.5,168.5L292,168.5ZM316.5,50.5C330.833,50.5 344.417,53.25 357.25,58.75C370.083,64.25 381.25,71.75 390.75,81.25C400.25,90.75 407.75,101.833 413.25,114.5C418.75,127.167 421.5,140.667 421.5,155L421.5,364C421.5,378.333 418.75,391.917 413.25,404.75C407.75,417.583 400.25,428.75 390.75,438.25C381.25,447.75 370.083,455.25 357.25,460.75C344.417,466.25 330.833,469 316.5,469L107.5,469C93.167,469 79.667,466.25 67,460.75C54.333,455.25 43.25,447.75 33.75,438.25C24.25,428.75 16.75,417.583 11.25,404.75C5.75,391.917 3,378.333 3,364L3,155C3,140.667 5.75,127.167 11.25,114.5C16.75,101.833 24.25,90.75 33.75,81.25C43.25,71.75 54.333,64.25 67,58.75C79.667,53.25 93.167,50.5 107.5,50.5L316.5,50.5ZM329,168.5C329,160.833 326.333,154.333 321,149C315.667,143.667 309.167,141 301.5,141L118.5,141C110.833,141 104.333,143.667 99,149C93.667,154.333 91,160.833 91,168.5L91,351.5C91,359.167 93.667,365.667 99,371C104.333,376.333 110.833,379 118.5,379L301.5,379C309.167,379 315.667,376.333 321,371C326.333,365.667 329,359.167 329,351.5L329,168.5Z" style="fill:rgb(235,103,103);fill-rule:nonzero;"/>
</svg>
