<?xml version="1.0" encoding="UTF-8" standalone="no"?>
<!DOCTYPE svg PUBLIC "-//W3C//DTD SVG 1.1//EN" "http://www.w3.org/Graphics/SVG/1.1/DTD/svg11.dtd">
<svg width="100%" height="100%" viewBox="0 0 425 512" version="1.1" xmlns="http://www.w3.org/2000/svg" xmlns:xlink="http://www.w3.org/1999/xlink" xml:space="preserve" xmlns:serif="http://www.serif.com/" style="fill-rule:evenodd;clip-rule:evenodd;stroke-linejoin:round;stroke-miterlimit:2;">
    <path d="M317,51C331.333,51 344.833,53.75 357.5,59.25C370.167,64.75 381.25,72.25 390.75,81.75C400.25,91.25 407.75,102.333 413.25,115C418.75,127.667 421.5,141.167 421.5,155.5L421.5,364.5C421.5,378.833 418.75,392.417 413.25,405.25C407.75,418.083 400.25,429.25 390.75,438.75C381.25,448.25 370.167,455.75 357.5,461.25C344.833,466.75 331.333,469.5 317,469.5L107.5,469.5C93.167,469.5 79.667,466.75 67,461.25C54.333,455.75 43.25,448.25 33.75,438.75C24.25,429.25 16.75,418.083 11.25,405.25C5.75,392.417 3,378.833 3,364.5L3,155.5C3,141.167 5.75,127.667 11.25,115C16.75,102.333 24.25,91.25 33.75,81.75C43.25,72.25 54.333,64.75 67,59.25C79.667,53.75 93.167,51 107.5,51L317,51ZM290.5,142.5L246.5,142.5C237.833,142.5 229.833,144 222.5,147C215.167,150 208.833,153.917 203.5,158.75C198.167,163.583 193.917,169.167 190.75,175.5C187.583,181.833 186,188.167 186,194.5L186,221L147,221L147,273L186,273L186,378L238.5,378L238.5,273L277.5,273L277.5,221L238.5,221L238.5,208C238.5,203.667 240.083,200.333 243.25,198C246.417,195.667 249.167,194.5 251.5,194.5L290.5,194.5L290.5,142.5Z" style="fill:rgb(235,103,103);fill-rule:nonzero;"/>
</svg>
