<?xml version="1.0" encoding="UTF-8" standalone="no"?>
<!DOCTYPE svg PUBLIC "-//W3C//DTD SVG 1.1//EN" "http://www.w3.org/Graphics/SVG/1.1/DTD/svg11.dtd">
<svg width="100%" height="100%" viewBox="0 0 425 512" version="1.1" xmlns="http://www.w3.org/2000/svg" xmlns:xlink="http://www.w3.org/1999/xlink" xml:space="preserve" xmlns:serif="http://www.serif.com/" style="fill-rule:evenodd;clip-rule:evenodd;stroke-linejoin:round;stroke-miterlimit:2;">
    <path d="M317,51C331.333,51 344.833,53.75 357.5,59.25C370.167,64.75 381.25,72.25 390.75,81.75C400.25,91.25 407.75,102.333 413.25,115C418.75,127.667 421.5,141.167 421.5,155.5L421.5,364.5C421.5,378.833 418.75,392.417 413.25,405.25C407.75,418.083 400.25,429.25 390.75,438.75C381.25,448.25 370.167,455.75 357.5,461.25C344.833,466.75 331.333,469.5 317,469.5L107.5,469.5C93.167,469.5 79.667,466.75 67,461.25C54.333,455.75 43.25,448.25 33.75,438.75C24.25,429.25 16.75,418.083 11.25,405.25C5.75,392.417 3,378.833 3,364.5L3,155.5C3,141.167 5.75,127.667 11.25,115C16.75,102.333 24.25,91.25 33.75,81.75C43.25,72.25 54.333,64.75 67,59.25C79.667,53.75 93.167,51 107.5,51L317,51ZM147,208L94.5,208L94.5,378L147,378L147,208ZM121,194.5C128,194.5 134.083,192 139.25,187C144.417,182 147,175.833 147,168.5C147,161.167 144.417,155 139.25,150C134.083,145 128,142.5 121,142.5C113.667,142.5 107.417,145 102.25,150C97.083,155 94.5,161.167 94.5,168.5C94.5,175.833 97.083,182 102.25,187C107.417,192 113.667,194.5 121,194.5ZM330,279.5C330,267.5 326.667,255.75 320,244.25C313.333,232.75 304.667,224 294,218C284.333,212.667 273.083,209.833 260.25,209.5C247.417,209.167 235.833,211.333 225.5,216L225.5,208L173,208L173,378L225.5,378L225.5,274L247,263.5C249.667,262.167 253.333,261.5 258,261.5C262.667,261.5 266.167,262.333 268.5,264C270.5,265 272.5,267.167 274.5,270.5C276.5,273.833 277.5,276.833 277.5,279.5L277.5,378L330,378L330,279.5Z" style="fill:rgb(235,103,103);fill-rule:nonzero;"/>
</svg>
