<?xml version="1.0" encoding="UTF-8" standalone="no"?>
<!DOCTYPE svg PUBLIC "-//W3C//DTD SVG 1.1//EN" "http://www.w3.org/Graphics/SVG/1.1/DTD/svg11.dtd">
<svg width="100%" height="100%" viewBox="0 0 97223 27239" version="1.1" xmlns="http://www.w3.org/2000/svg" xmlns:xlink="http://www.w3.org/1999/xlink" xml:space="preserve" xmlns:serif="http://www.serif.com/" style="fill-rule:evenodd;clip-rule:evenodd;stroke-linecap:round;stroke-linejoin:round;stroke-miterlimit:2;">
    <g transform="matrix(5.55556,0,0,5.55556,0,0)">
        <g transform="matrix(5.55556,0,0,5.55556,0,-5592)">
            <g>
                <path d="M9.455,1818.25C290.438,1818.67 588.827,1815.73 601.928,1802.2C627.997,1775.27 708.818,1728.92 673.833,1620.1C638.515,1510.26 480.679,1460.12 391.991,1553.83C304.091,1646.71 397.978,1813.73 470.634,1802.21C543.407,1790.67 397.629,1744.77 420.001,1632.02C442.601,1518.11 587.146,1555.58 602.367,1631.88C617.48,1707.67 582.624,1776.96 515.046,1756.02C447.38,1735.06 613.483,1707.67 705.471,1707.63C797.534,1707.58 1621.58,1729.29 1621.58,1729.29C1621.58,1729.29 1634.79,1598.43 1619.67,1645.49C1604.6,1692.34 1647.06,1789.32 1757.9,1806.68C1868.67,1824.03 1928.35,1756.97 1927.57,1673.94C1926.79,1590.29 1885.35,1517.48 1783.54,1517.62C1681.81,1517.74 1589.54,1625.92 1640.51,1674.12C1691.28,1722.13 1663.91,1537.34 1808.85,1578.6C1808.85,1578.6 1857.74,1590.35 1872.8,1662.91C1887.78,1735.02 1801.94,1795.09 1749.16,1766.09C1696.27,1737.02 1659.28,1702.05 1705.45,1690.34C1751.69,1678.61 1891.68,1723.34 1954.29,1723.32C2016.93,1723.29 2118.02,1719.36 2117.98,1684.25C2117.95,1649.04 2117.83,1528.89 2089.27,1528.92C2060.72,1528.95 1946.77,1550.84 1991.55,1550.79C2033.83,1550.74 2113.33,1533.91 2093.78,1504.56C2092.62,1502.81 2091.1,1501.02 2089.21,1499.18C2055.39,1466.43 1874.34,1445.8 1888.8,1459.72C1903.23,1473.62 1942.44,1521.18 1968.94,1521.15C1995.44,1521.11 2075.01,1536.4 2074.95,1513.09C2074.88,1489.73 2003.17,1449.58 1982.57,1429.67C1961.96,1409.72 1627.33,1354.25 1617.1,1354.27C1606.86,1354.29 1612.15,1406.33 1628.13,1390.31C1644.14,1374.27 1593.92,1326.19 1571.37,1326.24C1548.83,1326.29 1455.27,1313.41 1442.36,1326.51C1429.45,1339.59 1515.87,1394.52 1583.27,1394.39C1650.71,1394.27 1609.2,1375.58 1556.81,1325.51C1504.21,1275.24 1207.39,1131.83 1159.68,1123.8C1111.94,1115.76 880.138,1124.61 869.306,1114.43C858.468,1104.25 896.873,1052.9 927.376,1044.59C957.912,1036.27 1056.85,1031.82 1089.25,1062.56C1121.55,1093.22 1134.55,1107.51 1056.26,1107.75C978.016,1107.98 836.531,1116.58 809.818,1116.65C783.104,1116.73 654.051,1153.78 547.785,1216.93C442.19,1279.69 427.853,1305.82 383.169,1305.92C338.499,1306.02 205.785,1296.28 196.143,1326.34C192.563,1337.51 190.363,1361.67 189.644,1387.53C188.43,1431.02 191.395,1479.32 198.972,1479.31C211.048,1479.29 376.379,1455.32 383.742,1419.63C391.125,1383.83 400.339,1371.86 367.941,1371.92C335.55,1371.99 213.671,1377.09 201.522,1390.15C189.389,1403.2 191.174,1470.44 179.188,1483.28C167.219,1496.11 146.247,1520.74 148.472,1546.27C150.692,1571.73 165.673,1674.97 195.595,1674.96C225.522,1674.93 320.897,1694.26 319.813,1680.7C318.721,1667.1 300.784,1518.57 375.389,1494.84C450.194,1471.04 1489.79,1518.79 1499.18,1527.67C1508.56,1536.54 1557.59,1588.69 1502.91,1588.74C1448.27,1588.79 696.964,1573.11 669.165,1547.62C641.308,1522.08 524.328,1420.39 542.236,1401.47C560.178,1382.53 595.339,1347.52 578.01,1331.55C560.661,1315.56 472.823,1293.47 523.026,1329.66C573.093,1365.76 1558.84,1414.4 1553.64,1370.43C1548.42,1326.29 1198.71,1164.48 1137.01,1164.65C1075.35,1164.82 845.077,1159.35 798.379,1167.62C751.721,1175.87 547.155,1252.27 583.029,1285.4C618.812,1318.45 990.427,1356.74 1006.59,1312.6C1022.82,1268.28 975.315,1177.3 977.349,1217.87C979.38,1258.3 1045.44,1652.99 1090.04,1660.75C1134.64,1668.52 1570.37,1694.31 1588.09,1676.76C1605.84,1659.18 1610.24,1412.33 1584.81,1458.19C1559.49,1503.86 1576.91,1795.12 1758.1,1818.25L3143.24,1816.31" style="fill:none;stroke:#8E9477;stroke-width:8.4px;"/>
            </g>
        </g>
    </g>
</svg>
