<?xml version="1.0" encoding="UTF-8" standalone="no"?>
<!DOCTYPE svg PUBLIC "-//W3C//DTD SVG 1.1//EN" "http://www.w3.org/Graphics/SVG/1.1/DTD/svg11.dtd">
<svg width="100%" height="100%" viewBox="0 0 60284 84262" version="1.1" xmlns="http://www.w3.org/2000/svg" xmlns:xlink="http://www.w3.org/1999/xlink" xml:space="preserve" xmlns:serif="http://www.serif.com/" style="fill-rule:evenodd;clip-rule:evenodd;stroke-linejoin:round;stroke-miterlimit:2;">
    <g transform="matrix(5.55556,0,0,5.55556,0,0)">
        <g transform="matrix(5.55556,0,0,5.55556,-8744,-1976)">
            <g>
                <path d="M1798.81,590.052C1808.61,595.584 1839.97,604.697 1873.09,606.909C1894.2,608.319 1910.72,606.429 1920.14,601.679C1906.08,595.274 1890.21,591.355 1872.5,590.93C1864.19,590.731 1855.72,590.399 1847.52,590.078C1830.38,589.408 1807.88,588.529 1798.81,590.052ZM1854.73,736.561C1860.39,740.665 1879.11,748.624 1907.18,754.75C1942.63,762.489 1972.64,763.088 1990.15,756.675C1960.5,738.216 1930.12,732.23 1908.28,730.658C1880.32,728.645 1860.9,733.396 1854.73,736.561ZM1948.79,919.231C1956.27,923.136 1980.16,928.321 2009.96,927.884C2041.9,927.416 2065.94,920.649 2077,909.172C2067.7,905.295 2058.39,903.445 2049.32,904.136C2026.43,905.888 2002.82,908.48 1984.56,911.245C1961.89,914.678 1952.56,917.594 1948.79,919.231ZM2989.89,1055.61C2998.5,1057.56 3007.48,1058.97 3014.79,1060.12C3017.67,1060.57 3020.41,1061 3022.94,1061.42C3056.88,1067.12 3086.14,1067.53 3097.65,1065.48C3090.71,1062.29 3076.32,1057.39 3055.48,1052.55C3029.62,1046.54 3007.49,1043.91 2999.12,1045.83C2997.13,1046.29 2993.97,1048.4 2989.89,1055.61ZM2058.39,1101.07C2059.68,1103.34 2063.13,1105.22 2068.23,1106.4C2092.17,1111.95 2145.77,1100.84 2173.13,1082.82C2126.26,1071.99 2084.54,1084.73 2068.2,1093.59C2061.63,1097.15 2059.06,1099.95 2058.39,1101.07ZM2143.96,1267.14C2153.5,1271.29 2190.11,1277.33 2225.17,1271.48C2239.37,1269.1 2256.93,1264.06 2268.01,1253.34C2252.81,1246.7 2235.21,1242.97 2215.01,1244.17C2189.62,1245.67 2152.46,1260.18 2143.96,1267.14ZM2245.31,1462.82C2246.9,1465.13 2258.66,1468.84 2280.85,1467.8C2309.78,1466.45 2344.07,1457.28 2359.17,1440.17C2356.52,1438.76 2353.84,1437.82 2351.12,1437.42C2309.1,1431.12 2261.18,1446.26 2247.93,1459.04C2245.88,1461.01 2245.36,1462.33 2245.31,1462.82ZM1984.01,1479.7C1983.15,1479.7 1982.31,1479.73 1981.48,1479.79C1936.2,1483.02 1896.51,1532.78 1882.79,1567.09C1876.59,1582.59 1876.58,1592.58 1879.33,1595.59C1880.3,1596.32 1885.92,1598.04 1916.01,1587.76C1938.41,1580.1 1968.51,1568.07 2015.42,1549.17C2040.29,1539.15 2058.49,1531.41 2071.83,1525.31C2032.48,1496.21 2004.31,1479.7 1984.01,1479.7ZM2564.63,1661.34C2590.69,1661.54 2618.97,1653.25 2649.93,1636.37C2658.61,1631.63 2658.77,1627.3 2658.83,1625.88C2659.35,1612.18 2629.5,1592.84 2616.75,1584.59C2614.09,1582.87 2611.8,1581.38 2610.19,1580.24C2608.13,1578.78 2605.01,1576.58 2605.92,1572.85C2607.43,1566.73 2614.72,1567.41 2634.22,1569.22C2640.58,1569.81 2650.79,1570.76 2657.41,1570.73C2651.39,1566.97 2640.97,1561.82 2633.96,1558.36C2609.04,1546.04 2599.03,1540.74 2601.57,1533.18C2603.25,1528.15 2609.65,1527.03 2618.73,1526.9C2625.17,1526.81 2633.88,1527.27 2644.67,1528.3C2662.83,1530.02 2681.5,1532.8 2685.51,1533.45C2698.47,1535.56 2708.41,1532.35 2712.1,1524.88C2714.65,1519.72 2713.47,1513.51 2709.16,1509.44C2702.74,1503.39 2695.35,1502.03 2683.1,1499.79C2672.7,1497.88 2659.76,1495.51 2642.31,1489.26L2638.51,1487.9L2639,1483.87C2639.53,1479.78 2642.94,1479.5 2646.89,1479.17C2656.23,1478.41 2684.68,1476.07 2701.73,1466.13C2717.75,1456.8 2734.65,1424.13 2742.78,1404.35C2741.99,1405.17 2741.2,1405.99 2740.42,1406.79C2718.92,1429.01 2702.89,1444.68 2693.12,1443.95C2690.56,1443.76 2688.35,1442.54 2686.89,1440.51C2684.44,1437.1 2685.25,1433.06 2695.51,1397.27C2699.77,1382.39 2704.61,1365.52 2707.93,1351.46C2710.51,1340.49 2711.51,1333.94 2711.82,1330.06C2705.17,1339.37 2693.73,1361.67 2685.66,1377.43C2664.64,1418.43 2658.57,1428.86 2651.78,1429.11C2642.75,1429.47 2639.91,1416.83 2638.68,1411.44C2636.75,1402.96 2635.53,1392.3 2634.34,1381.99C2633.53,1374.93 2632.49,1365.95 2631.37,1360.75C2628.27,1365.45 2623.63,1375.6 2620.11,1390.6C2616.56,1405.76 2610.25,1444.03 2628.34,1471.73C2629.55,1473.58 2629.53,1475.91 2628.28,1477.65C2626.09,1480.71 2622.99,1479.93 2618.68,1478.84C2597.94,1473.58 2568.81,1470.48 2555.35,1504.14C2549.46,1518.87 2549.66,1557.45 2555.89,1607.37C2558.51,1628.42 2561.66,1646.95 2564.63,1661.34ZM2407,1532.46C2399.69,1645.34 2404.85,1669.17 2407.16,1674.16C2414.23,1669.88 2420.36,1647.94 2418.1,1607.06C2416.75,1582.4 2412.83,1556.45 2407,1532.46ZM2733.59,1688.4C2734.03,1691.35 2734.56,1694.15 2735.18,1696.74C2737.2,1705.28 2759.17,1710.76 2779.53,1707.79C2790.76,1706.16 2798.45,1702.2 2798.22,1698.18C2794.57,1633.23 2799.51,1582.48 2814.24,1533.63C2827.04,1491.17 2847.1,1450.13 2880.59,1398.2C2860.78,1412.01 2821.04,1448.83 2795.66,1510.56C2777.78,1554.06 2766.27,1607.84 2758.65,1643.43C2751.27,1677.91 2750.07,1682.4 2745.63,1684.06C2741.59,1685.57 2737.57,1687.02 2733.59,1688.4ZM2869,1692.2C2876.36,1695.51 2893.1,1700.43 2916.08,1704.38C2946.53,1709.61 2974.85,1710.9 2991.83,1707.84C3001.41,1706.11 3007.55,1703 3009.1,1699.09C3010.82,1694.79 3012.47,1690.55 3014.05,1686.39C3011.63,1686 3009.11,1685.62 3006.51,1685.28C2951.73,1678.05 2886.77,1686.33 2869,1692.2ZM2067.64,1688.13C2027.26,1693.95 1999.49,1708.4 1979.77,1733.28C1961.26,1756.63 1963.96,1771.93 1975.32,1836.32C1982.14,1874.96 1991.48,1927.88 2001.16,2008.94C2032.01,2267.4 2070.41,2589.06 1960.11,2849.55C1958.61,2853.1 1956.85,2857.18 1954.94,2861.61C1948.61,2876.26 1940.75,2894.5 1934.91,2910.39C1927.7,2929.99 1926.81,2937.44 1926.91,2940.13C1932.62,2938.34 1950.52,2925.24 1980.21,2889.85C1998.26,2868.33 2033.17,2823.48 2064.11,2764.85C2101.25,2694.47 2108.01,2650.16 2113.97,2611.07C2119.52,2574.69 2124.32,2543.27 2152.57,2501.93C2205.91,2423.88 2283.29,2396.37 2345.47,2374.27C2394.05,2357 2432.43,2343.36 2436.57,2311.52C2441.24,2275.58 2399.44,2248.73 2341.59,2211.57C2274.44,2168.44 2190.87,2114.76 2132.08,2018.48C2088.14,1946.51 2072.45,1878.27 2067.04,1833.7C2061.42,1787.48 2065.26,1756.94 2065.79,1753.08C2065.85,1740.99 2066.33,1729.37 2066.79,1718.13C2067.23,1707.43 2067.64,1697.35 2067.64,1688.13ZM3213.57,3062.94C3212.85,3062.94 3212.13,3062.94 3211.4,3062.93C3171.24,3062.62 3122.67,3053.46 3071.26,3043.77C3008.35,3031.91 2937.04,3018.47 2864.2,3017.68C2534.03,3014.11 2285.22,3024.63 2120.58,3031.58C1940.64,3039.19 1911.62,3039.43 1909.86,3026.03C1909.66,3024.52 1909.86,3022.2 1911.92,3019.7C1925.94,3002.66 2044.35,2975.98 2141.49,2958.3C2229.42,2942.3 2409.37,2913.42 2626.58,2899.76C2838.02,2886.46 3052.4,2890.04 3263.76,2910.42C3266.51,2910.69 3268.52,2913.13 3268.25,2915.88C3267.99,2918.63 3265.53,2920.65 3262.8,2920.37C3051.96,2900.05 2838.12,2896.47 2627.2,2909.74C2408.74,2923.48 2228.21,2952.59 2140.05,2968.73C2077.63,2980.15 2023.18,2991.97 1982.59,3002.92C1940.24,3014.34 1926.25,3021.24 1921.69,3024.32C1926.86,3025.71 1940.4,3027.16 1975.03,3026.72C2009.28,3026.28 2058.21,3024.21 2120.16,3021.59C2284.91,3014.63 2533.88,3004.11 2864.3,3007.68C2938.03,3008.48 3009.8,3022.01 3073.12,3033.94C3177.32,3053.59 3259.63,3069.1 3301.32,3022.06C3344.56,2973.27 3320.95,2895.44 3300.13,2826.76C3297.79,2819.06 3295.59,2811.79 3293.48,2804.56C3258.07,2683.34 3244.99,2559.37 3253.48,2425.56C3260.8,2310.07 3282.81,2206.3 3302.24,2114.75C3337.63,1947.88 3363.21,1827.32 3274.89,1759.53C3238.14,1731.33 3208.78,1733.36 3121.63,1739.37C3079.94,1742.25 3022.84,1746.19 2945.74,1747.87C2678.81,1753.67 2473.7,1726.03 2323.93,1705.85C2231.29,1693.36 2158.12,1683.5 2101.35,1685.31C2093.03,1685.58 2085.13,1686.1 2077.64,1686.89C2077.68,1696.68 2077.24,1707.3 2076.78,1718.54C2076.32,1729.79 2075.84,1741.43 2075.79,1753.47L2075.79,1753.83L2075.74,1754.19C2075.69,1754.5 2071.23,1785.37 2076.96,1832.49C2082.26,1876.08 2097.61,1942.83 2140.62,2013.27C2198.21,2107.59 2280.7,2160.58 2346.99,2203.16C2376.72,2222.25 2402.4,2238.75 2420.32,2255.65C2440.74,2274.91 2449.05,2293.07 2446.48,2312.81C2441.55,2350.73 2400.63,2365.28 2348.82,2383.69C2288.01,2405.31 2212.33,2432.21 2160.82,2507.58C2133.86,2547.03 2129.45,2575.96 2123.86,2612.57C2117.77,2652.45 2110.88,2697.65 2072.95,2769.52C2049.24,2814.46 2017.19,2861.88 1985.04,2899.62C1971.22,2915.85 1958.34,2929.13 1947.79,2938.05C1935.13,2948.75 1927.04,2952.25 1921.55,2949.39C1911.69,2944.26 1916.89,2924.54 1945.75,2857.65C1947.65,2853.24 1949.4,2849.19 1950.9,2845.66C2060.16,2587.61 2021.94,2267.41 1991.23,2010.12C1981.59,1929.34 1972.28,1876.58 1965.48,1838.06C1953.77,1771.76 1950.63,1753.94 1971.93,1727.06C1993.57,1699.77 2023.71,1684.11 2067.44,1678.05C2066.58,1658.32 2062.72,1643.68 2051.03,1637.19C2037.41,1629.63 2020.47,1637.84 1989.71,1652.74C1968.83,1662.86 1942.84,1675.46 1907.48,1688.31C1856.29,1706.92 1807.08,1724.81 1762.48,1724.81C1743.32,1724.82 1725.01,1721.51 1707.76,1713.55C1665.83,1694.18 1636.2,1657.44 1628.61,1631.16C1625.5,1620.36 1626.08,1611.21 1630.31,1604.7C1639.35,1590.79 1662.12,1592.11 1686.24,1593.52C1711.4,1594.98 1737.42,1596.49 1748.01,1581.91C1754.55,1572.91 1751.67,1561.99 1748.61,1550.44C1745.29,1537.83 1741.52,1523.55 1751.13,1511.23C1763.24,1495.69 1784.86,1497.36 1807.74,1499.12C1829.04,1500.76 1851.06,1502.45 1866.56,1490.58C1886.28,1475.48 1882.96,1447.35 1879.75,1420.14C1876.73,1394.5 1873.87,1370.27 1890.76,1357.89C1919.23,1337.03 1989.88,1364.86 2044.95,1403.12C2068.73,1419.64 2088.24,1437.13 2101.35,1453.68C2116.78,1473.16 2122.56,1490.21 2118.55,1504.38C2116.8,1510.57 2113.86,1515.78 2091.03,1527.28C2109.7,1541.46 2131.13,1558.37 2156.03,1578.11C2166.92,1586.74 2176.03,1594.09 2184.06,1600.58C2203.16,1615.99 2218.35,1628.25 2222.57,1628.48C2222.94,1627.55 2223.78,1623.5 2219.41,1610.18C2215.83,1599.23 2209.56,1584.48 2200.26,1565.06C2182.02,1526.99 2153.98,1475.07 2124.42,1420.75C2113.68,1401.01 2094.27,1367.35 2069.69,1324.74C1999.67,1203.35 1882.49,1000.2 1792.06,816.954C1680.59,591.072 1640.49,459.24 1669.48,413.929C1686.74,386.937 1742.13,405.133 1760.33,411.114C1761.2,411.4 1761.97,411.653 1762.63,411.864C1803.91,425.157 1845.42,450.46 1879.5,483.11C1909.4,511.764 1931.27,543.967 1937.98,569.254C1941.21,581.388 1940.81,591.568 1936.88,599.122C1974.96,621.764 1998.61,661.765 2008.61,697.411C2015.98,723.671 2015.52,745.705 2007.84,756.657C2010.09,758.336 2012.32,760.085 2014.53,761.908C2052.15,792.924 2105.73,867.154 2091.35,905.063C2102.99,911.602 2114.78,920.99 2126.46,933.101C2147.87,955.303 2167.69,985.444 2180.83,1015.79C2186.92,1029.88 2198.87,1061.43 2191.82,1078.14C2204.94,1084.15 2220.16,1097.18 2235.39,1115.59C2251.84,1135.48 2266.8,1159.84 2276.42,1182.42C2285.01,1202.58 2293.29,1230.41 2283.96,1248.52C2283.75,1248.93 2283.54,1249.33 2283.32,1249.73C2306.39,1262.69 2323.52,1281.67 2335.53,1299.04C2370.55,1349.68 2382.67,1415.95 2373.75,1435.92C2373.48,1436.54 2373.19,1437.15 2372.88,1437.75C2383.65,1447.27 2392.95,1462.54 2400.71,1480.8C2405.87,1415.35 2413.43,1338.41 2422.17,1262.82C2440.21,1106.73 2482.09,907.4 2579.22,844.237C2612.06,822.874 2649.24,818.444 2689.7,831.072C2728.43,843.158 2762.01,867.335 2789.52,902.932C2820.73,943.311 2844.96,999.532 2861.56,1070.03C2862.4,1073 2874.39,1115.65 2883.56,1161.46C2889.04,1188.84 2892.39,1211.75 2893.51,1229.57C2895.03,1253.66 2892.62,1268.12 2885.94,1275.09C2867.54,1294.28 2840.69,1310.65 2822.18,1303.94C2815.09,1301.37 2806.35,1294.22 2805.01,1274.79C2804.97,1274.18 2804.91,1272.73 2804.83,1270.53C2802.17,1200.82 2794.6,1147.25 2788.71,1114.58C2772.31,1023.56 2746.4,962.083 2711.68,931.853C2693.34,915.882 2672.35,908.959 2649.27,911.268C2632.18,912.98 2615.81,923.976 2600.6,943.951C2560.79,996.237 2528.04,1113.01 2508.4,1272.77C2492.46,1402.37 2489.69,1522.95 2494.72,1552.34C2497.61,1569.26 2498.69,1584.09 2499.64,1597.17C2501.69,1625.46 2502.93,1642.57 2519.46,1651.61C2530.66,1656.56 2542.25,1659.63 2554.31,1660.8C2551.21,1645.42 2548.31,1627.34 2546.03,1609.12C2542.91,1584.26 2536.67,1523.9 2546.06,1500.43C2553.86,1480.95 2567.23,1469.48 2585.8,1466.35C2596.69,1464.52 2607.23,1466.02 2614.68,1467.61C2605.66,1448.05 2605.26,1426.1 2606.79,1410.12C2608.95,1387.49 2615.9,1367.24 2621.83,1357.21C2624.25,1353.12 2628.07,1347.75 2633.33,1348.13C2640.57,1348.68 2641.73,1358.76 2644.27,1380.85C2645.5,1391.48 2647.94,1412.71 2651.35,1418.26C2656.57,1412.25 2668.58,1388.83 2676.76,1372.87C2683.81,1359.11 2691.1,1344.88 2697.24,1334.45C2705.32,1320.72 2710.89,1313.83 2717.17,1316.78C2726.15,1321 2722.25,1340.28 2705.12,1400.02C2701.51,1412.63 2697.5,1426.59 2696.19,1433.19C2698.45,1432.08 2702.59,1429.42 2709.72,1423.05C2717.5,1416.1 2726.23,1407.08 2733.24,1399.83C2737.47,1395.46 2741.12,1391.69 2743.94,1388.99C2747.51,1385.58 2751.2,1382.05 2755.2,1384.61C2756.16,1385.23 2757.77,1386.72 2757.71,1389.75C2757.5,1399.76 2732.32,1459.89 2706.76,1474.78C2695.8,1481.16 2681.14,1484.69 2668.79,1486.68C2674.83,1488.1 2680.15,1489.08 2684.91,1489.95C2697.99,1492.35 2707.45,1494.09 2716.02,1502.17C2723.55,1509.27 2725.58,1520.18 2721.07,1529.31C2715.33,1540.93 2701.44,1546.17 2683.91,1543.33C2661.61,1539.71 2628.13,1536.11 2614.92,1536.98C2620.75,1540.67 2631.33,1545.9 2638.39,1549.39C2663.77,1561.94 2673.97,1567.34 2671.28,1575.06C2668.93,1581.82 2658.99,1581.56 2633.3,1579.18C2630.94,1578.96 2628.3,1578.71 2625.72,1578.5C2647.54,1592.82 2669.46,1609.29 2668.82,1626.26C2668.53,1633.84 2663.79,1640.2 2654.72,1645.15C2626.87,1660.33 2600.34,1668.99 2575.85,1670.87C2572.82,1671.11 2569.8,1671.24 2566.81,1671.26C2569.57,1683.09 2572.01,1690.64 2573.51,1692.42C2578.3,1697.65 2595.98,1702.95 2629.96,1700.64C2658.09,1698.72 2690.4,1692.02 2722.64,1681.51C2719.04,1645.76 2724.32,1597.79 2726.52,1585.88C2741.19,1506.5 2765.54,1450.44 2810.57,1392.38C2832.72,1363.81 2852.12,1344.15 2869.24,1326.8C2898.44,1297.2 2919.54,1275.82 2934.39,1230.31C2938.66,1217.23 2943.36,1194.1 2948.34,1169.61C2957.68,1123.69 2965.95,1085.82 2975.73,1062.22C2974.22,1061.74 2972.76,1061.24 2971.33,1060.72C2954.74,1054.56 2947.19,1045.59 2948.89,1034.05C2949.79,1027.93 2953.78,1019.55 2967.64,1014.35C3005.33,1000.21 3095.78,1018.29 3128.94,1046.59C3141.87,1057.62 3143.01,1067.68 3141.68,1074.19C3138.78,1088.42 3129.16,1093.5 3118.02,1099.39C3112.76,1102.17 3106.79,1105.33 3100.38,1109.92C3090.79,1117.58 3037.68,1254.6 3052.33,1398.11C3062.74,1500.13 3069.29,1564.29 3027.62,1678.62C3052.64,1683.21 3063,1685.1 3075.22,1662.53C3088.28,1638.42 3102.76,1609.3 3118.09,1578.48C3160.77,1492.68 3204.9,1403.95 3236.84,1383.1C3265.22,1364.57 3337.12,1391.63 3390.08,1420.43C3437.03,1445.96 3491.82,1485.26 3491.71,1511.96C3491.54,1557.36 3446.71,1614.53 3420,1644.57C3386.47,1682.29 3345.21,1718.01 3333.44,1719.51C3331.22,1719.79 3329.1,1718.85 3327.91,1717.04C3324.97,1712.56 3327.1,1708.01 3350.67,1668.35C3377.17,1623.75 3421.52,1549.1 3416.55,1520.56C3414.94,1511.28 3397.13,1493.97 3371.18,1476.46C3344.64,1458.55 3314.83,1443.75 3293.4,1437.85C3279.41,1434.01 3269.43,1434.08 3266.02,1438.06C3249.64,1457.13 3220.46,1503.65 3193.41,1553.81C3162.34,1611.45 3149.28,1645.36 3150.3,1652.48C3152.08,1664.99 3173.07,1667.86 3202.11,1671.82C3230.68,1675.72 3266.24,1680.58 3299.96,1697.38C3302.43,1698.62 3303.43,1701.62 3302.2,1704.09C3300.97,1706.56 3297.97,1707.57 3295.49,1706.33C3263.25,1690.26 3228.6,1685.53 3200.76,1681.73C3168.63,1677.34 3143.25,1673.88 3140.4,1653.89C3138.07,1637.61 3170.54,1575.16 3184.61,1549.07C3212.39,1497.55 3241.37,1451.41 3258.43,1431.54C3264.74,1424.2 3277.4,1423.08 3296.05,1428.21C3343.56,1441.29 3421.76,1492.18 3426.4,1518.85C3432.01,1551.03 3388.23,1624.71 3359.26,1673.46C3352.45,1684.93 3345.48,1696.66 3341.17,1704.64C3355.71,1694.59 3384,1670.05 3412.77,1637.65C3438.45,1608.73 3481.55,1553.94 3481.71,1511.92C3481.78,1494.42 3441.23,1459.63 3385.3,1429.21C3320.8,1394.14 3262,1378.62 3242.3,1391.48C3212.64,1410.84 3167.17,1502.27 3127.04,1582.93C3111.67,1613.84 3097.15,1643.03 3084.02,1667.29C3068.33,1696.26 3050.49,1692.98 3025.8,1688.45C3025.23,1688.35 3024.66,1688.25 3024.09,1688.14C3022.27,1692.93 3020.38,1697.82 3018.39,1702.79C3013.81,1714.29 2996.34,1719.9 2966.53,1719.47C2944.66,1719.16 2917.05,1715.57 2892.66,1709.86C2882.59,1707.51 2874.06,1704.99 2867.98,1702.59C2861.35,1699.96 2855.27,1696.77 2855.71,1691.25C2855.82,1689.96 2856.39,1688.07 2858.52,1686.35C2870.22,1676.9 2949.96,1667.73 3007.82,1675.37C3011.25,1675.82 3014.52,1676.32 3017.62,1676.85C3059.16,1563.55 3052.69,1500.16 3042.38,1399.13C3034.44,1321.31 3046.22,1248.22 3057.49,1200.61C3068.86,1152.62 3085.48,1108.29 3094.55,1101.79C3101.52,1096.8 3107.8,1093.48 3113.35,1090.55C3124.04,1084.9 3129.93,1081.79 3131.88,1072.19C3133.03,1066.57 3129.86,1060.51 3122.45,1054.19C3091.92,1028.14 3005.67,1010.76 2971.15,1023.71C2963.69,1026.51 2959.53,1030.48 2958.78,1035.51C2957.57,1043.73 2967.32,1049.2 2979.99,1053.03C2985.06,1043.43 2990.59,1037.53 2996.88,1036.08C3011.63,1032.69 3046.77,1040.28 3057.19,1042.68C3064.46,1044.36 3101.12,1053.13 3109.12,1060.94C3111.73,1063.5 3111.67,1066.06 3111.4,1067.36C3109.75,1075.39 3095.34,1076.58 3079.8,1076.58L3078.91,1076.58C3062.05,1076.53 3041.05,1074.6 3021.28,1071.28C3018.79,1070.86 3016.08,1070.44 3013.25,1070C3004.71,1068.66 2994.8,1067.1 2985.42,1064.87C2982.99,1070.63 2980.33,1078.09 2977.48,1087.72C2970.2,1112.33 2963.79,1143.82 2958.14,1171.61C2952.88,1197.46 2948.34,1219.79 2943.9,1233.41C2928.31,1281.16 2905.39,1304.4 2876.36,1333.82C2859.44,1350.97 2840.26,1370.41 2818.47,1398.51C2774.5,1455.21 2750.71,1510.02 2736.36,1587.7C2733.66,1602.28 2729.58,1645.93 2732.4,1678.22C2735.19,1677.24 2737.98,1676.24 2740.76,1675.2C2742.52,1671.04 2745.75,1655.95 2748.88,1641.33C2756.57,1605.39 2768.19,1551.08 2786.41,1506.76C2818.52,1428.68 2877.48,1382.92 2891.17,1381.98C2893.71,1381.81 2895.92,1382.88 2897.07,1384.85C2898.39,1387.12 2898.07,1389.77 2896.11,1392.73C2822.82,1503.52 2801.46,1577.61 2808.21,1697.62C2808.78,1707.77 2798.85,1715.08 2780.97,1717.69C2761.05,1720.59 2729.63,1716.67 2725.45,1699.05C2724.89,1696.69 2724.39,1694.2 2723.96,1691.61C2647.01,1716.44 2581.83,1716.31 2566.12,1699.16C2564.9,1697.82 2561.75,1694.38 2556.47,1670.95C2542.14,1669.93 2528.33,1666.49 2515.22,1660.67L2514.88,1660.5C2493.36,1648.88 2491.81,1627.49 2489.66,1597.89C2488.73,1585.04 2487.67,1570.47 2484.86,1554.03C2479.73,1524.03 2482.43,1402.05 2498.47,1271.55C2512.52,1157.31 2540.26,1006.69 2592.64,937.893C2609.6,915.623 2628.32,903.317 2648.28,901.318C2674.21,898.718 2697.75,906.456 2718.25,924.312C2796.12,992.119 2811.72,1188.75 2814.82,1270.15C2814.9,1272.19 2814.95,1273.54 2814.98,1274.11C2815.76,1285.4 2819.33,1292.27 2825.59,1294.54C2837.38,1298.81 2860.21,1287.47 2878.72,1268.17C2882.71,1264.02 2890.19,1245.5 2873.75,1163.42C2864.52,1117.32 2852.42,1074.45 2851.91,1072.65L2851.72,1071.87C2821.32,943.106 2765.81,865.298 2686.72,840.618C2649.24,828.92 2614.9,832.958 2584.67,852.619C2544.45,878.779 2510.4,932.662 2483.47,1012.77C2460.88,1080 2443.59,1164.51 2432.1,1263.97C2422.41,1347.86 2414.15,1433.59 2409.02,1503.22C2419.88,1536.66 2426.37,1575.33 2428.09,1606.51C2429.56,1633.27 2428.95,1678.98 2408.27,1684.45C2405.76,1685.12 2403.26,1684.52 2401.24,1682.77C2397.38,1679.43 2393.41,1670.62 2393.19,1630.63C2393.06,1605.11 2394.47,1569.94 2397.39,1526.1C2397.86,1519.02 2398.37,1511.73 2398.92,1504.26C2390.34,1478.57 2379.45,1457.43 2367.3,1446.12C2355.72,1459.86 2336.16,1467.59 2320.34,1471.81C2298.77,1477.56 2273.41,1479.51 2255.72,1476.76C2242.94,1474.78 2236.09,1470.51 2235.37,1464.07C2234.91,1459.99 2236.8,1455.88 2240.99,1451.84C2256.01,1437.36 2306.96,1420.69 2352.6,1427.53C2356.77,1428.15 2360.79,1429.61 2364.64,1431.79C2371.57,1416.1 2360.86,1353.26 2327.31,1304.73C2315.87,1288.19 2299.5,1270.08 2277.44,1257.97C2258.55,1279.14 2221.24,1283.35 2198.98,1283.85C2175.79,1284.37 2138.93,1280.74 2133.52,1271.29C2132.27,1269.11 2132.3,1266.47 2133.61,1264.04C2139.97,1252.29 2188.65,1235.71 2214.42,1234.19C2237.49,1232.82 2257.4,1237.33 2274.4,1245.18C2274.63,1244.77 2274.86,1244.36 2275.07,1243.94C2280.87,1232.67 2278.01,1211.68 2267.22,1186.34C2248.17,1141.62 2210.64,1096.01 2185.32,1086.24C2173.03,1096.38 2152.58,1105.55 2128.53,1111.62C2103.95,1117.84 2080.56,1119.53 2065.97,1116.14C2056.88,1114.03 2051.11,1110 2048.81,1104.15C2047.85,1101.72 2047.63,1097.83 2051.96,1093.12C2065.71,1078.16 2123.66,1058.68 2182.33,1074.84C2185.93,1067.64 2184.14,1048.62 2171.65,1019.77C2153.02,976.739 2120.35,932.739 2086.32,913.725C2061.14,944.618 1981.74,940.221 1952.58,931.296C1945.96,929.271 1937.15,925.8 1936.94,919.053C1936.75,912.562 1943.48,907.703 1978.46,902.076C1997.36,899.035 2023.56,896.078 2048.56,894.166C2059.44,893.331 2070.77,895.504 2082.32,900.553C2086.55,887.64 2081.21,866.642 2067.05,841.421C2052.29,815.125 2029.17,786.942 2008.17,769.624C2005.44,767.378 2002.7,765.258 1999.94,763.254C1977.63,775.117 1939.32,770.818 1917.88,767.05C1887.41,761.695 1857.19,751.619 1847.59,743.612C1842.51,739.375 1843.09,735.509 1843.88,733.581C1844.5,732.089 1846.37,727.55 1861.13,723.857C1887.13,717.352 1946.7,715.782 1999.69,750.917C2004.72,743.884 2006.06,725.325 1998.98,700.114C1989.45,666.155 1966.83,627.986 1930.4,606.96C1916.33,618.228 1888.25,618.408 1866.4,616.41C1840.52,614.045 1812.07,607.462 1797.22,600.401C1793.96,598.85 1785.29,594.73 1786.29,588.018C1787.76,578.13 1805.17,578.413 1847.91,580.086C1856.07,580.405 1864.51,580.735 1872.74,580.933C1893.55,581.432 1911.98,586.365 1928.09,594.344C1931.41,587.82 1930.16,578.761 1928.32,571.82C1916.91,528.871 1850.25,450.586 1759.56,421.383C1758.89,421.166 1758.1,420.907 1757.21,420.614C1749,417.916 1731.91,412.301 1715.1,410.265C1695.76,407.927 1683.24,410.969 1677.9,419.318C1663.84,441.292 1669.24,490.055 1693.95,564.252C1715.19,628.064 1751.22,711.596 1801.03,812.529C1891.31,995.479 2008.4,1198.46 2078.35,1319.74C2102.96,1362.41 2122.4,1396.12 2133.21,1415.97C2163.89,1472.36 2192.94,1526.17 2211.2,1564.77C2220.68,1584.81 2226.87,1599.9 2230.11,1610.88C2232.99,1620.63 2235.34,1632.41 2227.92,1637.06C2222.05,1640.73 2215.09,1636.7 2209.03,1632.63C2201.98,1627.89 2192.35,1620.12 2177.78,1608.36C2169.76,1601.88 2160.67,1594.55 2149.82,1585.95C2123.88,1565.38 2101.06,1547.29 2080.98,1532.14C2066.76,1538.79 2046.94,1547.25 2019.16,1558.45C1912.87,1601.27 1881.78,1613.14 1871.93,1602.32C1863.47,1593.02 1869.28,1573.93 1873.5,1563.37C1881.64,1543.03 1896.73,1520.86 1913.86,1504.09C1928.69,1489.57 1952.33,1471.84 1980.77,1469.81C2004.61,1468.11 2033.5,1484.24 2082.05,1520.52C2104.32,1509.72 2107.91,1505.27 2108.93,1501.65C2114.96,1480.38 2087.6,1444.93 2039.25,1411.33C1980.38,1370.44 1917.76,1350.51 1896.67,1365.96C1884.48,1374.89 1887.01,1396.3 1889.68,1418.97C1893.06,1447.56 1896.88,1479.96 1872.64,1498.52C1854.1,1512.72 1829.06,1510.79 1806.97,1509.09C1785.97,1507.47 1767.83,1506.08 1759.01,1517.38C1752.45,1525.79 1755.15,1536.03 1758.28,1547.89C1761.63,1560.57 1765.43,1574.95 1756.1,1587.79C1742.29,1606.79 1712.2,1605.04 1685.66,1603.5C1665.46,1602.32 1644.57,1601.11 1638.7,1610.15C1636.1,1614.15 1635.93,1620.46 1638.22,1628.38C1645.01,1651.9 1673.16,1686.56 1711.95,1704.47C1765.61,1729.25 1832.86,1704.8 1904.06,1678.91C1938.94,1666.23 1964.67,1653.76 1985.35,1643.74C2018.01,1627.92 2037.73,1618.37 2055.89,1628.45C2071.41,1637.06 2076.33,1654.23 2077.4,1676.85C2084.89,1676.09 2092.76,1675.58 2101.03,1675.32C2158.64,1673.48 2232.17,1683.39 2325.26,1695.94C2474.71,1716.08 2679.38,1743.67 2945.52,1737.87C3022.39,1736.2 3079.35,1732.27 3120.94,1729.39C3208.48,1723.35 3241.23,1721.1 3280.98,1751.6C3324.15,1784.74 3344.45,1831.63 3344.87,1899.18C3345.24,1960.19 3329.85,2032.78 3312.02,2116.82C3272.84,2301.49 3224.09,2531.31 3303.08,2801.76C3305.17,2808.94 3307.37,2816.19 3309.7,2823.86C3319.95,2857.66 3331.56,2895.96 3334.68,2931.56C3338.32,2973.16 3329.86,3004.93 3308.8,3028.69C3288.12,3052.03 3257.82,3062.94 3213.57,3062.94Z" style="fill:#E39999;fill-rule:nonzero;"/>
            </g>
        </g>
    </g>
</svg>
